<?xml version="1.0" encoding="iso-8859-1"?>
<!-- Generator: Adobe Illustrator 18.0.0, SVG Export Plug-In . SVG Version: 6.00 Build 0)  -->
<!DOCTYPE svg PUBLIC "-//W3C//DTD SVG 1.1//EN" "http://www.w3.org/Graphics/SVG/1.1/DTD/svg11.dtd">
<svg version="1.1" id="Capa_1" xmlns="http://www.w3.org/2000/svg" xmlns:xlink="http://www.w3.org/1999/xlink" x="0px" y="0px"
	 viewBox="0 0 396.007 396.007" style="enable-background:new 0 0 396.007 396.007;" xml:space="preserve">
<g>
	<rect x="258.454" y="67.511" style="fill:#638591;" width="80.667" height="33.333"/>
	<rect x="339.121" y="67.511" style="fill:#99B5C4;" width="22.126" height="33.333"/>
	<rect x="15.004" y="67.512" style="fill:#4D4D4D;" width="167.99" height="221.99"/>
	<path style="fill:#EF7954;" d="M247.454,128.242h-7v-7.296c0-8.659-7.045-15.704-15.704-15.704h-35.592
		c-12.52,0-22.704-10.185-22.704-22.704V67.511h7v15.027c0,8.659,7.045,15.704,15.704,15.704h35.592
		c12.52,0,22.704,10.185,22.704,22.704V128.242z"/>
	<path style="fill:#F9ED82;" d="M264.454,128.242h-7v-21.296c0-8.659-7.045-15.704-15.704-15.704h-2.176
		c-12.52,0-22.704-10.185-22.704-22.704V53.511h7v15.027c0,8.659,7.045,15.704,15.704,15.704h2.176
		c12.52,0,22.704,10.185,22.704,22.704V128.242z"/>
	<rect x="321.913" y="100.844" style="fill:#808080;" width="13.333" height="59.333"/>
	<rect x="275.662" y="100.844" style="fill:#666666;" width="46.251" height="59.333"/>
	<path style="fill:#CCCCCC;" d="M298.787,148.908h-195c-3.13,0-5.667-2.537-5.667-5.667v0c0-3.13,2.537-5.667,5.667-5.667h195
		c3.13,0,5.667,2.537,5.667,5.667v0C304.454,146.371,301.917,148.908,298.787,148.908z"/>
	<rect x="0" y="304.498" style="fill:#808080;" width="395.98" height="23.143"/>
	<rect x="197.99" y="304.498" style="fill:#999999;" width="197.99" height="23.143"/>
	<polygon style="fill:#808080;" points="55.497,327.642 0,327.642 11.587,368.995 43.91,368.995 	"/>
	<polygon style="fill:#808080;" points="223.86,327.642 168.362,327.642 179.95,368.995 212.272,368.995 	"/>
	<polygon style="fill:#808080;" points="396.007,327.642 340.51,327.642 352.097,368.995 384.42,368.995 	"/>
	<rect x="52.657" y="265.575" style="fill:#E6E6E6;" width="290.667" height="23.923"/>
	<rect x="52.657" y="265.575" style="fill:#B3B3B3;" width="136.797" height="23.923"/>
	<polygon style="fill:#999999;" points="197.99,327.642 197.99,368.995 212.272,368.995 223.886,327.642 	"/>
	<polygon style="fill:#666666;" points="29.601,327.642 29.601,368.995 43.883,368.995 55.497,327.642 	"/>
	<polygon style="fill:#999999;" points="370.111,327.642 370.111,368.995 384.393,368.995 396.007,327.642 	"/>
	<rect x="58.662" y="67.511" style="fill:#638591;" width="80.667" height="33.333"/>
	<rect x="122.121" y="100.844" style="fill:#808080;" width="13.333" height="59.333"/>
	<rect x="75.87" y="100.844" style="fill:#666666;" width="46.251" height="59.333"/>
	<rect x="139.328" y="67.511" style="fill:#99B5C4;" width="22.126" height="33.333"/>
	<rect x="245.454" y="128.242" style="fill:#999999;" width="40.667" height="36.667"/>
	<rect x="228.787" y="128.242" style="fill:#808080;" width="20.333" height="36.667"/>
	<path style="fill:#CCCCCC;" d="M237.454,148.908h-12.333c-3.13,0-5.667-2.537-5.667-5.667v0c0-3.13,2.537-5.667,5.667-5.667h12.333
		c3.13,0,5.667,2.537,5.667,5.667v0C243.121,146.371,240.584,148.908,237.454,148.908z"/>
	<g>
		<rect x="239.954" y="164.908" style="fill:#99B5C4;" width="35.5" height="28.833"/>
		<rect x="239.954" y="164.908" style="fill:#638591;" width="15" height="28.833"/>
	</g>
	<rect x="251.704" y="193.742" style="fill:#99B5C4;" width="12" height="10"/>
	<polygon style="fill:#EF7954;" points="305.994,265.572 89.994,265.572 115.954,229.242 280.024,229.242 	"/>
	<polygon style="fill:#D3674A;" points="197.994,229.242 197.994,265.572 89.994,265.572 115.954,229.242 	"/>
	<path style="fill:#EF7954;" d="M241.379,232.742h-43.385v-7h43.385c6.75,0,12.242-5.492,12.242-12.242v-9.758h7v9.758
		C260.621,224.11,251.989,232.742,241.379,232.742z"/>
	<path style="fill:#999999;" d="M197.99,27.012v277.486h197.99V27.012H197.99z M380.98,289.498H212.99V67.511h167.99V289.498z"/>
	<path style="fill:#808080;" d="M0,27.012v277.486h197.99V27.012H0z M182.99,289.498H15V67.511h167.99V289.498z"/>
	<g>
		<polygon style="opacity:0.49;fill:#F2F2F2;" points="15.004,67.512 15.004,170.922 118.414,67.512 		"/>
		<polygon style="opacity:0.49;fill:#F2F2F2;" points="93.124,289.502 182.994,289.502 182.994,199.632 		"/>
		<polygon style="opacity:0.49;fill:#F2F2F2;" points="15.004,274.622 15.004,289.502 46.274,289.502 182.994,152.782 
			182.994,106.632 		"/>
	</g>
</g>
<g>
</g>
<g>
</g>
<g>
</g>
<g>
</g>
<g>
</g>
<g>
</g>
<g>
</g>
<g>
</g>
<g>
</g>
<g>
</g>
<g>
</g>
<g>
</g>
<g>
</g>
<g>
</g>
<g>
</g>
</svg>
