<svg height="464pt" viewBox="0 0 464 464" width="464pt" xmlns="http://www.w3.org/2000/svg"><path d="m296 72v-16h-56c-4.417969 0-8 3.582031-8 8v360c0 4.417969 3.582031 8 8 8h56v-16h-48v-176h48v-16h-48v-152zm0 0" fill="#4db7e5"/><g fill="#2d7dbf"><path d="m0 72h32v160h-32zm0 0"/><path d="m64 72h32v160h-32zm0 0"/><path d="m128 72h32v160h-32zm0 0"/></g><path d="m128 152v-32l-64 32v-32l-64 32v80h192v-112zm0 0" fill="#348fd9"/><path d="m32 184h112v80h-112zm0 0" fill="#ffb531"/><path d="m56 264h88v-80h-8zm0 0" fill="#ffa912"/><path d="m144 264h64v-40l-24-24h-40zm0 0" fill="#ffa912"/><path d="m192 264c0 8.835938-7.164062 16-16 16s-16-7.164062-16-16 7.164062-16 16-16 16 7.164062 16 16zm0 0" fill="#3d4d63"/><path d="m80 264c0 8.835938-7.164062 16-16 16s-16-7.164062-16-16 7.164062-16 16-16 16 7.164062 16 16zm0 0" fill="#3d4d63"/><path d="m112 264c0 8.835938-7.164062 16-16 16s-16-7.164062-16-16 7.164062-16 16-16 16 7.164062 16 16zm0 0" fill="#3d4d63"/><path d="m392 0-72 24v88h144v-88zm0 0" fill="#348fd9"/><path d="m336 112h128v-88l-30-10zm0 0" fill="#3086cd"/><path d="m352 48h80v64h-80zm0 0" fill="#ffb531"/><path d="m352 48h80v16h-80zm0 0" fill="#f7a116"/><path d="m392 168-72 24v88h144v-88zm0 0" fill="#348fd9"/><path d="m336 280h128v-88l-30-10zm0 0" fill="#3086cd"/><path d="m352 216h80v64h-80zm0 0" fill="#ffb531"/><path d="m352 216h80v16h-80zm0 0" fill="#f7a116"/><path d="m392 352-72 24v88h144v-88zm0 0" fill="#348fd9"/><path d="m336 464h128v-88l-30-10zm0 0" fill="#3086cd"/><path d="m352 400h80v64h-80zm0 0" fill="#ffb531"/><path d="m352 400h80v16h-80zm0 0" fill="#f7a116"/><path d="m144 200h16v64h-16zm0 0" fill="#f7a116"/></svg>