<svg id="Layer_5" enable-background="new 0 0 64 64" height="512" viewBox="0 0 64 64" width="512" xmlns="http://www.w3.org/2000/svg" xmlns:xlink="http://www.w3.org/1999/xlink"><linearGradient id="SVGID_1_" gradientUnits="userSpaceOnUse" x1="32" x2="32" y1="63" y2="1"><stop offset="0" stop-color="#9f2fff"/><stop offset="1" stop-color="#0bb1d3"/></linearGradient><path d="m50 15v-1c0-.551-.449-1-1-1h-2c-1.654 0-3-1.346-3-3v-3h3v-2h2v2c1.654 0 3 1.346 3 3h-2c0-.551-.449-1-1-1h-3v1c0 .551.449 1 1 1h2c1.654 0 3 1.346 3 3v3h-3v2h-2v-2c-1.654 0-3-1.346-3-3h2c0 .551.449 1 1 1zm9 14h4v34h-30v-34h4v-4h22zm-20 0h18v-2h-18zm4 22v10h10v-10zm18-20h-26v30h6v-10h-2v-2h18v2h-2v10h6zm-14 8h-10v-6h10zm-2-4h-6v2h6zm14 4h-10v-6h10zm-2-4h-6v2h6zm-10 12h-10v-6h10zm-2-4h-6v2h6zm14 4h-10v-6h10zm-2-4h-6v2h6zm-26 20h-30v-22h4v-4h22v4h4zm-24-22h18v-2h-18zm4 14v6h10v-6zm18-12h-26v18h6v-6h-2v-2h18v2h-2v6h6zm-14 8h-10v-6h10zm-2-4h-6v2h6zm14 4h-10v-6h10zm-2-4h-6v2h6zm-15.293-11.293-1.414-1.414 15.707-15.707 6 6 8.01-8.01c-.642-1.395-1.01-2.942-1.01-4.576 0-6.065 4.935-11 11-11s11 4.935 11 11-4.935 11-11 11c-3.692 0-6.957-1.834-8.953-4.633l-9.047 9.047-6-6zm29.293-23.707c0 4.962 4.038 9 9 9s9-4.038 9-9-4.038-9-9-9-9 4.038-9 9z" fill="url(#SVGID_1_)"/></svg>