<svg height="512" viewBox="0 0 58 58" width="512" xmlns="http://www.w3.org/2000/svg"><g id="025---Analysis" fill="none" transform="translate(-1)"><path id="Shape" d="m29.92 30.44c4.1997508-5.7506055 4.0936328-13.5846557-.260341-19.2193946-4.3539738-5.63473884-11.9078232-7.71391243-18.5319737-5.10086815-6.62415047 2.61304428-10.72420154 9.28935955-10.05871764 16.37910575s5.93632407 12.8864563 12.93103234 14.221157c.216.043-1.05.506 15.92-6.28z" fill="#f3d55b"/><path id="Shape" d="m52 44v5c0 .5522847-.4477153 1-1 1h-21l-4-10z" fill="#14a085"/><path id="Shape" d="m27 44h31c.5522847 0 1-.4477153 1-1v-33l-10-10h-21c-.5522847 0-1 .44771525-1 1z" fill="#81ccb8"/><path id="Shape" d="m49 0v9c0 .55228475.4477153 1 1 1h9z" fill="#26b99a"/><path id="Shape" d="m8.34 26-5.2 3c-3.61654143-6.2740305-2.57531033-14.1939458 2.54-19.32l4.25 4.25c-3.20212129 3.199059-3.85442508 8.1508243-1.59 12.07z" fill="#26b99a"/><path id="Shape" d="m17 4.9999899v6.0000101c-2.6526274-.0028508-5.1970097 1.0516103-7.07 2.93l-4.25-4.25c3.00234406-3.00103018 7.0749759-4.68476845 11.32-4.6800101z" fill="#f0c419"/><path id="Shape" d="m30.86 13-5.2 3c-1.7852246-3.0949899-5.0870478-5.0013544-8.66-5v-6.00000212c5.7179755-.00293406 11.0024428 3.04726353 13.86 8.00000212z" fill="#3b97d3"/><path id="Shape" d="m29.92 30.44c-.41-1.47-2.42-2.68-5.12-3.18 2.5813065-3.2168335 2.9228342-7.6884631.86-11.26l5.2-3c3.1653964 5.4871503 2.7968494 12.3248744-.94 17.44z" fill="#ff5364"/><path id="Shape" d="m17 28c-4.867 0-6.151-5-4-5 .5522847 0 1 .4477153 1 1 0 1.084 1.374 2 3 2s3-.916 3-2-1.374-2-3-2c-2.757 0-5-1.794-5-4s2.243-4 5-4c4.867 0 6.151 5 4 5-.5522847 0-1-.4477153-1-1 0-1.084-1.374-2-3-2s-3 .916-3 2 1.374 2 3 2c2.757 0 5 1.794 5 4s-2.243 4-5 4z" fill="#e57e25"/><path id="Shape" d="m17 28.88c-.5522847 0-1-.4477153-1-1v-13.88c0-.5522847.4477153-1 1-1s1 .4477153 1 1v13.88c0 .5522847-.4477153 1-1 1z" fill="#e57e25"/><path id="Shape" d="m44 9h-12c-.5522847 0-1-.44771525-1-1s.4477153-1 1-1h12c.5522847 0 1 .44771525 1 1s-.4477153 1-1 1z" fill="#fff"/><path id="Shape" d="m44 5h-12c-.5522847 0-1-.44771525-1-1s.4477153-1 1-1h12c.5522847 0 1 .44771525 1 1s-.4477153 1-1 1z" fill="#fff"/><path id="Shape" d="m44 13h-8c-.5522847 0-1-.4477153-1-1s.4477153-1 1-1h8c.5522847 0 1 .4477153 1 1s-.4477153 1-1 1z" fill="#fff"/><path id="Shape" d="m37 29c-.3879065-.0001454-.7407342-.2246105-.9052432-.5759056-.1645089-.3512952-.111017-.7660368.1372432-1.0640944l5-6c.1798513-.2157436.442143-.3459036.7227305-.358649.2805875-.0127453.5535995.0930993.7522695.291649l1.21 1.21 3.3-4.128c.1777517-.2220642.4416599-.3579236.7256726-.3735749.2840127-.0156512.5612513.090387.7623274.2915749l2.185 2.185 2.31-3.078c.3313708-.4418278.9581722-.5313708 1.4-.2s.5313708.9581722.2 1.4l-3 4c-.173952.2318622-.4399517.3768378-.7290848.3973668s-.5729481-.0854086-.7779152-.2903668l-2.21-2.21-3.3 4.128c-.1777517.2220642-.4416599.3579236-.7256726.3735749-.2840127.0156512-.5612513-.090387-.7623274-.2915749l-1.226-1.226-4.3 5.159c-.1901328.2282708-.4719175.3601857-.769.36z" fill="#e64c3c"/><g fill="#fff"><path id="Shape" d="m37 41h-2c-.5522847 0-1-.4477153-1-1s.4477153-1 1-1h2v-6h-2c-.5522847 0-1-.4477153-1-1s.4477153-1 1-1h2c1.1045695 0 2 .8954305 2 2v6c0 1.1045695-.8954305 2-2 2z"/><path id="Shape" d="m42 37h-4c-.5522847 0-1-.4477153-1-1s.4477153-1 1-1h4c.5522847 0 1 .4477153 1 1s-.4477153 1-1 1z"/><path id="Shape" d="m54 33h-9c-.5522847 0-1-.4477153-1-1s.4477153-1 1-1h9c.5522847 0 1 .4477153 1 1s-.4477153 1-1 1z"/><path id="Shape" d="m54 41h-9c-.5522847 0-1-.4477153-1-1s.4477153-1 1-1h9c.5522847 0 1 .4477153 1 1s-.4477153 1-1 1z"/><path id="Shape" d="m54 37h-9c-.5522847 0-1-.4477153-1-1s.4477153-1 1-1h9c.5522847 0 1 .4477153 1 1s-.4477153 1-1 1z"/></g><path id="Shape" d="m54 29h-17c-.5522847 0-1-.4477153-1-1v-12c0-.5522847.4477153-1 1-1s1 .4477153 1 1v11h16c.5522847 0 1 .4477153 1 1s-.4477153 1-1 1z" fill="#33907c"/><path id="Shape" d="m29.92 30.45v-.01c-.41-1.47-2.42-2.68-5.12-3.18-.9228258-.1763291-1.8604853-.2633975-2.8-.26-4.12 0-7.52 1.56-7.95 3.56-.071.357-.05-.549-.05 10.32-5.339-2.144-13-.18-13 3.12v10c0 2.21 3.58 4 8 4 4.34 0 7.87-1.73 7.99-3.88 5.075 2.037 13.01.326 13.01-3.12 0-21.774.037-20.128-.08-20.55z" fill="#f3d55b"/><path id="Shape" d="m17 44.12c0 4.755.015 4.9-.01 5-.12 2.15-3.65 3.88-7.99 3.88-4.42 0-8-1.79-8-4v-5c0 2.21 3.58 4 8 4 4.34 0 7.87-1.73 7.99-3.88z" fill="#f0c419"/><path id="Shape" d="m17 44c.0016438.0402597-.0017152.0805677-.01.12-.12 2.15-3.65 3.88-7.99 3.88-4.42 0-8-1.79-8-4 0-3.259 7.637-5.273 13-3.12 1.83.73 3 1.86 3 3.12z" fill="#f9eab0"/><path id="Shape" d="m30 46v5c0 2.21-3.58 4-8 4-1.7103237.0223875-3.4096824-.2761026-5.01-.88.025-.1.01-.352.01-5 1.1752071.4561025 2.4124263.7325384 3.67.82.1060833.0375198.2174991.0577773.33.06h1c4.42 0 8-1.79 8-4z" fill="#f0c419"/><path id="Shape" d="m30 36v5c0 1.13-.94 2.16-2.46 2.88-3.3571626 1.407207-7.1222648 1.4929398-10.54.24 0-1.615-1.5-2.641-3-3.24v-4.88c0 2.21 3.58 4 8 4s8-1.79 8-4z" fill="#f0c419"/><path id="Shape" d="m14.14 36.75c-.04-.01-.09-.02-.14-.03-4.56979651-.8730462-8.53374648-3.6908817-10.86-7.72l5.2-3c1.26206926 2.1840591 3.3008891 3.8122584 5.71 4.56-.068.34-.05-.068-.05 5.44.0009932.256403.0484257.5105055.14.75z" fill="#955ba5"/><path id="Shape" d="m30 31c0 2.21-3.58 4-8 4s-8-1.79-8-4c.0018256-.147975.0185771-.2953883.05-.44.43-2 3.83-3.56 7.95-3.56.9395147-.0033975 1.8771742.0836709 2.8.26 2.143.397 5.2 1.615 5.2 3.74z" fill="#f9eab0"/></g></svg>