<?xml version="1.0" encoding="iso-8859-1"?>
<!-- Generator: Adobe Illustrator 19.0.0, SVG Export Plug-In . SVG Version: 6.00 Build 0)  -->
<svg version="1.1" id="Capa_1" xmlns="http://www.w3.org/2000/svg" xmlns:xlink="http://www.w3.org/1999/xlink" x="0px" y="0px"
	 viewBox="0 0 468.292 468.292" style="enable-background:new 0 0 468.292 468.292;" xml:space="preserve">
<path style="fill:#64798A;" d="M223.054,118.031l-35.575,291.381l93.335-0.001l-35.574-291.38
	C243.462,105.14,224.831,105.14,223.054,118.031z"/>
<g>
	<ellipse style="fill:#3A556A;" cx="234.148" cy="124.835" rx="46.667" ry="46.667"/>
	<path style="fill:#3A556A;" d="M346.632,409.412H121.661c-10.345,0-18.732,8.386-18.732,18.732v21.417
		c0,10.345,8.386,18.732,18.732,18.732h224.971c10.345,0,18.732-8.386,18.732-18.732v-21.417
		C365.363,417.799,356.977,409.412,346.632,409.412z"/>
	<path style="fill:#3A556A;" d="M74.479,20.439c2.338-2.339,3.508-5.402,3.508-8.465c0-3.064-1.169-6.127-3.508-8.466
		c-4.678-4.677-12.258-4.677-16.932,0c-66.915,66.916-66.915,175.801,0,242.716c4.674,4.677,12.258,4.677,16.932,0
		c4.677-4.678,4.677-12.254,0-16.932C16.907,171.724,16.898,78.023,74.479,20.439z"/>
	<path style="fill:#3A556A;" d="M113.99,43.023c-4.674-4.678-12.258-4.678-16.932,0c-45.127,45.128-45.134,118.56,0,163.687
		c4.674,4.677,12.254,4.677,16.932,0c2.338-2.339,3.508-5.403,3.508-8.466c0-3.063-1.169-6.126-3.508-8.465
		c-35.785-35.788-35.785-94.035,0-129.824C118.666,55.277,118.666,47.7,113.99,43.023z"/>
	<path style="fill:#3A556A;" d="M157.008,90.995c0-3.064-1.169-6.128-3.508-8.466c-4.678-4.677-12.258-4.677-16.935,0
		c-23.332,23.355-23.335,61.326,0.003,84.665c4.674,4.678,12.258,4.678,16.932,0c4.677-4.678,4.677-12.254,0-16.931
		c-14.001-14-14.005-36.801,0.003-50.802C155.839,97.122,157.008,94.058,157.008,90.995z"/>
	<path style="fill:#3A556A;" d="M410.746,3.508c-4.674-4.677-12.254-4.677-16.932,0c-2.339,2.339-3.508,5.402-3.508,8.466
		c0,3.063,1.169,6.126,3.508,8.465c57.581,57.584,57.573,151.285,0,208.852c-4.677,4.678-4.677,12.254,0,16.932
		c4.673,4.677,12.258,4.677,16.931,0C477.661,179.309,477.661,70.424,410.746,3.508z"/>
	<path style="fill:#3A556A;" d="M371.235,43.023c-4.674-4.678-12.259-4.678-16.932,0c-4.677,4.677-4.677,12.254,0,16.931
		c35.785,35.788,35.785,94.035,0,129.824c-2.339,2.339-3.508,5.402-3.508,8.465c0,3.063,1.169,6.127,3.508,8.466
		c4.678,4.677,12.258,4.677,16.931,0C416.369,161.582,416.362,88.15,371.235,43.023z"/>
	<path style="fill:#3A556A;" d="M314.792,82.529c-2.339,2.338-3.508,5.402-3.508,8.466c0,3.063,1.169,6.126,3.504,8.465
		c14.007,14.001,14.004,36.802,0.003,50.802c-4.677,4.677-4.677,12.254,0,16.931c4.673,4.678,12.258,4.678,16.932,0
		c23.339-23.339,23.335-61.31,0.003-84.665C327.05,77.852,319.47,77.852,314.792,82.529z"/>
</g>
<g>
</g>
<g>
</g>
<g>
</g>
<g>
</g>
<g>
</g>
<g>
</g>
<g>
</g>
<g>
</g>
<g>
</g>
<g>
</g>
<g>
</g>
<g>
</g>
<g>
</g>
<g>
</g>
<g>
</g>
</svg>
