<svg id="filled_outline" height="512" viewBox="0 0 512 512" width="512" xmlns="http://www.w3.org/2000/svg" data-name="filled outline"><path d="m272 488h200a16 16 0 0 0 16-16v-2.70477a48 48 0 0 0 -6.84034-24.6958l-4.90992-8.18319a48 48 0 0 1 -3.40721-42.52256l1.387-3.46761a55.52928 55.52928 0 0 0 3.21611-29.752l-2.284-13.70416a48 48 0 0 0 -18.54691-30.50885l-48.61473-36.46106h-64l-50.62561 33.75041a48 48 0 0 0 -21.37439 39.93841z" fill="#4fbfcb"/><path d="m409.37259 280a16 16 0 0 0 11.3137-4.68629l22.62742-22.6274a16 16 0 0 0 4.68629-11.31371v-25.3726a16 16 0 0 0 -16-16h-17.37258a16 16 0 0 0 -11.3137 4.68629l-6.62744 6.62742a16 16 0 0 1 -11.3137 4.68629h-49.37258v48a16 16 0 0 0 16 16z" fill="#3b9298"/><path d="m48 408v-176a8 8 0 0 1 8-8h104v184z" fill="#eebf3e"/><path d="m160 408v-184h104a8 8 0 0 1 8 8v176z" fill="#c69324"/><path d="m80 224v-56a8 8 0 0 1 8-8h72v64z" fill="#eebf3e"/><path d="m240 224v-56a8 8 0 0 0 -8-8h-72v64z" fill="#c69324"/><g fill="#eebf3e"><path d="m112 96h96a8 8 0 0 1 8 8v56a0 0 0 0 1 0 0h-112a0 0 0 0 1 0 0v-56a8 8 0 0 1 8-8z"/><path d="m192 96-16-24v-16a8 8 0 0 0 -8-8h-16a8 8 0 0 0 -8 8v16l-16 24z"/><path d="m216 496v-112a16 16 0 0 0 -16-16h-80a16 16 0 0 0 -16 16v112z"/></g><path d="m216 496h80v-72a16 16 0 0 0 -16-16h-64z" fill="#c69324"/><path d="m104 408h-64a16 16 0 0 0 -16 16v64a8 8 0 0 0 8 8h72z" fill="#c69324"/><path d="m392 280h-49.37258a16 16 0 0 1 -11.31371-4.68629l-22.62742-22.62743a16 16 0 0 1 -4.68629-11.3137v-17.37258a16 16 0 0 1 16-16h1.37258a16 16 0 0 1 11.31371 4.68629l30.62742 30.62742a16 16 0 0 0 11.31371 4.68629h1.37258a24 24 0 0 1 24 24 8 8 0 0 1 -8 8z" fill="#4fbfcb"/><path d="m80 256h16v16h-16z"/><path d="m112 256h16v16h-16z"/><path d="m80 288h16v16h-16z"/><path d="m112 288h16v16h-16z"/><path d="m112 320h16v16h-16z"/><path d="m192 256h16v16h-16z"/><path d="m224 256h16v16h-16z"/><path d="m224 288h16v16h-16z"/><path d="m192 288h16v16h-16z"/><path d="m192 320h16v16h-16z"/><path d="m80 320h16v16h-16z"/><path d="m224 320h16v16h-16z"/><path d="m112 184h16v16h-16z"/><path d="m192 184h16v16h-16z"/><path d="m128 120h16v16h-16z"/><path d="m176 120h16v16h-16z"/><path d="m136 400h16v16h-16z"/><path d="m168 400h16v16h-16z"/><path d="m136 432h16v16h-16z"/><path d="m168 432h16v16h-16z"/><path d="m56 440h16v16h-16z"/><path d="m248 440h16v16h-16z"/><path d="m488.01562 440.48438-4.90624-8.1836a40.23331 40.23331 0 0 1 -2.83594-35.44531l1.38281-3.45313a63.48065 63.48065 0 0 0 3.67969-34.03906l-2.28125-13.71094a55.74972 55.74972 0 0 0 -21.64063-35.58984l-36.84619-27.6333c.59131-.48926 1.22656-.91065 1.77588-1.46045l22.625-22.625a23.8549 23.8549 0 0 0 7.03125-16.97266v-25.37109a24.02624 24.02624 0 0 0 -24-24h-17.375a23.836 23.836 0 0 0 -16.96875 7.03125l-6.625 6.625a8.07143 8.07143 0 0 1 -5.65625 2.34375h-46.0625l-.96875-.96875a23.836 23.836 0 0 0 -16.96875-7.03125h-1.375a24.02624 24.02624 0 0 0 -24 24v17.37109a23.85415 23.85415 0 0 0 7.03125 16.97266l22.625 22.625c.3418.34229.74707.59033 1.10547.90918l-37.82422 25.21582a56.0012 56.0012 0 0 0 -8.9375 7.52295v-82.6167a16.01833 16.01833 0 0 0 -16-16h-16v-48a16.01833 16.01833 0 0 0 -16-16h-8v-48a16.01833 16.01833 0 0 0 -16-16h-11.72021l-12.27979-18.42188v-13.57812a16.01833 16.01833 0 0 0 -16-16v-24h-16v24a16.01833 16.01833 0 0 0 -16 16v13.57812l-12.27979 18.42188h-11.72021a16.01833 16.01833 0 0 0 -16 16v48h-8a16.01833 16.01833 0 0 0 -16 16v48h-16a16.01833 16.01833 0 0 0 -16 16v168a24.02624 24.02624 0 0 0 -24 24v72h16v-72a8.00791 8.00791 0 0 1 8-8h56v80h16v-112a8.00791 8.00791 0 0 1 8-8h80a8.00791 8.00791 0 0 1 8 8v112h16v-80h56a8.00791 8.00791 0 0 1 8 8v72h184a24.02624 24.02624 0 0 0 24-24v-2.70312a55.97551 55.97551 0 0 0 -7.98438-28.8125zm-173.67187-193.45313a7.9706 7.9706 0 0 1 -2.34375-5.66016v-17.37109a8.00791 8.00791 0 0 1 8-8h1.375a8.07143 8.07143 0 0 1 5.65625 2.34375l30.625 30.625a23.836 23.836 0 0 0 16.96875 7.03125h25.375v-16h-25.375a8.07143 8.07143 0 0 1 -5.65625-2.34375l-13.65625-13.65625h30.0625a23.836 23.836 0 0 0 16.96875-7.03125l6.625-6.625a8.07143 8.07143 0 0 1 5.65625-2.34375h17.375a8.00791 8.00791 0 0 1 8 8v25.37109a7.9706 7.9706 0 0 1 -2.34375 5.66016l-22.625 22.625a8.07143 8.07143 0 0 1 -5.65625 2.34375h-66.75a8.07143 8.07143 0 0 1 -5.65625-2.34375zm-82.34375-79.03125v48h-64v-48zm-80-93.57812v-18.42188h16v18.42188l9.05469 13.57812h-34.10938zm-40 29.57812h96v48h-96zm-24 64h64v48h-64zm8 216v16h-40v-168h96v128h-32a24.02624 24.02624 0 0 0 -24 24zm104-24h-32v-128h96v168h-40v-16a24.02624 24.02624 0 0 0 -24-24zm280 112a8.00791 8.00791 0 0 1 -8 8h-168v-56a24.02624 24.02624 0 0 0 -24-24v-46.3125a39.9173 39.9173 0 0 1 17.8125-33.28125l48.60938-32.40625h58.917l46.48144 34.85938a39.84774 39.84774 0 0 1 15.45313 25.42187l2.28125 13.71094a47.52856 47.52856 0 0 1 -2.75781 25.47265l-1.38282 3.457a56.29013 56.29013 0 0 0 3.97656 49.60937l4.90626 8.18359a39.9838 39.9838 0 0 1 5.70311 20.58208z"/><path d="m384 376h-16a8 8 0 0 1 0-16h32v-16h-16v-16h-16v16a24 24 0 0 0 0 48h16a8 8 0 0 1 0 16h-32v16h16v16h16v-16a24 24 0 0 0 0-48z"/><path d="m312 376h16v16h-16z"/><path d="m424 376h16v16h-16z"/></svg>