<svg xmlns="http://www.w3.org/2000/svg" width="32" height="32" viewBox="0 0 32 32"><g transform="translate(0 -1020.362)"><path style="isolation:auto;mix-blend-mode:normal" fill="#4bbfeb" d="M7.5 1039.3622c-3.055335 0-5.499996 2.4447-5.5 5.5.0000014 1.0552.2970967 2.0332.8046875 2.8672 1.438989-.7766 2.8154921-1.4661 2.9941406-1.5547-.3886208-.408-.7265625-.9151-.7265625-1.5449l0-1.8633c0-1.3217 1.0773277-2.4023 2.3984375-2.4023 1.321086 0 2.4003907 1.0786 2.4003907 2.4003l0 1.8633c-1e-7.6176-.3338404 1.1103-.7109376 1.5157.056409.03.049484.024.1425782.07.1877221.092.4490504.2203.7734376.3828.525212.2629 1.309567.6813 2.123047 1.125.504802-.8324.80078-1.8074.800781-2.8594-.000004-3.0553-2.444665-5.5-5.5-5.5zM24.5 1039.3622c-3.055335 0-5.499996 2.4447-5.5 5.5.000001 1.0552.297097 2.0332.804688 2.8672 1.438989-.7766 2.815492-1.4661 2.99414-1.5547-.388621-.408-.726562-.9151-.726562-1.5449l0-1.8633c0-1.3217 1.077327-2.4023 2.398437-2.4023 1.321086 0 2.400391 1.0786 2.400391 2.4003l0 1.8633c0 .6176-.333841 1.1103-.710938 1.5157.05641.03.04949.024.142578.07.187722.092.449051.2203.773438.3828.525517.2631 1.309437.681 2.123047 1.125.504802-.8324.80078-1.8074.800781-2.8594-.000004-3.0553-2.444664-5.5-5.5-5.5zM16 1022.3622c-3.055335 0-5.499996 2.4447-5.5 5.5.000001 1.0552.297097 2.0332.804688 2.8672 1.438989-.7766 2.815492-1.4661 2.99414-1.5547-.388621-.408-.726562-.9151-.726562-1.5449l0-1.8633c0-1.3217 1.077327-2.4023 2.398437-2.4023 1.321086 0 2.400391 1.0786 2.400391 2.4003l0 1.8633c0 .6176-.333841 1.1103-.710938 1.5157.05641.03.04949.024.142578.07.187722.092.449051.2203.773438.3828.525212.2629 1.309567.6813 2.123047 1.125.504802-.8324.80078-1.8074.800781-2.8594-.000004-3.0553-2.444665-5.5-5.5-5.5z" color="#000" overflow="visible"/><path style="isolation:auto;mix-blend-mode:normal" fill="gray" d="m 7.6171875,1029.2431 c -1.6888406,1.9877 -2.6164178,4.5108 -2.6171875,7.1191 0.00245,0.1244 0.007,0.2488 0.013672,0.373 0.7871749,-0.2423 1.6221366,-0.373 2.486328,-0.373 2.245995,0 4.289121,0.8876 5.8125,2.3223 l 1.167969,-1.0078 0,-1.459 c -3.50851,-0.6407 -6.2800869,-3.4481 -6.8632815,-6.9746 z m 16.7617185,0.012 c -0.589962,3.5334 -3.37583,6.3425 -6.898437,6.9687 l 0,1.4532 1.189453,1.0234 c 1.525124,-1.4442 3.575685,-2.3379 5.830078,-2.3379 0.862218,0 1.694873,0.1317 2.480469,0.373 0.0086,-0.1242 0.01513,-0.2485 0.01953,-0.373 -0.0046,-2.6047 -0.933449,-5.1233 -2.621094,-7.1074 z" color="#000" overflow="visible"/><path d="m 7.4707031,1040.3633 c -1.3211098,0 -2.3984375,1.0806 -2.3984375,2.4023 l 0,1.8633 c 0,0.6298 0.3379417,1.1369 0.7265625,1.5449 -0.1915119,0.095 -1.7335093,0.8612 -3.2832031,1.7071 -0.5539102,0.2804 -0.9082031,0.7773 -0.9082031,0.7773 a 0.50011921,0.50011921 0 1 0 0.7871093,0.6172 c 0,0 0.3397157,-0.3864 0.5742188,-0.5039 a 0.50005,0.50005 0 0 0 0.015625,-0.01 c 1.6225254,-0.8863 3.4570312,-1.7969 3.4570312,-1.7969 l 0.2617188,-0.1289 c 0.2048879,0.08 0.4140706,0.1821 0.7636719,0.1933 a 0.50005,0.50005 0 0 0 0.052734,-0 c 0.3879259,-0.029 0.5800134,-0.1304 0.7734376,-0.2031 l 0.2246093,0.1113 -0.056641,-0.033 c 0.1378336,0.092 0.2102711,0.1154 0.4003906,0.209 0.1901195,0.094 0.4477884,0.2188 0.7675781,0.3789 0.6348008,0.3179 1.5158028,0.773 2.5624998,1.3574 0.189062,0.122 0.330078,0.459 0.330078,0.459 a 0.50005,0.50005 0 1 0 0.957032,-0.2891 c 0,0 -0.158222,-0.6453 -0.759766,-1.0215 a 0.50005,0.50005 0 0 0 -0.01953,-0.012 c -1.073584,-0.6 -1.974273,-1.0638 -2.623047,-1.3886 -0.3243871,-0.1625 -0.5857155,-0.2904 -0.7734376,-0.3829 -0.093094,-0.046 -0.086169,-0.04 -0.1425782,-0.07 0.3770971,-0.4054 0.7109376,-0.898 0.7109376,-1.5156 l 0,-1.8633 c 0,-1.3217 -1.0793047,-2.4023 -2.4003907,-2.4023 z m 0,1 c 0.78354,0 1.4003907,0.6166 1.4003907,1.4023 l 0,1.8633 c 0,0.3555 -0.1898034,0.7087 -0.4824219,0.9785 -0.2862971,0.264 -0.6621258,0.4057 -0.8984375,0.4121 -0.00603,7e-4 -0.00943,0.01 -0.015625,0.01 -0.012189,-7e-4 -0.023348,-0.01 -0.035156,-0.01 -0.2368415,-0.01 -0.6020382,-0.1475 -0.8847656,-0.4082 -0.2926229,-0.2698 -0.4824219,-0.623 -0.4824219,-0.9785 l 0,-1.8633 c 0,-0.7857 0.6148574,-1.4023 1.3984375,-1.4023 z" color="#000" font-family="sans-serif" font-weight="400" overflow="visible" white-space="normal" style="line-height:normal;text-indent:0;text-align:start;text-decoration-line:none;text-decoration-style:solid;text-decoration-color:#000;text-transform:none;block-progression:tb;isolation:auto;mix-blend-mode:normal"/><path d="M7.5 1037.3613c-4.1362145 0-7.4999949183713 3.3638-7.5 7.5.0000050816287 4.1362 3.3637855 7.5 7.5 7.5 4.136214 0 7.499995-3.3638 7.5-7.5-.000005-4.1362-3.363786-7.5-7.5-7.5zm0 1c3.595775 0 6.499996 2.9043 6.5 6.5-.000004 3.5958-2.904225 6.5-6.5 6.5-3.5957748 0-6.4999956-2.9042-6.5-6.5.0000044-3.5957 2.9042252-6.5 6.5-6.5zM15.970703 1023.3633c-1.32111 0-2.398437 1.0806-2.398437 2.4023l0 1.8633c0 .6298.337941 1.1369.726562 1.5449-.191512.095-1.733509.8612-3.283203 1.7071-.55391.2804-.908203.7773-.908203.7773a.50011909.50011909 0 1 0 .787109.6172c0 0 .339716-.3864.574219-.5039a.50005.50005 0 0 0 .01563-.01c1.622525-.8863 3.457031-1.7969 3.457031-1.7969l.261719-.1289c.204888.08.414071.1821.763672.1933a.50005.50005 0 0 0 .05273 0c.387926-.029.580014-.1304.773438-.2031l.224609.1113-.05664-.033c.137833.092.210271.1154.40039.209.19012.094.447789.2188.767578.3789.634801.3179 1.515803.773 2.5625 1.3574.189062.122.330078.459.330078.459a.50005.50005 0 1 0 .957032-.2891c0 0-.158222-.6453-.759766-1.0215a.50005.50005 0 0 0-.01953-.012c-1.073584-.6-1.974273-1.0638-2.623047-1.3886-.324387-.1625-.585716-.2904-.773438-.3829-.09309-.046-.08617-.04-.142578-.07.377097-.4054.710938-.898.710938-1.5156l0-1.8633c0-1.3217-1.079305-2.4023-2.400391-2.4023zm0 1c.78354 0 1.400391.6166 1.400391 1.4023l0 1.8633c0 .3555-.189804.7087-.482422.9785-.286297.264-.662126.4057-.898438.4121-.006.0007-.0094.01-.01563.01-.01219-.0007-.02335-.01-.03516-.01-.236841-.01-.602038-.1475-.884765-.4082-.292623-.2698-.482422-.623-.482422-.9785l0-1.8633c0-.7857.614857-1.4023 1.398437-1.4023z" color="#000" font-family="sans-serif" font-weight="400" overflow="visible" white-space="normal" style="line-height:normal;text-indent:0;text-align:start;text-decoration-line:none;text-decoration-style:solid;text-decoration-color:#000;text-transform:none;block-progression:tb;isolation:auto;mix-blend-mode:normal"/><path d="M16 1020.3613c-4.136214 0-7.4999949 3.3638-7.5 7.5.0000051 4.1362 3.363786 7.5 7.5 7.5 4.136215 0 7.499995-3.3638 7.5-7.5-.000005-4.1362-3.363785-7.5-7.5-7.5zm0 1c3.595775 0 6.499996 2.9043 6.5 6.5-.000004 3.5958-2.904225 6.5-6.5 6.5-3.595775 0-6.4999956-2.9042-6.5-6.5.0000044-3.5957 2.904225-6.5 6.5-6.5zM24.470703 1040.3633c-1.32111 0-2.398437 1.0806-2.398437 2.4023l0 1.8633c0 .6298.337941 1.1369.726562 1.5449-.191512.095-1.733509.8612-3.283203 1.7071-.55391.2804-.908203.7773-.908203.7773a.50011909.50011909 0 1 0 .787109.6172c0 0 .339716-.3864.574219-.5039a.50005.50005 0 0 0 .01563-.01c1.622525-.8863 3.457031-1.7969 3.457031-1.7969l.261719-.1289c.204888.08.414071.1821.763672.1933a.50005.50005 0 0 0 .05273 0c.387926-.029.580014-.1304.773438-.2031l.224609.1113-.05664-.033c.137833.092.210271.1154.40039.209.19012.094.447789.2188.767578.3789.634801.3179 1.515803.773 2.5625 1.3574.189062.122.330078.459.330078.459a.50005.50005 0 1 0 .957032-.2891c0 0-.158222-.6453-.759766-1.0215a.50005.50005 0 0 0-.02148-.012c-1.073584-.6-1.97232-1.0638-2.621094-1.3886-.324387-.1625-.585716-.2904-.773438-.3829-.09309-.046-.08617-.04-.142578-.07.377097-.4054.710938-.898.710938-1.5156l0-1.8633c0-1.3217-1.079305-2.4023-2.400391-2.4023zm0 1c.78354 0 1.400391.6166 1.400391 1.4023l0 1.8633c0 .3555-.189804.7087-.482422.9785-.286297.264-.662126.4057-.898438.4121-.006.0007-.0094.01-.01563.01-.01219-.0007-.02335-.01-.03516-.01-.236841-.01-.602038-.1475-.884765-.4082-.292623-.2698-.482422-.623-.482422-.9785l0-1.8633c0-.7857.614857-1.4023 1.398437-1.4023z" color="#000" font-family="sans-serif" font-weight="400" overflow="visible" white-space="normal" style="line-height:normal;text-indent:0;text-align:start;text-decoration-line:none;text-decoration-style:solid;text-decoration-color:#000;text-transform:none;block-progression:tb;isolation:auto;mix-blend-mode:normal"/><path d="m 24.5,1037.3613 c -4.136214,0 -7.499995,3.3638 -7.5,7.5 5e-6,4.1362 3.363786,7.5 7.5,7.5 4.136215,0 7.499995,-3.3638 7.5,-7.5 -5e-6,-4.1362 -3.363785,-7.5 -7.5,-7.5 z m 0,1 c 3.595775,0 6.499996,2.9043 6.5,6.5 -4e-6,3.5958 -2.904225,6.5 -6.5,6.5 -3.595775,0 -6.499996,-2.9042 -6.5,-6.5 4e-6,-3.5957 2.904225,-6.5 6.5,-6.5 z" color="#000" font-family="sans-serif" font-weight="400" overflow="visible" white-space="normal" style="line-height:normal;text-indent:0;text-align:start;text-decoration-line:none;text-decoration-style:solid;text-decoration-color:#000;text-transform:none;block-progression:tb;isolation:auto;mix-blend-mode:normal"/><path style="line-height:normal;text-indent:0;text-align:start;text-decoration-line:none;text-decoration-style:solid;text-decoration-color:#000;text-transform:none;block-progression:tb;isolation:auto;mix-blend-mode:normal" fill-rule="evenodd" d="m 15.480469,1034.4629 0,4.1289 3.21289,2.7695 0.1875,0 0,-1 0.185547,0 -2.585937,-2.2285 0,-3.6699 -1,0 z" color="#000" font-family="sans-serif" font-weight="400" overflow="visible" white-space="normal"/><path style="line-height:normal;text-indent:0;text-align:start;text-decoration-line:none;text-decoration-style:solid;text-decoration-color:#000;text-transform:none;block-progression:tb;isolation:auto;mix-blend-mode:normal" fill-rule="evenodd" d="m 13.080078,1040.3613 0.326172,0.8789 3.074219,-2.6484 0,-4.1289 -1,0 0,3.6699" color="#000" font-family="sans-serif" font-weight="400" overflow="visible" white-space="normal"/></g></svg>