<svg id="Layer_3" enable-background="new 0 0 64 64" height="512" viewBox="0 0 64 64" width="512" xmlns="http://www.w3.org/2000/svg" xmlns:x="http://ns.adobe.com/Extensibility/1.0/" xmlns:i="http://ns.adobe.com/AdobeIllustrator/10.0/" xmlns:graph="http://ns.adobe.com/Graphs/1.0/"><g><path d="m10 47h-6c-1.105 0-2-.895-2-2v-7.096c0-2.294 1.561-4.294 3.787-4.851l8.213-2.053 10-13h13v14h25v13c0 1.105-.895 2-2 2h-6z" fill="#2b74ca"/><path d="m19.5 40c12.419 0 23.493-3.122 30.734-8h-13.234v-14h-13l-10 13-8.213 2.053c-2.184.546-3.72 2.485-3.777 4.725 5.274 1.42 11.209 2.222 17.49 2.222z" fill="#3d98f7"/><path d="m33 32h-14l7-10h7z" fill="#ebf7fe"/><path d="m62 32v-22h-25l-4 5v3h4v14z" fill="#4d5d7a"/><circle cx="50" cy="21" fill="#f5b953" r="8"/><circle cx="17" cy="47" fill="#4d5d7a" r="7"/><circle cx="47" cy="47" fill="#4d5d7a" r="7"/><circle cx="17" cy="47" fill="#8892a0" r="3"/><circle cx="47" cy="47" fill="#8892a0" r="3"/><path d="m2 43h4v-6h-4" fill="#f9d18b"/><path d="m62 36h-4v4l3 3h1" fill="#c66b60"/><path d="m30 35h4v2h-4z" fill="#ebf7fe"/><path d="m51 16h-2v2h-1c-.404 0-.769.243-.924.617s-.069.804.217 1.09l2.293 2.293h-2.586v2h2v2h2v-2h1c.404 0 .769-.243.924-.617s.069-.804-.217-1.09l-2.293-2.293h2.586v-2h-2z" fill="#fff"/><path d="m50 12c-4.962 0-9 4.037-9 9s4.038 9 9 9 9-4.037 9-9-4.038-9-9-9zm0 16c-3.86 0-7-3.141-7-7s3.14-7 7-7 7 3.141 7 7-3.14 7-7 7z" fill="#f9d18b"/></g></svg>