<svg xmlns="http://www.w3.org/2000/svg" viewBox="0 0 32 32"><path fill="#66abd4" d="M2.002 22.657A15.502 15.502 0 0 1 .5 16C.5 7.497 7.497.5 16 .5S31.5 7.497 31.5 16c0 2.298-.511 4.567-1.496 6.643"/><path fill="#ffda87" d="M3.499 19.575v2.239a2.5 2.5 0 1 0 5 0v-2.239h-5z"/><path fill="#ffda87" d="M11.494 28.418c0-.717-.396-1.35-.999-1.705l.028-.014a1.977 1.977 0 0 0-.321-.154L7.5 25.532v-1.73l-.006.004v-.002c-.418.316-.933.51-1.497.51a2.472 2.472 0 0 1-1.497-.51v.002l-.006-.004v1.73l-2.702 1.013c-.113.042-.22.094-.321.154l.028.014c-.603.355-.999.988-.999 1.705v3.114h10.994v-3.114z"/><path fill="#66abd4" d="M10.495 26.731l.028-.014a1.977 1.977 0 0 0-.321-.154l-1.196-.449a3.891 3.891 0 0 1-3.007 1.435 3.891 3.891 0 0 1-3.008-1.436l-1.199.45c-.113.042-.22.094-.321.154l.028.014c-.603.355-.999.988-.999 1.704V31.5h10.994v-3.065c0-.716-.396-1.349-.999-1.704z"/><path fill="#5b5d70" d="M8.097 17.017l-2.85-.475a1.184 1.184 0 0 0-1.379 1.168v.032a.978.978 0 0 0-.956 1.182l.451 1.648.816-1.017h3.626l.819 1.017.464-2.147a1.21 1.21 0 0 0-.991-1.408z"/><path fill="#ffda87" d="M23.502 19.575v2.239a2.5 2.5 0 1 0 5 0v-2.239h-5z"/><path fill="#ffda87" d="M31.497 28.418c0-.717-.396-1.35-.999-1.705l.028-.014a1.977 1.977 0 0 0-.321-.154l-2.702-1.013v-1.73l-.006.004v-.002c-.418.316-.933.51-1.497.51a2.472 2.472 0 0 1-1.497-.51v.002l-.006-.004v1.73l-2.702 1.013c-.113.042-.22.094-.321.154l.028.014c-.603.355-.999.988-.999 1.705v3.114h10.994v-3.114z"/><path fill="#a4d06c" d="M30.498 26.731l.028-.014a1.977 1.977 0 0 0-.321-.154l-1.196-.449a3.891 3.891 0 0 1-3.007 1.435 3.891 3.891 0 0 1-3.008-1.436l-1.199.45c-.113.042-.22.094-.321.154l.028.014c-.603.355-.999.988-.999 1.705V31.5h10.994v-3.065c0-.716-.396-1.349-.999-1.704z"/><path fill="#5b5d70" d="M28.1 17.017l-2.85-.475a1.184 1.184 0 0 0-1.379 1.168v.032a.978.978 0 0 0-.956 1.182l.451 1.648.816-1.017h3.626l.819 1.017.464-2.147a1.21 1.21 0 0 0-.991-1.408zM21.122 23.896a29.333 29.333 0 0 1-.37-4.642v-1.657a4.715 4.715 0 1 0-9.432 0v1.657c0 1.555-.124 3.107-.37 4.642a1.179 1.179 0 0 0 1.164 1.366h7.844c.726 0 1.28-.65 1.164-1.366z"/><path fill="#ffda87" d="M22.5 31.2l.036-2.566c0-.814-.42-1.571-1.112-2.002l-3.622-2.255v-1.774h-3.537v1.774l-3.619 2.255a2.358 2.358 0 0 0-1.111 2.001L9.5 31.2"/><path fill="#ffda87" d="M14.393 16.875a2.563 2.563 0 0 0-1.664 2.4v.63a3.256 3.256 0 0 0 6.512 0V18.43"/><path fill="#f89d6a" d="M16 26.484a3.54 3.54 0 0 1-2.82-1.402h-.011l-2.558 1.594A2.358 2.358 0 0 0 9.5 28.677V31.5h13v-2.822c0-.814-.42-1.571-1.112-2.002l-2.56-1.594h-.008A3.54 3.54 0 0 1 16 26.484z"/><path fill="#4f5266" d="M5.999 24.802c-1.654 0-3-1.346-3-3v-1.39h1v1.39c0 1.103.897 2 2 2s2-.897 2-2v-1.39h1v1.39c0 1.654-1.346 3-3 3z"/><path fill="#4f5266" d="M8.5 21.06a.499.499 0 0 1-.413-.218l-.546-.799H4.446l-.531.794a.497.497 0 1 1-.886-.109l-.588-1.648c-.112-.503-.004-.954.278-1.303.185-.228.428-.393.7-.479a1.68 1.68 0 0 1 1.91-1.263l2.85.475c.455.076.851.326 1.116.703s.366.835.284 1.288l-.597 2.189a.501.501 0 0 1-.482.37zm-3.448-4.047a.687.687 0 0 0-.684.684c0 .276-.224.532-.5.532a.477.477 0 0 0-.468.578l.234.65.129-.192a.499.499 0 0 1 .416-.223h3.626c.165 0 .32.081.413.218l.085.124.302-1.104a.693.693 0 0 0-.127-.492.702.702 0 0 0-.463-.292l-2.85-.475c-.038-.004-.075-.008-.113-.008zM2.977 32a.5.5 0 0 1-.5-.5v-1.101c0-.31-.115-.606-.324-.835l-.362-.396a.499.499 0 1 1 .738-.674l.362.396c.377.413.585.949.585 1.509V31.5a.499.499 0 0 1-.499.5zM22.5 32a.5.5 0 0 1-.5-.5v-2.865c0-.646-.328-1.235-.876-1.577l-3.621-2.255a.5.5 0 0 1 .528-.849l3.621 2.255A2.84 2.84 0 0 1 23 28.635V31.5a.5.5 0 0 1-.5.5zM9.5 32a.5.5 0 0 1-.5-.5v-2.866c0-.993.503-1.899 1.346-2.426l3.619-2.255a.501.501 0 0 1 .529.849l-3.619 2.255A1.846 1.846 0 0 0 10 28.634V31.5a.5.5 0 0 1-.5.5z"/><path fill="#4f5266" d="M13.729 22.604h1v1.774h-1zM17.267 22.604h1v1.774h-1zM12.168 32a.5.5 0 0 1-.5-.5v-1.754c0-.352-.13-.688-.368-.948a.5.5 0 1 1 .74-.674c.405.445.628 1.021.628 1.622V31.5a.5.5 0 0 1-.5.5zM19.832 32a.5.5 0 0 1-.5-.5v-1.754c0-.602.224-1.178.629-1.622a.496.496 0 0 1 .706-.032.499.499 0 0 1 .032.706c-.237.26-.368.597-.368.948V31.5a.499.499 0 0 1-.499.5z"/><path fill="#4f5266" d="M15.993 23.537a3.767 3.767 0 0 1-3.763-3.764v-.755a.5.5 0 0 1 1 0v.755c0 1.523 1.24 2.764 2.763 2.764s2.763-1.24 2.763-2.764v-1.479a.5.5 0 0 1 1 0v1.479a3.767 3.767 0 0 1-3.763 3.764z"/><path fill="#4f5266" d="M12.729 19.643a.5.5 0 0 1-.5-.5c0-1.273.801-2.428 1.992-2.874a.5.5 0 0 1 .351.938 2.076 2.076 0 0 0-1.343 1.937.5.5 0 0 1-.5.499zM16 26.94a4.06 4.06 0 0 1-3.219-1.601.5.5 0 1 1 .798-.603A3.052 3.052 0 0 0 16 25.94c.945 0 1.851-.45 2.422-1.204a.5.5 0 1 1 .797.603A4.057 4.057 0 0 1 16 26.94z"/><path fill="#4f5266" d="M20.752 21.003a.5.5 0 0 1-.5-.5c0-.993-.723-1.801-1.612-1.801l-.227-.007h-.001c-1.557 0-3.059-.529-4.325-1.53a.5.5 0 0 1 .62-.785c1.088.86 2.375 1.315 3.722 1.315l.227.007c1.424 0 2.596 1.257 2.596 2.801a.5.5 0 0 1-.5.5z"/><path fill="#4f5266" d="M12.758 25.762h-.644a1.677 1.677 0 0 1-1.658-1.945c.241-1.506.364-3.041.364-4.563v-1.657a5.222 5.222 0 0 1 5.216-5.216 5.222 5.222 0 0 1 5.216 5.216.5.5 0 0 1-1 0c0-2.324-1.892-4.216-4.216-4.216s-4.216 1.892-4.216 4.216v1.657c0 1.574-.126 3.163-.376 4.721a.68.68 0 0 0 .67.787h.644a.5.5 0 0 1 0 1z"/><path fill="#4f5266" d="M19.958 25.762h-.716a.5.5 0 0 1 0-1h.716a.682.682 0 0 0 .671-.787 29.839 29.839 0 0 1-.376-4.721v-1.655a.5.5 0 0 1 1 0v1.655c0 1.524.123 3.06.364 4.563a1.679 1.679 0 0 1-1.659 1.945zM.5 32a.5.5 0 0 1-.5-.5v-3.095c0-1.036.652-1.978 1.622-2.341L4 25.172v-1.381a.499.499 0 0 1 .801-.398 1.983 1.983 0 0 0 2.396-.002.5.5 0 0 1 .803.398v1.383l2.378.893c.141.052.275.117.402.193a.5.5 0 1 1-.514.858 1.419 1.419 0 0 0-.239-.114l-2.704-1.015A.501.501 0 0 1 7 25.519v-.893a2.979 2.979 0 0 1-2 .001v.892a.5.5 0 0 1-.324.468L1.974 27A1.508 1.508 0 0 0 1 28.405V31.5a.5.5 0 0 1-.5.5z"/><path fill="#4f5266" d="M6 28.019a4.005 4.005 0 0 1-3.276-1.704.5.5 0 1 1 .82-.574 3 3 0 0 0 4.911.003.501.501 0 0 1 .819.574A4.006 4.006 0 0 1 6 28.019zM25.999 24.802c-1.654 0-3-1.346-3-3v-1.39h1v1.39c0 1.103.897 2 2 2s2-.897 2-2v-1.39h1v1.39c0 1.654-1.346 3-3 3z"/><path fill="#4f5266" d="M28.5 21.06a.499.499 0 0 1-.413-.218l-.546-.799h-3.095l-.531.794a.497.497 0 1 1-.886-.109l-.588-1.647c-.112-.503-.004-.954.278-1.303.185-.228.428-.393.7-.479a1.679 1.679 0 0 1 1.91-1.263l2.85.475c.455.076.851.326 1.116.703s.366.835.284 1.288l-.597 2.189a.501.501 0 0 1-.482.369zm-3.448-4.047a.687.687 0 0 0-.684.684c0 .276-.224.532-.5.532a.477.477 0 0 0-.468.578l.234.65.129-.192a.499.499 0 0 1 .416-.223h3.626c.165 0 .32.081.413.218l.085.124.302-1.104a.693.693 0 0 0-.127-.492.702.702 0 0 0-.463-.292l-2.85-.475c-.038-.004-.075-.008-.113-.008zM29.023 32a.5.5 0 0 1-.5-.5v-1.101c0-.56.208-1.095.584-1.509l.363-.396a.499.499 0 1 1 .739.674l-.362.396a1.239 1.239 0 0 0-.323.835V31.5a.501.501 0 0 1-.501.5z"/><path fill="#4f5266" d="M31.5 32a.5.5 0 0 1-.5-.5v-3.095c0-.622-.391-1.187-.974-1.405l-2.702-1.014a.499.499 0 0 1-.324-.467v-.892c-.639.23-1.362.23-2-.001v.893a.5.5 0 0 1-.324.468L21.974 27a1.637 1.637 0 0 0-.246.118.499.499 0 1 1-.51-.86c.126-.075.262-.142.404-.194L24 25.172v-1.383a.499.499 0 0 1 .801-.398 1.986 1.986 0 0 0 2.396.002.498.498 0 0 1 .524-.049.497.497 0 0 1 .279.447v1.381l2.378.893A2.51 2.51 0 0 1 32 28.405V31.5a.5.5 0 0 1-.5.5z"/><path fill="#4f5266" d="M26 28.019a4.005 4.005 0 0 1-3.276-1.704.5.5 0 1 1 .82-.574 3 3 0 0 0 4.912.003.501.501 0 0 1 .819.574A4.01 4.01 0 0 1 26 28.019zM2.003 23.156a.5.5 0 0 1-.452-.285A16.09 16.09 0 0 1 0 16C0 7.178 7.178 0 16 0s16 7.178 16 16c0 2.357-.534 4.729-1.544 6.857a.5.5 0 1 1-.903-.428A15.088 15.088 0 0 0 31 16c0-8.271-6.729-15-15-15S1 7.729 1 16c0 2.215.503 4.442 1.454 6.441a.499.499 0 0 1-.451.715z"/><path fill="#4f5266" d="M31.5 16.5a.5.5 0 0 1-.5-.5c0-5.514-6.729-10-15-10S1 10.486 1 16a.5.5 0 0 1-1 0C0 9.935 7.178 5 16 5s16 4.935 16 11a.5.5 0 0 1-.5.5z"/><path fill="#4f5266" d="M31.5 16.5a.5.5 0 0 1-.5-.5c0-2.129-6.16-4.5-15-4.5S1 13.871 1 16a.5.5 0 0 1-1 0c0-3.442 8.135-5.5 16-5.5s16 2.058 16 5.5a.5.5 0 0 1-.5.5z"/><path fill="#4f5266" d="M26.448 15a.5.5 0 0 1-.499-.467C25.445 6.944 21.075 1 16 1c-5.076 0-9.445 5.944-9.949 13.533a.494.494 0 0 1-.532.466.501.501 0 0 1-.466-.532C5.591 6.354 10.4 0 16 0s10.409 6.354 10.947 14.467a.5.5 0 0 1-.466.532l-.033.001z"/><path fill="#4f5266" d="M11.586 13.516l-.029-.001a.5.5 0 0 1-.471-.527C11.452 6.522 13.114 0 16 0c2.871 0 4.535 6.477 4.91 12.895a.5.5 0 0 1-.47.528.49.49 0 0 1-.528-.47C19.474 5.471 17.58 1 16 1c-1.589 0-3.488 4.505-3.916 12.044a.499.499 0 0 1-.498.472z"/></svg>