<?xml version="1.0" encoding="iso-8859-1"?>
<!-- Generator: Adobe Illustrator 19.0.0, SVG Export Plug-In . SVG Version: 6.00 Build 0)  -->
<svg version="1.1" id="Capa_1" xmlns="http://www.w3.org/2000/svg" xmlns:xlink="http://www.w3.org/1999/xlink" x="0px" y="0px"
	 viewBox="0 0 512 512" style="enable-background:new 0 0 512 512;" xml:space="preserve">
<g>
	<path style="fill:#7F5B53;" d="M79.448,44.138h353.103c9.751,0,17.655,7.904,17.655,17.655v432.552
		c0,9.751-7.905,17.655-17.655,17.655H79.448c-9.751,0-17.655-7.905-17.655-17.655V61.793
		C61.793,52.042,69.698,44.138,79.448,44.138z"/>
	<path style="fill:#ECF0F1;" d="M353.103,79.448h52.966c4.875,0,8.828,3.952,8.828,8.828v379.586c0,4.875-3.952,8.828-8.828,8.828
		H105.931c-4.875,0-8.828-3.952-8.828-8.828V88.276c0-4.875,3.952-8.828,8.828-8.828H353.103z"/>
	<path style="fill:#F29C1F;" d="M256,273.655h64.354c3.136,0,6.037-1.664,7.62-4.371c1.583-2.707,1.611-6.051,0.074-8.784
		l-64.354-114.408c-1.564-2.78-4.505-4.5-7.694-4.5s-6.13,1.72-7.694,4.5L183.952,260.5c-1.538,2.733-1.509,6.077,0.074,8.784
		c1.583,2.707,4.484,4.371,7.62,4.371H256z"/>
	<g>
		<path style="fill:#E6E7E8;" d="M256,229.517c-4.875,0-8.828-3.952-8.828-8.828v-26.483c0-4.875,3.952-8.828,8.828-8.828
			s8.828,3.952,8.828,8.828v26.483C264.828,225.565,260.875,229.517,256,229.517z"/>
		<path style="fill:#E6E7E8;" d="M256,256c-4.007,0-7.513-2.693-8.547-6.563c-1.035-3.871,0.661-7.953,4.132-9.953
			c3.472-1.999,7.854-1.417,10.683,1.421c0.353,0.44,0.707,0.879,1.056,1.41c0.35,0.451,0.619,0.958,0.797,1.5
			c0.253,0.501,0.432,1.037,0.53,1.59c0.097,0.585,0.156,1.175,0.176,1.768c-0.016,0.591-0.075,1.18-0.177,1.763
			c-0.098,0.553-0.277,1.089-0.53,1.59c-0.194,0.563-0.462,1.098-0.797,1.591c-0.349,0.44-0.703,0.879-1.056,1.323
			c-0.419,0.378-0.861,0.731-1.323,1.056c-0.492,0.335-1.027,0.603-1.591,0.797c-0.501,0.253-1.037,0.432-1.59,0.53
			C257.18,255.925,256.591,255.984,256,256z"/>
	</g>
	<g>
		<path style="fill:#A5A5A4;" d="M317.793,317.793H194.207c-4.875,0-8.828-3.952-8.828-8.828s3.952-8.828,8.828-8.828h123.586
			c4.875,0,8.828,3.952,8.828,8.828S322.668,317.793,317.793,317.793z"/>
		<path style="fill:#A5A5A4;" d="M317.793,423.724H194.207c-4.875,0-8.828-3.952-8.828-8.828s3.952-8.828,8.828-8.828h123.586
			c4.875,0,8.828,3.952,8.828,8.828S322.668,423.724,317.793,423.724z"/>
		<path style="fill:#A5A5A4;" d="M361.931,353.103H150.069c-4.875,0-8.828-3.952-8.828-8.828s3.952-8.828,8.828-8.828h211.862
			c4.875,0,8.828,3.952,8.828,8.828S366.806,353.103,361.931,353.103z"/>
		<path style="fill:#A5A5A4;" d="M361.931,388.414H150.069c-4.875,0-8.828-3.952-8.828-8.828s3.952-8.828,8.828-8.828h211.862
			c4.875,0,8.828,3.952,8.828,8.828S366.806,388.414,361.931,388.414z"/>
		<path style="fill:#A5A5A4;" d="M203.034,0h105.931c9.751,0,17.655,7.904,17.655,17.655v26.483H185.379V17.655
			C185.379,7.904,193.284,0,203.034,0z"/>
	</g>
	<path style="fill:#BDC3C7;" d="M158.897,44.138h194.207v35.31c0,9.751-7.905,17.655-17.655,17.655H176.552
		c-9.751,0-17.655-7.904-17.655-17.655V44.138z"/>
</g>
<g>
</g>
<g>
</g>
<g>
</g>
<g>
</g>
<g>
</g>
<g>
</g>
<g>
</g>
<g>
</g>
<g>
</g>
<g>
</g>
<g>
</g>
<g>
</g>
<g>
</g>
<g>
</g>
<g>
</g>
</svg>
