<svg height="512" viewBox="0 0 512 512" width="512" xmlns="http://www.w3.org/2000/svg"><g id="Contact_List" data-name="Contact List"><g id="Flat"><path d="m464 400h-32v-96h32a16 16 0 0 1 16 16v64a16 16 0 0 1 -16 16z" fill="#ffd740"/><path d="m432 375.832v24.168h32a16 16 0 0 0 16-16v-60a51.993 51.993 0 0 1 -48 51.832z" fill="#ffc400"/><path d="m384 512h-296a56 56 0 0 1 -56-56v-355.667a84.333 84.333 0 0 1 84.333-84.333h291.667a40 40 0 0 1 40 40v392a64 64 0 0 1 -64 64z" fill="#ededed"/><path d="m400 128h-32v-96h32a16 16 0 0 1 16 16v64a16 16 0 0 1 -16 16z" fill="#ce93d8"/><path d="m392 480h-304a8 8 0 0 1 0-16h304a8 8 0 0 1 0 16z" fill="#e2e2e2"/><path d="m432 256h-24v-96h24a16 16 0 0 1 16 16v64a16 16 0 0 1 -16 16z" fill="#0277bd"/><path d="m412 232c-1.347 0-2.678-.068-4-.168v24.168h24a16 16 0 0 0 16-16v-32.3c-9.208 14.6-17.466 24.3-36 24.3z" fill="#0469bc"/><path d="m368 95.832v32.168h32a16 16 0 0 0 16-16v-64c0-.451-.031-.894-.067-1.335a52 52 0 0 1 -47.933 49.167z" fill="#c087cc"/><path d="m392 448h-304a8 8 0 0 1 0-16h304a8.009 8.009 0 0 0 8-8v-272a8 8 0 0 1 16 0v272a24.028 24.028 0 0 1 -24 24z" fill="#e2e2e2"/><path d="m88 400h264a32 32 0 0 0 32-32v-336a32 32 0 0 0 -32-32h-264a56 56 0 0 0 -56 56v400a56.063 56.063 0 0 1 56-56z" fill="#e56161"/><path d="m120 312a271.635 271.635 0 0 1 -88-14.56v158.56a56.063 56.063 0 0 1 56-56h264a32 32 0 0 0 32-32v-262.331c-29.379 118.493-136.423 206.331-264 206.331z" fill="#d65858"/><path d="m159.865 154.056a8 8 0 0 1 -15.038-2.3 60.957 60.957 0 0 1 13.832-49.376 64.3 64.3 0 0 1 96.976-.607 61.043 61.043 0 0 1 14.592 48.424 8 8 0 0 1 -14.558 3.379c-4.135-6.131-11.4-8.48-14.776-9.27-5.663 2.281-20.386 7.694-32.893 7.694-12.776 0-27.865-5.648-33.245-7.844-3.276.488-11.117 2.418-14.89 9.9z" fill="#525252"/><path d="m208 296a47.69 47.69 0 0 1 -33.937-14.062 47.687 47.687 0 0 1 -14.063-33.938l16-14.559v-33.441h64v33.441l16 14.559a48.053 48.053 0 0 1 -48 48z" fill="#fac7b7"/><path d="m304 336h-192a16 16 0 0 1 -16-16v-37.767a40.1 40.1 0 0 1 32.156-39.222l47.844-9.57v14.559a32.013 32.013 0 0 0 32.623 31.994c17.535-.332 31.377-15.094 31.377-32.636v-13.917l47.845 9.57a40.1 40.1 0 0 1 32.155 39.222v37.767a16 16 0 0 1 -16 16z" fill="#ffd740"/><path d="m296.142 245.641a136.048 136.048 0 0 1 -128.142 90.359h136a16 16 0 0 0 16-16v-37.767a40.135 40.135 0 0 0 -23.858-36.592z" fill="#ffc400"/><circle cx="128" cy="272" fill="#ffe7a4" r="16"/><circle cx="160" cy="296" fill="#ffe7a4" r="12"/><circle cx="68" cy="52" fill="#f29c9c" r="16"/><circle cx="100" cy="76" fill="#f29c9c" r="12"/><path d="m255.635 101.768a62.957 62.957 0 0 0 -13.959-11.912 116.325 116.325 0 0 1 -47.918 60.344 66.27 66.27 0 0 0 14.242 1.8c12.507 0 27.23-5.413 32.893-7.7 3.372.79 10.641 3.139 14.776 9.27a8 8 0 0 0 14.558-3.379 61.043 61.043 0 0 0 -14.592-48.423z" fill="#3f3f3f"/><path d="m207.407 232c-24.761 0-46.318-15.539-53.639-38.667l-.193-.722-8.248-38.1c-.2-.952-.351-1.857-.5-2.76l-.422-2.57 1.173-2.326c9.093-18.035 29.333-18.825 30.191-18.85l1.818-.052 1.662.738c.16.07 16.651 7.309 28.751 7.309s28.591-7.239 28.756-7.312l1.993-.883 2.17.248c.746.087 18.375 2.277 28.016 16.572l1.711 2.537-.419 3.031c-.217 1.567-.456 2.961-.728 4.264l-8.339 38.52-.113.356c-7.32 23.128-28.876 38.667-53.64 38.667z" fill="#ffdecf"/><path d="m168 208c-2.415 0-4.811-.08-7.191-.22a56.205 56.205 0 0 0 46.6 24.22c24.764 0 46.32-15.539 53.64-38.667l.113-.356 8.339-38.52c.22-1.053.417-2.171.6-3.386a119.918 119.918 0 0 1 -102.101 56.929z" fill="#ffd3c2"/><circle cx="172" cy="156" fill="#fff5f2" r="12"/><circle cx="200" cy="172" fill="#fff5f2" r="8"/><circle cx="192" cy="104" fill="#848484" r="8"/></g></g></svg>