<svg height="512" viewBox="0 0 58 58" width="512" xmlns="http://www.w3.org/2000/svg"><g id="010---Contacts" fill="none" fill-rule="evenodd" transform="translate(-1)"><g fill-rule="nonzero"><path id="Shape" d="m56.72 43h-1.17l2.52-24.57c.234565-2.1141139-1.2301524-4.0406791-3.33-4.38.016-.065.314-1.255.33-1.32.2249055-.8964882.024022-1.8466004-.5445058-2.575332-.5685278-.72873149-1.441225-1.15472094-2.3654942-1.154668h-1.16l.9-2.26c.2448325-.61473354.1697692-1.3107711-.2005-1.85916973-.3702691-.54839862-.9878104-.87816462-1.6495-.88083027h-1.65l.5-1.26c.2448325-.61473354.1697692-1.3107711-.2005-1.85916973-.3702691-.54839862-.9878104-.87816462-1.6495-.88083027h-34.1c-.6616896.00266565-1.2792309.33243165-1.6495.88083027-.3702692.54839863-.4453325 1.24443619-.2005 1.85916973l.5 1.26h-1.65c-.66168964.00266565-1.27923088.33243165-1.64950003.88083027-.37026914.54839863-.44533249 1.24443619-.20049997 1.85916973l.9 2.26h-1.16c-.92426919-.00005294-1.7969664.42593651-2.36549422 1.154668-.56852782.7287316-.76941129 1.6788438-.54450578 2.575332l.32 1.27c-1.17814065-.071477-2.32793668.3797153-3.14304744 1.2333655-.81511077.8536503-1.21274197 2.0230497-1.08695256 3.1966345l2.53 24.57h-.27c-.57523127.0008708-1.12223685.2493774-1.50130073.6820463-.37906388.4326688-.55348008 1.0076033-.47869927 1.5779537.619 4.631.283 2.113 1.7 12.74h54c1.424-10.682 1.093-8.2 1.7-12.74.0747808-.5703504-.0996354-1.1452849-.4786993-1.5779537-.3790638-.4326689-.9260694-.6811755-1.5013007-.6820463z" fill="#9fc9d3"/><path id="Shape" d="m58.7 45.26-.5 3.74h-56.4l-.5-3.74c-.07478081-.5703504.09963539-1.1452849.47869927-1.5779537.37906388-.4326689.92606946-.6811755 1.50130073-.6820463h53.44c.5752313.0008708 1.1222369.2493774 1.5013007.6820463.3790639.4326688.5534801 1.0076033.4786993 1.5779537z" fill="#f9eab0"/><path id="Shape" d="m58.2 49-1.2 9h-54l-1.2-9z" fill="#f0c419"/><path id="Shape" d="m56 49-1.106 9h-49.788l-1.106-9z" fill="#f3d55b"/><path id="Shape" d="m55.07 12.73c-.016.065-.314 1.255-.33 1.32-.54-.078 2.852-.05-49.49-.05l-.32-1.27c-.22490551-.8964882-.02402204-1.8466004.54450578-2.575332.56852782-.72873149 1.44122503-1.15472094 2.36549422-1.154668h44.32c.9242692-.00005294 1.7969664.42593651 2.3654942 1.154668.5685278.7287316.7694113 1.6788438.5445058 2.575332z" fill="#84b5cb"/><path id="Shape" d="m51.9 6.74-.9 2.26h-42l-.9-2.26c-.24483252-.61473354-.16976917-1.3107711.20049997-1.85916973.37026915-.54839862.98781039-.87816462 1.64950003-.88083027h40.1c.6616896.00266565 1.2792309.33243165 1.6495.88083027.3702692.54839863.4453325 1.24443619.2005 1.85916973z" fill="#3b97d3"/><path id="Shape" d="m48.9 2.74-.5 1.26h-36.8l-.5-1.26c-.2448325-.61473354-.1697692-1.3107711.2005-1.85916973.3702691-.54839862.9878104-.87816462 1.6495-.88083027h34.1c.6616896.00266565 1.2792309.33243165 1.6495.88083027.3702692.54839863.4453325 1.24443619.2005 1.85916973z" fill="#2980ba"/><path id="Shape" d="m9 43-1.811-20.827c-.0484766-.5583224.13952339-1.1113698.51822358-1.52448s.9133535-.6483789 1.47377642-.64852h16.819c1.1045695 0 2 .8954305 2 2v21z" fill="#547580"/><path id="Shape" d="m52.18 25h-18.18c-.5522847 0-1-.4477153-1-1v-3c0-.5522847.4477153-1 1-1h18.78c.3004978-.0003619.5852286.1344274.7754202.3670777.1901916.2326504.2656796.5384957.2055798.8329223l-.6 3c-.0951286.4660347-.5053558.8005727-.981.8z" fill="#3f5c6c"/><path id="Shape" d="m35 31h-2c-.5522847 0-1-.4477153-1-1s.4477153-1 1-1h2c.5522847 0 1 .4477153 1 1s-.4477153 1-1 1z" fill="#ecf0f1"/><path id="Shape" d="m52 31h-13c-.5522847 0-1-.4477153-1-1s.4477153-1 1-1h13c.5522847 0 1 .4477153 1 1s-.4477153 1-1 1z" fill="#ecf0f1"/><path id="Shape" d="m43 36h-10c-.5522847 0-1-.4477153-1-1s.4477153-1 1-1h10c.5522847 0 1 .4477153 1 1s-.4477153 1-1 1z" fill="#ecf0f1"/><path id="Shape" d="m51 36h-4c-.5522847 0-1-.4477153-1-1s.4477153-1 1-1h4c.5522847 0 1 .4477153 1 1s-.4477153 1-1 1z" fill="#ecf0f1"/></g><path id="Shape" d="m11.055 43-.04-.352c-.1176215-.9395941.3564778-1.854383 1.192-2.3.071-.042.922-.581 2.941-1.859.5842944-.3121343.9211945-.947183.852-1.606l-.175-1.568c-.8904318-.7028683-1.5967004-1.6116143-2.058-2.648-.136-.347-.057-.239-.363-.456-.39-.279-.328-.508-.5-2.065-.03-.267.248-.518.393-.686l-.262-2.335c-.014-.405.065-3.125 3.865-3.125 3.776 0 4.482 2.688 4.568 3.1l.264 2.357c.389.357.522.47.546.685.169 1.509.3 1.779-.041 2.065-.257.217-.2.109-.26.456-.2141427 1.0089325-.7246049 1.9309678-1.466 2.648l.176 1.568c.108873.6935626.5514597 1.2894099 1.184 1.594.04.022 3.368 1.866 3.41 1.886.9112033.4273437 1.5434146 1.2877384 1.679 2.285l.04.356z" fill="#35495e"/></g></svg>