<svg id="icons" height="512" viewBox="0 0 64 64" width="512" xmlns="http://www.w3.org/2000/svg"><g id="Contract-Document-Sign-Pencil-Agreement"><path d="m54 11v46a4 4 0 0 1 -4 4h-36a3.881 3.881 0 0 1 -1.41-.26 4.008 4.008 0 0 1 -2.59-3.74v-50a4 4 0 0 1 4-4h32v6a2.006 2.006 0 0 0 2 2z" fill="#e6e7e8"/><path d="m54 23v34a4 4 0 0 1 -4 4h-34z" fill="#d8d7da"/><path d="m54 11h-6a2.006 2.006 0 0 1 -2-2v-6z" fill="#bcbec0"/><path d="m59 37v2a2.015 2.015 0 0 1 -2 2 2.006 2.006 0 0 1 -2-2v-2z" fill="#acabb1"/><path d="m61 33v1l-2 3h-4l-2-3v-1z" fill="#c6c5ca"/><path d="m53 14h4v19h-4z" fill="#00ccb3"/><path d="m57 14h4v19h-4z" fill="#00b39d"/><path d="m53 11h8v3h-8z" fill="#d1d3d4"/><path d="m61 9v2h-8v-2a4 4 0 1 1 8 0z" fill="#e6e7e8"/><path d="m13 34v25a3.781 3.781 0 0 1 -.41 1.74 4.008 4.008 0 0 1 -2.59-3.74v-29.73a2 2 0 0 1 1 1.73v2z" fill="#d8d7da"/><path d="m11 55v2a3.933 3.933 0 0 1 -.5 1.93 3.978 3.978 0 0 1 -3.5 2.07 3.995 3.995 0 0 1 -4-4v-2z" fill="#e6e7e8"/><path d="m10 52h-3-4v3h7 1v-3z" fill="#d1d3d4"/><path d="m7 33h4v19h-4z" fill="#00b39d"/><path d="m3 33h4v19h-4z" fill="#00ccb3"/><path d="m11 32v1h-8v-1l2-3h4z" fill="#c6c5ca"/><path d="m9 27v2h-4v-2a2.015 2.015 0 0 1 2-2 2.006 2.006 0 0 1 2 2z" fill="#acabb1"/><path d="m31 11h2a1 1 0 0 1 1 1h2a3 3 0 0 0 -3-3v-1h-2v1a3 3 0 0 0 0 6h2a1 1 0 0 1 0 2h-2a1 1 0 0 1 -1-1h-2a3 3 0 0 0 3 3v1h2v-1a3 3 0 0 0 0-6h-2a1 1 0 0 1 0-2z" fill="#ff5023"/><path d="m38 13h2v2h-2z" fill="#ff5023"/><path d="m24 13h2v2h-2z" fill="#ff5023"/><g fill="#bcbec0"><path d="m17 54h12v2h-12z"/><path d="m17 50h12v2h-12z"/><path d="m35 54h12v2h-12z"/><path d="m35 50h12v2h-12z"/><path d="m17 24h4v2h-4z"/><path d="m23 24h24v2h-24z"/><path d="m17 28h30v2h-30z"/><path d="m17 32h30v2h-30z"/><path d="m17 36h30v2h-30z"/><path d="m17 40h30v2h-30z"/></g></g></svg>