<svg height="512pt" viewBox="0 -1 512.001 512" width="512pt" xmlns="http://www.w3.org/2000/svg"><path d="m156.953125 104.597656h-36.589844v29.324219h36.761719zm0 0" fill="#ffb69e"/><path d="m37.863281 196.039062v24.972657h39.785157v-24.972657l-19.890626-12.21875zm0 0" fill="#ffb69e"/><path d="m200.503906 196.039062v101.957032c0 10.988281 8.90625 19.894531 19.894532 19.894531 10.984374 0 19.890624-8.90625 19.890624-19.894531v-101.957032l-19.890624-12.21875zm0 0" fill="#ffb69e"/><path d="m192.476562 104.597656h-35.523437c.347656 9.820313-8.773437 18.15625-18.300781 18.15625-10.210938 0-17.777344-8.304687-18.289063-18.15625h-34.6875c-26.234375 0-47.683593 21.3125-47.8125 47.242188v44.199218h39.785157v-44.097656c.019531-3.796875 3.84375-7.253906 8.027343-7.253906h.925781v7.515625l52.472657 17.726563 52.902343-17.726563v-7.515625h.5c4.179688 0 8.007813 3.457031 8.027344 7.152344v44.199218h39.785156v-44.296874c-.128906-25.832032-21.578124-47.144532-47.8125-47.144532zm0 0" fill="#64afff"/><path d="m180.308594 50.523438c0 22.773437-18.460938 41.230468-41.234375 41.230468-22.769531 0-41.230469-18.457031-41.230469-41.230468 0-22.769532 18.460938-41.230469 41.230469-41.230469 22.773437 0 41.234375 18.460937 41.234375 41.230469zm0 0" fill="#ffb69e"/><path d="m180.269531 32.476562h-.917969c-4.011718-18.5625-20.507812-32.476562-40.277343-32.476562-19.761719 0-36.261719 13.914062-40.273438 32.476562h-.917969c-5.703124 0-10.328124 4.625-10.328124 10.328126 0 5.703124 4.625 10.324218 10.328124 10.324218h82.386719c5.703125 0 10.328125-4.621094 10.328125-10.324218 0-5.703126-4.625-10.328126-10.328125-10.328126zm0 0" fill="#ffda52"/><path d="m124.488281 22.71875c4.167969 0 7.542969-3.378906 7.542969-7.546875v-14.570313c-5.476562.945313-10.582031 2.972657-15.089844 5.851563v8.71875c0 4.167969 3.378906 7.546875 7.546875 7.546875zm0 0" fill="#f2cc3f"/><path d="m153.664062 22.71875c4.167969 0 7.546876-3.378906 7.546876-7.546875v-8.71875c-4.507813-2.878906-9.613282-4.90625-15.089844-5.851563v14.570313c0 4.167969 3.375 7.546875 7.542968 7.546875zm0 0" fill="#f2cc3f"/><path d="m176.050781 152.203125v-47.605469h-15.089843v47.605469h-43.769532v-47.605469h-15.089844v47.605469h-15.5v334.164063c0 13.1875 10.6875 23.875 23.871094 23.875s23.875-10.6875 23.875-23.875v-190.5h9.882813v190.5c0 13.1875 10.6875 23.875 23.871093 23.875 13.1875 0 23.875-10.6875 23.875-23.875 0-19.917969 0-322.425782 0-334.164063zm0 0" fill="#414b82"/><path d="m172.214844 251.074219h-65.851563c-5.277343 0-9.550781-4.277344-9.550781-9.550781v-89.496094c0-5.273438 4.277344-9.550782 9.550781-9.550782h65.851563c5.273437 0 9.550781 4.277344 9.550781 9.550782v89.496094c0 5.273437-4.277344 9.550781-9.550781 9.550781zm0 0" fill="#b4d7dc"/><path d="m130.375 240.414062h-72.976562c-10.921876 0-19.773438-8.855468-19.773438-19.773437 0-10.921875 8.851562-19.773437 19.773438-19.773437h72.980468c10.917969 0 19.769532 8.851562 19.769532 19.773437 0 10.917969-8.851563 19.773437-19.773438 19.773437zm0 0" fill="#ffb69e"/><path d="m336.246094 296.03125h-67.996094c-4.695312 0-8.503906-3.804688-8.503906-8.5v-47.335938c0-4.695312 3.808594-8.503906 8.503906-8.503906h67.996094c4.695312 0 8.503906 3.808594 8.503906 8.503906v47.335938c0 4.695312-3.808594 8.5-8.503906 8.5zm0 0" fill="#a56941"/><path d="m447.246094 296.03125h-67.996094c-4.695312 0-8.503906-3.804688-8.503906-8.5v-47.335938c0-4.695312 3.808594-8.503906 8.503906-8.503906h67.996094c4.695312 0 8.503906 3.808594 8.503906 8.503906v47.335938c0 4.695312-3.808594 8.5-8.503906 8.5zm0 0" fill="#a56941"/><path d="m61.53125 405.734375h388.9375c23.640625 0 44.574219-16.035156 49.921875-39.066406.976563-4.207031 1.492187-8.589844 1.492187-13.09375 0-.6875-.011718-1.371094-.035156-2.050781-.953125-27.339844-24-48.738282-51.359375-48.738282h-388.976562c-27.359375 0-50.402344 21.398438-51.359375 48.738282-.023438.679687-.035156 1.363281-.035156 2.050781 0 4.503906.515624 8.886719 1.492187 13.09375 5.347656 23.027343 26.28125 39.066406 49.921875 39.066406zm0 0" fill="#3c5a73"/><path d="m454.292969 325.867188c15.277343 0 27.707031 12.429687 27.707031 27.707031 0 15.277343-12.429688 27.707031-27.707031 27.707031h-396.585938c-15.277343 0-27.707031-12.429688-27.707031-27.707031 0-15.277344 12.429688-27.707031 27.707031-27.707031zm0-30h-396.585938c-31.871093 0-57.707031 25.835937-57.707031 57.707031 0 31.871093 25.835938 57.707031 57.707031 57.707031h396.589844c31.867187 0 57.703125-25.835938 57.703125-57.707031 0-31.871094-25.835938-57.707031-57.707031-57.707031zm0 0" fill="#c8e6eb"/><path d="m284.085938 353.574219c0 15.511719-12.574219 28.085937-28.085938 28.085937s-28.085938-12.574218-28.085938-28.085937 12.574219-28.085938 28.085938-28.085938 28.085938 12.574219 28.085938 28.085938zm0 0" fill="#87afb9"/><path d="m195.128906 353.574219c0 15.511719-12.574218 28.085937-28.085937 28.085937s-28.085938-12.574218-28.085938-28.085937 12.574219-28.085938 28.085938-28.085938 28.085937 12.574219 28.085937 28.085938zm0 0" fill="#87afb9"/><path d="m106.171875 353.574219c0 15.511719-12.574219 28.085937-28.085937 28.085937-15.511719 0-28.085938-12.574218-28.085938-28.085937s12.574219-28.085938 28.085938-28.085938c15.511718 0 28.085937 12.574219 28.085937 28.085938zm0 0" fill="#87afb9"/><path d="m462 353.574219c0 15.511719-12.574219 28.085937-28.085938 28.085937-15.511718 0-28.085937-12.574218-28.085937-28.085937s12.574219-28.085938 28.085937-28.085938c15.511719 0 28.085938 12.574219 28.085938 28.085938zm0 0" fill="#87afb9"/><path d="m373.042969 353.574219c0 15.511719-12.574219 28.085937-28.085938 28.085937s-28.085937-12.574218-28.085937-28.085937 12.574218-28.085938 28.085937-28.085938 28.085938 12.574219 28.085938 28.085938zm0 0" fill="#87afb9"/><g fill="#b4d7dc"><path d="m267.648438 353.984375c0 6.433594-5.214844 11.648437-11.648438 11.648437s-11.648438-5.214843-11.648438-11.648437 5.214844-11.648437 11.648438-11.648437 11.648438 5.214843 11.648438 11.648437zm0 0"/><path d="m178.691406 353.984375c0 6.433594-5.214844 11.648437-11.648437 11.648437-6.433594 0-11.648438-5.214843-11.648438-11.648437s5.214844-11.648437 11.648438-11.648437c6.433593 0 11.648437 5.214843 11.648437 11.648437zm0 0"/><path d="m89.734375 353.984375c0 6.433594-5.214844 11.648437-11.648437 11.648437-6.433594 0-11.648438-5.214843-11.648438-11.648437s5.214844-11.648437 11.648438-11.648437c6.433593 0 11.648437 5.214843 11.648437 11.648437zm0 0"/><path d="m356.605469 353.984375c0 6.433594-5.214844 11.648437-11.648438 11.648437-6.433593 0-11.648437-5.214843-11.648437-11.648437s5.214844-11.648437 11.648437-11.648437c6.433594 0 11.648438 5.214843 11.648438 11.648437zm0 0"/><path d="m445.5625 353.984375c0 6.433594-5.214844 11.648437-11.648438 11.648437-6.433593 0-11.648437-5.214843-11.648437-11.648437s5.214844-11.648437 11.648437-11.648437c6.433594 0 11.648438 5.214843 11.648438 11.648437zm0 0"/></g></svg>