<?xml version="1.0" encoding="iso-8859-1"?>
<!-- Generator: Adobe Illustrator 19.0.0, SVG Export Plug-In . SVG Version: 6.00 Build 0)  -->
<svg version="1.1" id="Capa_1" xmlns="http://www.w3.org/2000/svg" xmlns:xlink="http://www.w3.org/1999/xlink" x="0px" y="0px"
	 viewBox="0 0 464 464" style="enable-background:new 0 0 464 464;" xml:space="preserve">
<path style="fill:#F6F6E7;" d="M464,16L448,0l-16,16L416,0l-16,16L384,0l-16,16L352,0l-16,16L320,0l-16,16L288,0l-16,16v272h192V16z
	"/>
<g>
	<path style="fill:#5A6570;" d="M312,72h-8c-4.418,0-8-3.582-8-8s3.582-8,8-8h8c4.418,0,8,3.582,8,8S316.418,72,312,72z"/>
	<path style="fill:#5A6570;" d="M352,72h-8c-4.418,0-8-3.582-8-8s3.582-8,8-8h8c4.418,0,8,3.582,8,8S356.418,72,352,72z"/>
	<path style="fill:#5A6570;" d="M352,104h-8c-4.418,0-8-3.582-8-8s3.582-8,8-8h8c4.418,0,8,3.582,8,8S356.418,104,352,104z"/>
	<path style="fill:#5A6570;" d="M352,136h-8c-4.418,0-8-3.582-8-8s3.582-8,8-8h8c4.418,0,8,3.582,8,8S356.418,136,352,136z"/>
	<path style="fill:#5A6570;" d="M352,168h-8c-4.418,0-8-3.582-8-8s3.582-8,8-8h8c4.418,0,8,3.582,8,8S356.418,168,352,168z"/>
	<path style="fill:#5A6570;" d="M352,200h-8c-4.418,0-8-3.582-8-8s3.582-8,8-8h8c4.418,0,8,3.582,8,8S356.418,200,352,200z"/>
	<path style="fill:#5A6570;" d="M352,232h-8c-4.418,0-8-3.582-8-8s3.582-8,8-8h8c4.418,0,8,3.582,8,8S356.418,232,352,232z"/>
	<path style="fill:#5A6570;" d="M392,72h-8c-4.418,0-8-3.582-8-8s3.582-8,8-8h8c4.418,0,8,3.582,8,8S396.418,72,392,72z"/>
	<path style="fill:#5A6570;" d="M392,104h-8c-4.418,0-8-3.582-8-8s3.582-8,8-8h8c4.418,0,8,3.582,8,8S396.418,104,392,104z"/>
	<path style="fill:#5A6570;" d="M392,136h-8c-4.418,0-8-3.582-8-8s3.582-8,8-8h8c4.418,0,8,3.582,8,8S396.418,136,392,136z"/>
	<path style="fill:#5A6570;" d="M392,168h-8c-4.418,0-8-3.582-8-8s3.582-8,8-8h8c4.418,0,8,3.582,8,8S396.418,168,392,168z"/>
	<path style="fill:#5A6570;" d="M392,200h-8c-4.418,0-8-3.582-8-8s3.582-8,8-8h8c4.418,0,8,3.582,8,8S396.418,200,392,200z"/>
	<path style="fill:#5A6570;" d="M392,232h-8c-4.418,0-8-3.582-8-8s3.582-8,8-8h8c4.418,0,8,3.582,8,8S396.418,232,392,232z"/>
	<path style="fill:#5A6570;" d="M432,72h-8c-4.418,0-8-3.582-8-8s3.582-8,8-8h8c4.418,0,8,3.582,8,8S436.418,72,432,72z"/>
	<path style="fill:#5A6570;" d="M432,104h-8c-4.418,0-8-3.582-8-8s3.582-8,8-8h8c4.418,0,8,3.582,8,8S436.418,104,432,104z"/>
	<path style="fill:#5A6570;" d="M432,136h-8c-4.418,0-8-3.582-8-8s3.582-8,8-8h8c4.418,0,8,3.582,8,8S436.418,136,432,136z"/>
	<path style="fill:#5A6570;" d="M432,168h-8c-4.418,0-8-3.582-8-8s3.582-8,8-8h8c4.418,0,8,3.582,8,8S436.418,168,432,168z"/>
	<path style="fill:#5A6570;" d="M432,200h-8c-4.418,0-8-3.582-8-8s3.582-8,8-8h8c4.418,0,8,3.582,8,8S436.418,200,432,200z"/>
	<path style="fill:#5A6570;" d="M432,232h-8c-4.418,0-8-3.582-8-8s3.582-8,8-8h8c4.418,0,8,3.582,8,8S436.418,232,432,232z"/>
</g>
<path style="fill:#5F7ABC;" d="M0,96h312v368H0V96z"/>
<path style="fill:#88D0EF;" d="M40,128h232v48H40V128z"/>
<path style="fill:#31B1AE;" d="M216,296h56v128h-56V296z"/>
<g>
	<path style="fill:#7FCCCB;" d="M40,376h56v48H40V376z"/>
	<path style="fill:#7FCCCB;" d="M128,376h56v48h-56V376z"/>
	<path style="fill:#7FCCCB;" d="M40,296h56v48H40V296z"/>
	<path style="fill:#7FCCCB;" d="M128,296h56v48h-56V296z"/>
	<path style="fill:#7FCCCB;" d="M40,216h56v48H40V216z"/>
	<path style="fill:#7FCCCB;" d="M128,216h56v48h-56V216z"/>
	<path style="fill:#7FCCCB;" d="M216,216h56v48h-56V216z"/>
</g>
<g>
</g>
<g>
</g>
<g>
</g>
<g>
</g>
<g>
</g>
<g>
</g>
<g>
</g>
<g>
</g>
<g>
</g>
<g>
</g>
<g>
</g>
<g>
</g>
<g>
</g>
<g>
</g>
<g>
</g>
</svg>
