<svg height="511pt" viewBox="0 0 511 511.99988" width="511pt" xmlns="http://www.w3.org/2000/svg"><path d="m452.488281 256.003906c0 8.292969 6.710938 15 15 15 8.292969 0 15-6.707031 15-15v-135.996094l-15-30-15 30zm0 0" fill="#8ebac5"/><path d="m166.496094 361.003906v59.996094l-82.496094 30-7.5-2.699219-76-27.300781v-44.996094c0-8.402344 6.597656-15 15-15zm0 0" fill="#e68a44"/><path d="m166.496094 361.003906v59.996094l-82.496094 30-7.5-2.699219v-87.296875zm0 0" fill="#e27726"/><path d="m.5 421h165.996094v76h-165.996094zm0 0" fill="#cb671b"/><path d="m76.5 421h89.996094v76h-89.996094zm0 0" fill="#bc5f19"/><path d="m166.496094 512c-8.289063 0-15-6.710938-15-15v-391.992188c0-8.289062 6.710937-15 15-15 8.292968 0 15 6.710938 15 15v391.992188c0 8.289062-6.707032 15-15 15zm0 0" fill="#3e5959"/><path d="m256.496094 512c-8.292969 0-15-6.710938-15-15v-391.992188c0-8.289062 6.707031-15 15-15 8.289062 0 14.996094 6.710938 14.996094 15v391.992188c0 8.289062-6.707032 15-14.996094 15zm0 0" fill="#384949"/><path d="m467.488281 421c-24.8125 0-44.996093-20.183594-44.996093-44.996094 0-8.292968 6.707031-15 15-15 8.289062 0 14.996093 6.707032 14.996093 15 0 8.273438 6.726563 15 15 15 8.277344 0 15-6.726562 15-15 0-8.277344-6.722656-15-15-15-8.289062 0-15-6.710937-15-15v-30c0-8.289062 6.710938-15 15-15 8.292969 0 15 6.710938 15 15v17.5625c17.460938 6.195313 30 22.878906 30 42.4375 0 24.8125-20.183593 44.996094-45 44.996094zm0 0" fill="#a8d3d8"/><path d="m266.992188 94.511719-55.496094-55.5-34.5-34.5c-4.199219-4.5000002-10.5-5.699219-16.199219-3.300781-5.699219 2.402343-9.300781 7.800781-9.300781 13.800781v89.996093c0 8.402344 6.597656 15 15 15h90c6 0 11.398437-3.597656 13.800781-9.296874 2.394531-5.703126 1.195313-12.003907-3.304687-16.199219zm-85.496094-4.503907v-38.695312l38.699218 38.695312zm0 0" fill="#3e5959"/><path d="m211.496094 349.003906-18 12 18 12 53.398437 35.398438c4.199219 3 6.597657 7.5 6.597657 12.597656 0 5.101562-2.398438 9.601562-6.597657 12.601562l-53.398437 35.699219-36.597656 25.296875c-2.703126 1.5-5.402344 2.402344-8.402344 2.402344-4.796875 0-9.597656-2.402344-12.597656-6.597656-4.5-6.902344-2.703126-17.203125 4.199218-22l53.398438-35.398438 18-12.003906-18-12-53.398438-35.398438c-4.199218-3-6.601562-7.5-6.601562-12.597656 0-5.101562 2.402344-9.601562 6.601562-12.597656l53.398438-35.402344 18-12-18-12-53.398438-35.398437c-4.199218-3-6.601562-7.5-6.601562-12.601563 0-5.097656 2.402344-10.597656 6.601562-13.597656l53.398438-35.398438 16.199218-10.800781-16.199218-9-52.5-29.699219c-7.199219-4.199218-9.597656-13.199218-5.699219-20.398437 4.199219-7.199219 13.199219-9.902344 20.699219-5.699219l37.5 20.996094 52.5 29.398438c4.5 2.703124 7.199218 7.5 7.5 12.601562.300781 5.101562-2.402344 10.199219-6.601563 13.199219l-53.398437 35.398437-18 13 18 12 53.398437 35.402344c4.199219 2.996094 6.601563 7.5 6.601563 12.597656s-2.402344 9.597656-6.601563 12.597656zm0 0" fill="#3e5959"/><path d="m91.496094 105.007812h-60.996094l-30 15v75c0 8.289063 6.707031 15 15 15h90.996094c8.292968 0 15-6.710937 15-15v-75zm0 0" fill="#ff6c6c"/><g fill="#384949"><path d="m270.292969 110.707031c-2.398438 5.703125-7.796875 9.300781-13.800781 9.300781h-44.996094v-30h8.695312l-8.695312-8.699218v-42.296875l55.496094 55.5c4.5 4.195312 5.699218 10.496093 3.300781 16.195312zm0 0"/><path d="m271.492188 421c0 5.101562-2.398438 9.601562-6.597657 12.601562l-53.398437 35.699219v-36.300781l17.996094-12-17.996094-12v-36l53.398437 35.402344c4.199219 3 6.597657 7.5 6.597657 12.597656zm0 0"/><path d="m271.492188 301.003906c0 5.097656-2.398438 9.601563-6.597657 12.597656l-53.398437 35.402344v-36l17.996094-12-17.996094-12v-36l53.398437 35.398438c4.199219 3.003906 6.597657 7.503906 6.597657 12.601562zm0 0"/><path d="m271.492188 179.40625c.300781 5.101562-2.398438 10.203125-6.597657 13.199219l-53.398437 35.402343v-36l16.199218-10.800781-16.199218-9v-34.796875l52.5 29.398438c4.5 2.699218 7.195312 7.5 7.496094 12.597656zm0 0"/></g><path d="m512.488281 497c0 8.402344-6.597656 15-15 15h-481.988281c-8.402344 0-15-6.597656-15-15s6.597656-15 15-15h481.988281c8.402344 0 15 6.597656 15 15zm0 0" fill="#fdbf00"/><path d="m512.488281 497c0 8.402344-6.597656 15-15 15h-285.992187v-30h285.992187c8.402344 0 15 6.597656 15 15zm0 0" fill="#ff9f00"/><path d="m470.488281 60.3125-258.992187-51.601562-42-8.398438c-1.5-.3007812-6.601563 0-8.699219.898438l-150.996094 60c-5.699219 2.097656-9.300781 7.796874-9.300781 13.800781v44.996093h481.988281v-44.996093c0-7.203125-5.097656-13.203125-12-14.699219zm-18 29.695312h-421.988281v-4.796874l137.496094-54.601563 43.5 8.699219 240.992187 48zm0 0" fill="#3e5959"/><path d="m482.488281 75.007812v45h-270.992187v-30h240.992187v-2.699218l-240.992187-48v-30.597656l258.992187 51.601562c6.902344 1.496094 12 7.496094 12 14.695312zm0 0" fill="#384949"/><path d="m497.488281 331.003906h-59.996093c-8.292969 0-15-6.710937-15-15v-60c0-8.289062 6.707031-15 15-15h59.996093c8.292969 0 15 6.710938 15 15v60c0 8.289063-6.707031 15-15 15zm0 0" fill="#3e5959"/></svg>