<svg id="Layer_3" enable-background="new 0 0 64 64" height="512" viewBox="0 0 64 64" width="512" xmlns="http://www.w3.org/2000/svg"><path d="m41 27v-4c0-3.314-2.686-6-6-6h-6c-3.314 0-6 2.686-6 6v4z" fill="#f5b953"/><path d="m35 17h-6c-3.314 0-6 2.686-6 6v.622c1.268.243 2.609.378 4 .378 5.47 0 10.195-2.021 12.498-4.961-1.099-1.248-2.704-2.039-4.498-2.039z" fill="#f9d18b"/><path d="m29 17v1c0 1.657 1.343 3 3 3 1.657 0 3-1.343 3-3v-1" fill="#db9b7c"/><path d="m32 5c-2.761 0-5 2.239-5 5v2c0 2.761 2.239 5 5 5 2.761 0 5-2.239 5-5v-2c0-2.761-2.239-5-5-5z" fill="#efbe9a"/><path d="m26 57v-4c0-3.314-2.686-6-6-6h-6c-3.314 0-6 2.686-6 6v4z" fill="#669e4f"/><path d="m20 47h-6c-3.314 0-6 2.686-6 6v.622c1.268.243 2.609.378 4 .378 5.47 0 10.195-2.021 12.498-4.961-1.099-1.248-2.704-2.039-4.498-2.039z" fill="#78b75b"/><path d="m14 47v1c0 1.657 1.343 3 3 3 1.657 0 3-1.343 3-3v-1" fill="#db9b7c"/><path d="m17 35c-2.761 0-5 2.239-5 5v2c0 2.761 2.239 5 5 5 2.761 0 5-2.239 5-5v-2c0-2.761-2.239-5-5-5z" fill="#efbe9a"/><path d="m56 57v-4c0-3.314-2.686-6-6-6h-6c-3.314 0-6 2.686-6 6v4z" fill="#2d4d83"/><path d="m50 47h-6c-3.314 0-6 2.686-6 6v.622c1.268.243 2.609.378 4 .378 5.47 0 10.195-2.021 12.498-4.961-1.099-1.248-2.704-2.039-4.498-2.039z" fill="#4472b2"/><path d="m44 47v1c0 1.657 1.343 3 3 3 1.657 0 3-1.343 3-3v-1" fill="#db9b7c"/><path d="m47 35c-2.761 0-5 2.239-5 5v2c0 2.761 2.239 5 5 5 2.761 0 5-2.239 5-5v-2c0-2.761-2.239-5-5-5z" fill="#efbe9a"/><path d="m62.089 41.667-1.886.666c.529 1.495.797 3.065.797 4.667 0 7.72-6.28 14-14 14s-14-6.28-14-14 6.28-14 14-14c1.947 0 3.831.392 5.6 1.164l.801-1.832c-2.023-.884-4.176-1.332-6.401-1.332-6.882 0-12.746 4.376-15 10.485-2.254-6.109-8.118-10.485-15-10.485-1.982 0-3.919.359-5.756 1.067l.72 1.865c1.606-.619 3.301-.932 5.036-.932 7.72 0 14 6.28 14 14s-6.28 14-14 14-14-6.28-14-14c0-1.947.392-3.832 1.165-5.6l-1.833-.8c-.884 2.022-1.332 4.175-1.332 6.4 0 8.822 7.178 16 16 16 6.882 0 12.746-4.376 15-10.485 2.254 6.109 8.118 10.485 15 10.485 8.822 0 16-7.178 16-16 0-1.83-.307-3.624-.911-5.333z" fill="#4d5d7a"/><path d="m32 33c8.822 0 16-7.178 16-16 0-1.83-.307-3.624-.911-5.333l-1.886.666c.529 1.495.797 3.065.797 4.667 0 7.72-6.28 14-14 14s-14-6.28-14-14 6.28-14 14-14c1.947 0 3.831.392 5.6 1.164l.8-1.832c-2.022-.884-4.175-1.332-6.4-1.332-8.822 0-16 7.178-16 16s7.178 16 16 16z" fill="#4d5d7a"/><path d="m42 8h2v2h2v-7c0-.553-.448-1-1-1h-4c-.552 0-1 .447-1 1v7h2zm2-4v2h-2v-2z" fill="#f5b953"/><path d="m56 40h4v-2h-3v-4h3v-2h-4c-.552 0-1 .447-1 1v6c0 .553.448 1 1 1z" fill="#2d4d83"/><path d="m5 40h2.5c1.378 0 2.5-1.121 2.5-2.5 0-.565-.195-1.081-.513-1.5.318-.419.513-.935.513-1.5 0-1.379-1.122-2.5-2.5-2.5h-2.5c-.552 0-1 .447-1 1v3 3c0 .553.448 1 1 1zm2.5-2h-1.5v-1h1.5c.276 0 .5.225.5.5s-.224.5-.5.5zm-1.5-4h1.5c.276 0 .5.225.5.5s-.224.5-.5.5h-1.5z" fill="#669e4f"/></svg>