<svg height="512pt" viewBox="-1 0 512 512" width="512pt" xmlns="http://www.w3.org/2000/svg"><path d="m325.453125 433.960938c-3.253906 0-6.28125-2.070313-7.34375-5.332032-1.324219-4.058594.890625-8.417968 4.949219-9.742187 33.535156-10.941407 62.921875-31.40625 84.988281-59.183594 2.65625-3.339844 7.515625-3.898437 10.855469-1.242187 3.339844 2.652343 3.898437 7.511718 1.242187 10.855468-23.957031 30.15625-55.871093 52.375-92.296875 64.261719-.792968.257813-1.601562.382813-2.394531.382813zm-245.53125-183.449219c-.070313 0-.144531 0-.214844 0-4.265625-.117188-7.628906-3.671875-7.511719-7.9375.667969-24.425781 5.804688-48.152344 15.261719-70.515625 1.664063-3.929688 6.199219-5.765625 10.128907-4.105469 3.929687 1.664063 5.765624 6.195313 4.105468 10.125-8.707031 20.582031-13.433594 42.425781-14.050781 64.917969-.113281 4.195312-3.550781 7.515625-7.71875 7.515625zm327.707031-118.957031c-2.136718 0-4.261718-.882813-5.785156-2.605469-30.53125-34.480469-72.496094-55.746094-118.160156-59.878907-5.417969-.492187-10.941406-.742187-16.421875-.742187-4.265625 0-7.726563-3.457031-7.726563-7.722656 0-4.269531 3.460938-7.726563 7.726563-7.726563 5.941406 0 11.9375.269532 17.8125.800782 49.605469 4.492187 95.183593 27.585937 128.335937 65.027343 2.828125 3.191407 2.53125 8.074219-.664062 10.90625-1.46875 1.300781-3.296875 1.941407-5.117188 1.941407zm0 0" fill="#93c0d1"/><path d="m185.441406 447.894531h-47.285156s-.378906 32.90625-16.597656 53.375c-3.433594 4.335938-.246094 10.730469 5.285156 10.730469h69.910156c5.53125 0 8.71875-6.394531 5.285156-10.730469-16.21875-20.46875-16.597656-53.375-16.597656-53.375zm0 0" fill="#bddff4"/><path d="m196.753906 512h-17.042968c5.539062 0 8.722656-6.394531 5.289062-10.734375-16.21875-20.460937-16.597656-53.371094-16.597656-53.371094h17.035156s.382812 32.910157 16.597656 53.371094c3.433594 4.339844.25 10.734375-5.28125 10.734375zm0 0" fill="#adc9e2"/><path d="m323.59375 254.335938v199.253906c0 3.671875-2.972656 6.640625-6.644531 6.640625h-310.304688c-3.667969 0-6.644531-2.96875-6.644531-6.640625v-199.253906c0-5.503907 4.464844-9.96875 9.964844-9.96875h303.664062c5.503906 0 9.964844 4.464843 9.964844 9.96875zm0 0" fill="#fdb659"/><path d="m323.59375 254.332031v199.257813c0 3.675781-2.972656 6.644531-6.644531 6.644531h-20.964844c3.667969 0 6.644531-2.96875 6.644531-6.644531v-199.257813c0-5.496093-4.464844-9.960937-9.96875-9.960937h20.96875c5.503906 0 9.964844 4.464844 9.964844 9.960937zm0 0" fill="#fd9e28"/><path d="m323.59375 420.558594v33.03125c0 3.675781-2.972656 6.644531-6.644531 6.644531h-310.304688c-3.667969 0-6.644531-2.96875-6.644531-6.644531v-33.03125zm0 0" fill="#4e7693"/><path d="m323.59375 420.558594v33.03125c0 3.675781-2.972656 6.644531-6.644531 6.644531h-20.964844c3.667969 0 6.644531-2.96875 6.644531-6.644531v-33.03125zm0 0" fill="#38627c"/><path d="m167.695312 448.121094h-11.796874c-4.265626 0-7.726563-3.457032-7.726563-7.726563 0-4.265625 3.460937-7.722656 7.726563-7.722656h11.796874c4.265626 0 7.726563 3.457031 7.726563 7.722656 0 4.269531-3.460937 7.726563-7.726563 7.726563zm0 0" fill="#38627c"/><path d="m509.710938 136.605469v215.535156c0 5.957031-4.832032 10.792969-10.792969 10.792969h-120.0625c-5.960938 0-10.789063-4.835938-10.789063-10.792969v-215.535156c0-5.957031 4.828125-10.792969 10.789063-10.792969h120.0625c5.960937 0 10.792969 4.835938 10.792969 10.792969zm0 0" fill="#43a3f9"/><path d="m509.707031 136.605469v215.535156c0 5.957031-4.828125 10.792969-10.792969 10.792969h-17.917968c5.964844 0 10.792968-4.835938 10.792968-10.792969v-215.535156c0-5.960938-4.828124-10.792969-10.792968-10.792969h17.917968c5.964844 0 10.792969 4.832031 10.792969 10.792969zm0 0" fill="#1685fb"/><path d="m509.707031 136.605469v17.609375h-141.640625v-17.609375c0-5.960938 4.828125-10.792969 10.792969-10.792969h120.054687c5.964844 0 10.792969 4.832031 10.792969 10.792969zm0 0" fill="#e3f4ff"/><path d="m509.707031 136.605469v17.609375h-17.917969v-17.609375c0-5.960938-4.828124-10.792969-10.792968-10.792969h17.917968c5.964844 0 10.792969 4.832031 10.792969 10.792969zm0 0" fill="#bddff4"/><path d="m509.707031 334.863281v17.277344c0 5.957031-4.828125 10.792969-10.792969 10.792969h-120.054687c-5.964844 0-10.792969-4.835938-10.792969-10.792969v-17.277344zm0 0" fill="#e3f4ff"/><path d="m491.789062 334.863281h17.917969v17.277344c0 5.957031-4.828125 10.792969-10.792969 10.792969h-17.917968c5.964844 0 10.792968-4.835938 10.792968-10.792969zm0 0" fill="#bddff4"/><path d="m272.371094 173.84375h-208.628906c-5.765626 0-10.445313-4.671875-10.445313-10.445312v-152.953126c0-5.769531 4.679687-10.445312 10.445313-10.445312h208.625c5.769531 0 10.449218 4.675781 10.449218 10.445312v152.953126c0 5.773437-4.679687 10.445312-10.445312 10.445312zm0 0" fill="#21c69c"/><path d="m272.371094 173.84375h-17.046875v-173.84375h17.042969c5.769531 0 10.449218 4.675781 10.449218 10.445312v152.953126c0 5.773437-4.679687 10.445312-10.445312 10.445312zm0 0" fill="#bddff4"/><path d="m80.464844 173.84375h-16.722656c-5.765626 0-10.445313-4.671875-10.445313-10.445312v-152.953126c0-5.769531 4.679687-10.445312 10.445313-10.445312h16.722656zm0 0" fill="#e3f4ff"/><path d="m80.464844 156.5v17.34375h-16.722656c-5.765626 0-10.445313-4.671875-10.445313-10.445312v-17.34375c0 5.769531 4.679687 10.445312 10.445313 10.445312zm0 0" fill="#bddff4"/><path d="m168.054688 52.878906c-19.769532 0-35.855469 16.082032-35.855469 35.855469 0 17.351563 12.390625 31.859375 28.785156 35.152344-1.445313 2.890625-.96875 6.5 1.445313 8.914062 1.507812 1.507813 3.484374 2.261719 5.464843 2.261719 1.976563 0 3.953125-.753906 5.460938-2.261719l10.476562-10.476562c3.015625-3.015625 3.015625-7.90625 0-10.925781l-10.476562-10.472657c-3.015625-3.019531-7.90625-3.019531-10.925781-.003906-1.816407 1.816406-2.53125 4.304687-2.164063 6.660156-7.394531-3.066406-12.613281-10.355469-12.613281-18.851562 0-11.25 9.152344-20.402344 20.402344-20.402344s20.402343 9.152344 20.402343 20.402344c0 4.269531 3.460938 7.726562 7.726563 7.726562 4.269531 0 7.726562-3.457031 7.726562-7.726562 0-19.769531-16.082031-35.851563-35.855468-35.851563zm0 0" fill="#12967e"/><path d="m438.886719 206.929688c-19.773438 0-35.855469 16.085937-35.855469 35.855468 0 17.351563 12.386719 31.859375 28.785156 35.152344-1.449218 2.890625-.96875 6.5 1.441406 8.914062 1.511719 1.507813 3.488282 2.261719 5.464844 2.261719 1.976563 0 3.957032-.753906 5.464844-2.261719l10.472656-10.472656c1.449219-1.449218 2.265625-3.414062 2.265625-5.464844 0-2.050781-.816406-4.015624-2.265625-5.464843l-10.472656-10.472657c-3.015625-3.015624-7.910156-3.015624-10.929688 0-1.8125 1.8125-2.527343 4.304688-2.160156 6.65625-7.398437-3.066406-12.613281-10.355468-12.613281-18.851562 0-11.246094 9.152344-20.398438 20.402344-20.398438s20.402343 9.152344 20.402343 20.398438c0 4.269531 3.457032 7.726562 7.726563 7.726562 4.265625 0 7.722656-3.457031 7.722656-7.726562.003907-19.765625-16.082031-35.851562-35.851562-35.851562zm0 0" fill="#1685fb"/><path d="m161.796875 293.773438c-19.773437 0-35.855469 16.082031-35.855469 35.855468 0 17.347656 12.386719 31.859375 28.785156 35.152344-1.449218 2.890625-.96875 6.5 1.445313 8.914062 1.507813 1.507813 3.484375 2.265626 5.460937 2.265626 1.976563 0 3.957032-.757813 5.464844-2.265626l10.472656-10.476562c3.019532-3.015625 3.019532-7.90625 0-10.925781l-10.472656-10.472657c-3.019531-3.015624-7.910156-3.015624-10.929687 0-1.8125 1.8125-2.527344 4.300782-2.160157 6.65625-7.394531-3.066406-12.613281-10.359374-12.613281-18.847656 0-11.253906 9.152344-20.40625 20.402344-20.40625s20.402344 9.15625 20.402344 20.40625c0 4.265625 3.457031 7.722656 7.726562 7.722656 4.265625 0 7.722657-3.457031 7.722657-7.722656.003906-19.773437-16.082032-35.855468-35.851563-35.855468zm0 0" fill="#fd8724"/></svg>