<?xml version="1.0" encoding="UTF-8"?>
<svg xmlns="http://www.w3.org/2000/svg" xmlns:xlink="http://www.w3.org/1999/xlink" width="512" height="512" viewBox="0 0 58 46" version="1.1"><!-- Generator: Sketch 51.3 (57544) - http://www.bohemiancoding.com/sketch --><title>041 - Drill</title><desc>Created with Sketch.</desc><defs/><g id="Page-1" stroke="none" stroke-width="1" fill="none" fill-rule="evenodd"><g id="041---Drill" fill-rule="nonzero"><path d="M47.65,10 L56,10 C57.1011688,9.99183278 57.9918328,9.10116878 58,8 C57.9967052,6.89679813 57.1032019,6.0032948 56,6 L47.65,6" id="Shape" fill="#2C2F38"/><path d="M48,8 C48.0018379,8.68206025 47.8833562,9.35909871 47.65,10 C46.8080521,12.3985166 44.5419973,14.0028032 42,14 L40,8 L42,2 C44.5419973,1.99719683 46.8080521,3.60148341 47.65,6 C47.8833562,6.64090129 48.0018379,7.31793975 48,8 Z" id="Shape" fill="#95A5A5"/><rect id="Rectangle-path" fill="#2C3E50" x="32" y="2" width="10" height="12"/><path d="M22,15 L22,20 C21.9967052,21.1032019 21.1032019,21.9967052 20,22 L18,22 L16,15 L22,15 Z" id="Shape" fill="#802F34"/><path d="M18,15 L18,29 L17,32 C14.79,32 11,30.21 11,28 L11,15 L18,15 Z" id="Shape" fill="#C03A2B"/><path d="M29,37 L29,43 C29,44.6568542 27.6568542,46 26,46 L6,46 C4.34314575,46 3,44.6568542 3,43 L3,37.71 C2.99903042,37.244293 3.10870811,36.7850177 3.32,36.37 L6,31 L13,32 C13.38,32.38 17.47,31 18,31 L29,37 Z" id="Shape" fill="#35495E"/><path d="M29,37 L12.83,37 C12.2970877,36.9997587 11.7861733,36.7874773 11.41,36.41 L6,31 L6,15 L13,15 L13,25 C13,27.209139 14.790861,29 17,29 L18,29 C18.0032948,30.1032019 18.8967981,30.9967052 20,31 L22.17,31 C22.7029123,31.0002413 23.2138267,31.2125227 23.59,31.59 L29,37 Z" id="Shape" fill="#E64C3C"/><path d="M36,2 L36,14 C35.9967052,15.1032019 35.1032019,15.9967052 34,16 L4,16 C1.790861,16 2.22044605e-16,14.209139 0,12 L0,4 C-2.22044605e-16,1.790861 1.790861,0 4,0 L34,0 C35.1032019,0.00329480111 35.9967052,0.896798134 36,2 Z" id="Shape" fill="#35495E"/><path d="M36,3 L36,5 L33,5 C32.4477153,5 32,4.55228475 32,4 C32,3.44771525 32.4477153,3 33,3 L36,3 Z" id="Shape" fill="#95A5A5"/><path d="M36,7 L36,9 L33,9 C32.4477153,9 32,8.55228475 32,8 C32,7.44771525 32.4477153,7 33,7 L36,7 Z" id="Shape" fill="#95A5A5"/><path d="M36,13 L33,13 C32.4477153,13 32,12.5522847 32,12 C32,11.4477153 32.4477153,11 33,11 L36,11 L36,13 Z" id="Shape" fill="#95A5A5"/><path d="M9,5 L5,5 C4.44771525,5 4,4.55228475 4,4 C4,3.44771525 4.44771525,3 5,3 L9,3 C9.55228475,3 10,3.44771525 10,4 C10,4.55228475 9.55228475,5 9,5 Z" id="Shape" fill="#2C2F38"/><path d="M9,9 L5,9 C4.44771525,9 4,8.55228475 4,8 C4,7.44771525 4.44771525,7 5,7 L9,7 C9.55228475,7 10,7.44771525 10,8 C10,8.55228475 9.55228475,9 9,9 Z" id="Shape" fill="#2C2F38"/></g></g></svg>
