<svg xmlns="http://www.w3.org/2000/svg" class="" id="FxSymbol0-0d9" role="presentation" viewBox="0 0 50 50" focusable="false" xmlns:xlink="http://www.w3.org/1999/xlink" xmlns:svg="http://www.w3.org/2000/svg">
<g>
<title/>
<path class="msportalfx-svg-c15" fill="#59b4d9" d="M 38.9 25.5 l -13 6 c -0.6 0.3 -1.2 0.3 -1.8 0 l -13.1 -6 v 12.4 c 0 3.7 6.2 6.6 13.9 6.6 s 13.9 -3 13.9 -6.6 V 25.5 Z"/>
<path class="msportalfx-svg-c15" fill="#59b4d9" d="M 43.9 27.1 c -0.5 -2.5 -2.1 -4.5 -4.5 -5.5 l -11.9 -5 c -0.3 -1.5 -5.1 -1.4 -5.1 0.2 c 0 1 2 1.5 3.6 1.2 l 12.7 5.4 c 1.7 0.7 2.9 2.2 3.3 4 c -0.5 0.3 -0.8 0.9 -0.8 1.5 v 5.3 c 0 1 0.8 1.9 1.9 1.9 s 1.9 -0.8 1.9 -1.9 v -5.3 c 0 -0.8 -0.4 -1.5 -1.1 -1.8 Z"/>
<path class="msportalfx-svg-c15" fill="#59b4d9" d="M 48.9 16.8 L 25.8 6.2 c -0.6 -0.3 -1.2 -0.3 -1.8 0 L 1.1 16.8 c -0.8 0.4 -0.8 1.5 0 1.9 l 23.1 10.6 c 0.6 0.3 1.2 0.3 1.8 0 l 11.2 -5.2 l -10.8 -4.8 c -0.4 0.1 -0.9 0.1 -1.4 0.1 c -3.1 0 -5.5 -1.2 -5.5 -2.6 s 2.5 -2.6 5.5 -2.6 s 5.6 0.9 5.7 2.2 l 11.9 5.1 l 6.3 -2.9 c 0.8 -0.3 0.8 -1.4 0 -1.8 Z"/>
</g>
</svg>