<svg id="Capa_1" enable-background="new 0 0 512 512" height="512" viewBox="0 0 512 512" width="512" xmlns="http://www.w3.org/2000/svg"><g><path d="m501 256c0 135.31-109.69 245-245 245s-245-109.69-245-245 109.69-245 245-245 245 109.69 245 245z" fill="#0ab59e"/><path d="m454 198c0 109.352-88.648 198-198 198s-198-88.648-198-198c0-60.302 26.958-114.307 69.478-150.624 37.363-23.066 81.388-36.376 128.522-36.376s91.159 13.31 128.522 36.376c42.52 36.317 69.478 90.322 69.478 150.624z" fill="#0ed1b2"/><path d="m302 260c-19.33 0-35-15.67-35-35s15.67-35 35-35 35 15.67 35 35-15.67 35-35 35zm-35-225c0 19.33 15.67 35 35 35s35-15.67 35-35c0-3.803-.607-7.464-1.728-10.892-18.889-6.455-38.818-10.667-59.469-12.319-5.477 6.177-8.803 14.306-8.803 23.211zm-72 75c-19.33 0-35 15.67-35 35s15.67 35 35 35 35-15.67 35-35-15.67-35-35-35z" fill="#5de0c3"/><path d="m418.5 216.75v42.967c0 13.57-9.724 24.988-23.121 27.149l-270 43.548c-1.464.236-2.935.353-4.395.353-6.485 0-12.798-2.293-17.814-6.565-6.146-5.233-9.67-12.865-9.67-20.937v-36.515c0-4.142 3.358-7.5 7.5-7.5s7.5 3.358 7.5 7.5v36.516c0 3.669 1.602 7.138 4.396 9.517s6.473 3.409 10.095 2.824l270-43.548c6.09-.982 10.51-6.172 10.51-12.34v-42.969c0-4.142 3.358-7.5 7.5-7.5s7.499 3.358 7.499 7.5z" fill="#fff5f5"/><path d="m21.326 171.326c0-48.973 39.701-88.674 88.674-88.674s88.674 39.701 88.674 88.674-39.701 88.674-88.674 88.674-88.674-39.701-88.674-88.674zm292-40.657c0-48.973 39.701-88.674 88.674-88.674s88.674 39.701 88.674 88.674-39.701 88.674-88.674 88.674-88.674-39.701-88.674-88.674z" fill="#fda800"/><path d="m173.338 171.326c0 27.408-17.408 50.749-41.771 59.571 2.438-6.732 3.768-13.994 3.768-21.567 0-34.981-28.357-63.338-63.338-63.338-7.573 0-14.836 1.33-21.568 3.768 8.822-24.362 32.163-41.771 59.571-41.771 34.981-.001 63.338 28.356 63.338 63.337zm228.662-103.995c-27.407 0-50.748 17.408-59.571 41.771 6.732-2.438 13.994-3.768 21.568-3.768 34.981 0 63.338 28.357 63.338 63.338 0 7.573-1.33 14.836-3.768 21.567 24.362-8.822 41.771-32.163 41.771-59.57 0-34.981-28.357-63.338-63.338-63.338z" fill="#fdbf43"/><path d="m402 58.948c-39.548 0-71.721 32.174-71.721 71.721s32.174 71.721 71.721 71.721c39.548 0 71.721-32.174 71.721-71.721s-32.173-71.721-71.721-71.721zm0 133.011c-33.795 0-61.289-27.494-61.289-61.289s27.494-61.29 61.289-61.29 61.289 27.494 61.289 61.289-27.494 61.29-61.289 61.29zm11.047-66.568c-1.117-.395-2.256-.805-3.396-1.231v-19.395c2.505.792 3.986 2.033 4.141 2.168 2.12 1.912 5.386 1.766 7.328-.338 1.953-2.117 1.82-5.417-.298-7.371-.253-.233-4.387-3.96-11.171-5.176v-3.62c0-2.881-2.335-5.216-5.216-5.216s-5.216 2.335-5.216 5.216v3.994c-.478.117-.962.248-1.452.396-6.623 1.995-11.57 7.655-12.912 14.77-1.227 6.513.876 12.807 5.491 16.426 2.283 1.79 5.084 3.43 8.872 5.145v25.223c-2.979-.326-5.076-1.21-8.474-3.434-2.412-1.576-5.644-.9-7.22 1.509-1.578 2.411-.902 5.644 1.509 7.221 5.543 3.627 9.403 4.824 14.185 5.177v4.059c0 2.881 2.335 5.216 5.216 5.216s5.216-2.335 5.216-5.216v-4.536c9.561-2.239 15.694-10.326 17.034-18.298 1.724-10.247-3.63-19.152-13.637-22.689zm-16.263-7.587c-1.514-1.188-2.172-3.655-1.677-6.285.405-2.145 1.69-4.67 4.112-6.047v13.975c-.898-.533-1.718-1.081-2.435-1.643zm19.613 28.544c-.59 3.509-2.878 7.222-6.746 9.049v-20.141c7.532 2.709 7.069 9.171 6.746 11.092zm-306.397-46.743c-39.548 0-71.721 32.174-71.721 71.721s32.173 71.722 71.721 71.722 71.721-32.174 71.721-71.721-32.173-71.722-71.721-71.722zm0 133.01c-33.795 0-61.289-27.494-61.289-61.289s27.494-61.289 61.289-61.289 61.289 27.494 61.289 61.289-27.494 61.289-61.289 61.289zm18.584-65.271c2.896-3.424 4.645-7.849 4.645-12.675 0-8.694-5.674-16.086-13.514-18.671v-4.576c0-2.88-2.335-5.216-5.216-5.216s-5.216 2.336-5.216 5.216v3.594h-3.327v-3.594c0-2.88-2.335-5.216-5.216-5.216s-5.216 2.336-5.216 5.216v3.594h-.172c-2.881 0-5.216 2.336-5.216 5.216v62.74c0 1.388.553 2.718 1.536 3.697.977.973 2.3 1.52 3.68 1.52h.023s.051 0 .149-.001v3.04c0 2.88 2.335 5.216 5.216 5.216s5.216-2.335 5.216-5.216v-3.083c1.115-.004 2.238-.008 3.327-.012v3.095c0 2.88 2.335 5.216 5.216 5.216s5.216-2.335 5.216-5.216v-3.312c10.796-1.449 19.148-10.721 19.148-21.906 0-7.84-4.105-14.741-10.279-18.666zm-5.787-12.674c0 5.084-4.136 9.22-9.221 9.22-1.348 0-3.895.008-6.668.017h-6.341v-18.458h13.009c5.085 0 9.221 4.136 9.221 9.221zm-6.039 43.013c-2.952 0-10.853.031-16.191.053v-23.371c1.949-.008 4.206-.017 6.333-.025h9.858c6.436 0 11.672 5.236 11.672 11.672s-5.236 11.671-11.672 11.671z" fill="#e27500"/><path d="m331 480h-150l60-180h30z" fill="#172a7d"/><path d="m271 300 60 180h-125.509l60-180z" fill="#1f3595"/><path d="m286 300c0 16.569-13.431 30-30 30s-30-13.431-30-30 13.431-30 30-30 30 13.431 30 30zm46 155c0-8.284-6.716-15-15-15h-122c-8.284 0-15 6.716-15 15 0 8.284 6.716 15 15 15h122c8.284 0 15-6.716 15-15z" fill="#2740af"/><path d="m278.333 294.667c0 9.389-7.611 17-17 17s-17-7.611-17-17 7.611-17 17-17 17 7.611 17 17zm53.667 160.333c0-8.284-6.716-15-15-15h-96.509c-8.284 0-15 6.716-15 15 0 8.284 6.716 15 15 15h96.509c8.284 0 15-6.716 15-15z" fill="#314dc8"/><path d="m165 286.75h-110c-30.376 0-55-24.625-55-55 0-2.762 2.239-5 5-5h210c2.761 0 5 2.238 5 5 0 30.375-24.624 55-55 55zm166 173.25h-150c-12.079 0-22.158 8.567-24.491 19.957 30.402 13.526 64.069 21.043 99.491 21.043s69.089-7.517 99.491-21.043c-2.333-11.39-12.412-19.957-24.491-19.957zm176-283.25h-210c-2.761 0-5 2.238-5 5 0 30.375 24.624 55 55 55h110c30.376 0 55-24.625 55-55 0-2.762-2.239-5-5-5z" fill="#172a7d"/><path d="m457 236.75h-72c-30.376 0-55-24.624-55-55 0-2.761 2.239-5 5-5h172c2.761 0 5 2.239 5 5 0 30.376-24.624 55-55 55zm-237-5c0-2.761-2.239-5-5-5h-170c-2.761 0-5 2.239-5 5 0 30.376 24.624 55 55 55h70c30.376 0 55-24.624 55-55z" fill="#2740af"/></g></svg>