<svg id="flat" height="512" viewBox="0 0 512 512" width="512" xmlns="http://www.w3.org/2000/svg"><path d="m443.15723 234.22461-35.15723-98.43897-35.15723 98.439-15.06738-5.38135 42.69043-119.53418a8.00046 8.00046 0 0 1 15.06836 0l42.69043 119.53418z" fill="#cf8300"/><path d="m139.15723 234.22461-35.15723-98.43897-35.15723 98.439-15.06738-5.38135 42.69043-119.53421a8.00046 8.00046 0 0 1 15.06836 0l42.69043 119.53418z" fill="#cf8300"/><path d="m306.419 83.162-26.419 52.838h-48l-26.419-52.838z" fill="#eda600"/><g fill="#f6bb00"><path d="m40 224h128v8.00006a63.99994 63.99994 0 0 1 -63.99994 63.99994h-.00012a63.99994 63.99994 0 0 1 -63.99994-63.99994z"/><path d="m283.3137 99.3137a43.31367 43.31367 0 0 0 30.62741 12.6863h142.05889v-24l-122.768-7.22165a34.86279 34.86279 0 0 1 -22.60452-10.15092 77.25476 77.25476 0 0 0 -54.62748-22.62743 77.25476 77.25476 0 0 0 -54.62736 22.62739 34.86279 34.86279 0 0 1 -22.60464 10.15096l-122.768 7.22165v24h142.05889a43.31367 43.31367 0 0 0 30.62739-12.68628 38.62739 38.62739 0 0 1 27.31372-11.31372 38.62739 38.62739 0 0 1 27.3137 11.3137z"/><path d="m344 224h128v8.00006a63.99994 63.99994 0 0 1 -63.99994 63.99994h-.00012a63.99994 63.99994 0 0 1 -63.99994-63.99994z"/></g><path d="m232 136h48v232h-48z" fill="#de9400"/><path d="m312 400h-112a32 32 0 0 1 32-32h48.00009a31.99994 31.99994 0 0 1 31.99991 31.99994z" fill="#f6bb00"/><path d="m416 328h72v96h-72z" fill="#548aff"/><path d="m416 344h-22.05332a81.94183 81.94183 0 0 0 -57.948 24.00655l-31.99607-.00655a16 16 0 0 0 -16.00261 16 16 16 0 0 0 15.99736 16h.00528l-.00264.00263-47.99972-.002a15.9997 15.9997 0 0 0 -16.00028 15.99965 15.9997 15.9997 0 0 0 15.99969 15.99972h72.00031a119.99989 119.99989 0 0 0 72-24h16z" fill="#f5c99d"/><path d="m112 352 24.79808 10.62775a176.219 176.219 0 0 1 55.20322 37.3788l31.99609-.00655a16 16 0 0 1 16.00261 16 16 16 0 0 1 -15.99736 16h-.00528l.00264.00263 47.99972-.002a15.9997 15.9997 0 0 1 16.00028 15.99965 15.9997 15.9997 0 0 1 -15.99969 15.99972h-80.90414a88 88 0 0 1 -73.22043-39.18638l-5.87574-8.81362z" fill="#f5c99d"/><path d="m304.001 375.99756 31.99609.00635h.00147a8.00153 8.00153 0 0 0 5.65771-2.34375 73.45635 73.45635 0 0 1 52.29053-21.6626h22.0532v-16h-22.05322a89.30282 89.30282 0 0 0 -61.17432 24.00586l-28.76855-.00586h-.00391a23.99175 23.99175 0 0 0 -22.623 32.00268l-25.37646.00025a23.90153 23.90153 0 0 0 -15.99072 6.12231 23.82294 23.82294 0 0 0 -16.00933-6.1228h-.0044l-28.72314.00586a183.35785 183.35785 0 0 0 -55.32373-36.731l-24.79785-10.62786a7.99947 7.99947 0 0 0 -3.15137-.647h-16v16h14.35791l23.28857 9.981a167.48624 167.48624 0 0 1 52.69776 35.68164 7.9995 7.9995 0 0 0 5.65722 2.34375h.00147l31.99607-.00639h.00147a8 8 0 0 1 .00049 16h-16.00096v16l16.00049.00244 47.99951-.00195a7.99976 7.99976 0 0 1 .00049 15.99951h-80.9043a79.8397 79.8397 0 0 1 -66.564-35.624l-5.876-8.814a8.00082 8.00082 0 0 0 -6.65619-3.562h-16v16h11.71875l3.501 5.25146a95.80768 95.80768 0 0 0 79.87644 42.74854h80.9043a23.99065 23.99065 0 0 0 22.623-32h33.37651a128.84653 128.84653 0 0 0 74.61768-24h13.38232v-16h-16a7.99948 7.99948 0 0 0 -4.7998 1.6001 112.7024 112.7024 0 0 1 -67.2002 22.3999h-72.00049a7.99976 7.99976 0 1 1 .001-15.99951l71.99949-.00049v-16l-23.96289.00024c-.01172-.00012-.02295-.00268-.03467-.00268a8 8 0 1 1 -.00146-16z" fill="#deae7e"/><path d="m24 336h88v96h-88z" fill="#548aff"/></svg>