<svg id="_x33_0" enable-background="new 0 0 64 64" height="512" viewBox="0 0 64 64" width="512" xmlns="http://www.w3.org/2000/svg" xmlns:xlink="http://www.w3.org/1999/xlink"><linearGradient id="SVGID_1_" gradientUnits="userSpaceOnUse" x1="32" x2="32" y1="63" y2="1"><stop offset="0" stop-color="#9f2fff"/><stop offset="1" stop-color="#0bb1d3"/></linearGradient><path d="m55 3c-4.072 0-7.436 3.06-7.931 7h-2.069c-1.654 0-3 1.346-3 3v16h-9v-12.069c3.94-.495 7-3.859 7-7.931 0-4.411-3.589-8-8-8s-8 3.589-8 8c0 4.072 3.06 7.436 7 7.931v12.069h-6.414l-2.586 2.586v-18.586c0-1.654-1.346-3-3-3h-2.069c-.495-3.94-3.859-7-7.931-7-4.411 0-8 3.589-8 8s3.589 8 8 8c4.072 0 7.436-3.06 7.931-7h2.069c.552 0 1 .449 1 1v20.586l-2 2v11.414h-2v-20h2v-2h-2c-1.103 0-2 .897-2 2v20c0 1.103.897 2 2 2h20v2h-21c-1.654 0-3-1.346-3-3v-22c0-1.654 1.346-3 3-3h3v-2h-3c-2.757 0-5 2.243-5 5v22c0 2.757 2.243 5 5 5h9v2h-3c-1.654 0-3 1.346-3 3v2c0 1.654 1.346 3 3 3h22c1.654 0 3-1.346 3-3v-2c0-1.654-1.346-3-3-3h-3v-2h9c2.757 0 5-2.243 5-5v-22c0-2.757-2.243-5-5-5h-3v2h3c1.654 0 3 1.346 3 3v17h-2v-16c0-1.103-.897-2-2-2h-2v2h2v16h-2v-14h-2v-16c0-.551.448-1 1-1h2.069c.495 3.94 3.859 7 7.931 7 4.411 0 8-3.589 8-8s-3.589-8-8-8zm-29 6c0-.702.128-1.373.35-2h1.875c-.137.633-.225 1.299-.225 2s.088 1.367.225 2h-1.875c-.222-.627-.35-1.298-.35-2zm4 0c0-.703.11-1.374.282-2h3.44c.169.625.278 1.295.278 2 0 .703-.11 1.374-.281 2h-3.44c-.17-.625-.279-1.295-.279-2zm1.086-4c.309-.579.636-1.064.916-1.441.281.376.608.862.917 1.441zm6.914 4c0 .702-.128 1.373-.35 2h-1.888c.138-.635.238-1.297.238-2 0-.701-.088-1.367-.225-2h1.875c.222.627.35 1.298.35 2zm-5.086 4c-.309.579-.636 1.064-.916 1.441-.281-.376-.608-.862-.917-1.441zm1.439 1.518c.269-.447.532-.961.772-1.518h1.334c-.58.647-1.295 1.171-2.106 1.518zm2.107-9.518h-1.328c-.24-.558-.506-1.068-.775-1.517.809.347 1.522.871 2.103 1.517zm-6.816-1.517c-.27.449-.536.959-.776 1.517h-1.328c.581-.646 1.294-1.17 2.104-1.517zm-2.104 9.517h1.328c.24.558.506 1.068.775 1.517-.809-.347-1.522-.871-2.103-1.517zm-14.08-6h-1.328c-.24-.558-.506-1.068-.775-1.517.809.347 1.522.871 2.103 1.517zm1.54 4c0 .702-.128 1.373-.35 2h-1.875c.137-.633.225-1.299.225-2s-.088-1.367-.225-2h1.875c.222.627.35 1.298.35 2zm-7.721 2c-.17-.625-.279-1.295-.279-2 0-.703.11-1.374.282-2h3.44c.169.625.278 1.295.278 2 0 .703-.11 1.374-.281 2zm2.635 2c-.309.579-.636 1.064-.916 1.441-.281-.376-.608-.862-.917-1.441zm-6.914-4c0-.702.128-1.373.35-2h1.875c-.137.633-.225 1.299-.225 2s.088 1.367.225 2h-1.875c-.222-.627-.35-1.298-.35-2zm5.086-4c.309-.579.636-1.064.916-1.441.281.376.608.862.917 1.441zm-1.442-1.517c-.27.449-.536.959-.776 1.517h-1.328c.581-.646 1.294-1.17 2.104-1.517zm-2.104 9.517h1.328c.24.558.506 1.068.775 1.517-.809-.347-1.522-.871-2.103-1.517zm6.816 1.517c.269-.448.535-.958.775-1.517h1.328c-.58.646-1.293 1.17-2.103 1.517zm12.644 15.897v2.586h-2.586zm19 24.586c.552 0 1 .448 1 1v2c0 .552-.448 1-1 1h-22c-.552 0-1-.448-1-1v-2c0-.552.448-1 1-1h3c0 1.103.972 2 2.167 2h11.666c1.195 0 2.167-.897 2.167-2zm-4.984-.06c-.009.012-.07.06-.183.06h-11.666c-.102.001-.159-.037-.167-.012v-3.988h12.003zm13.984-8.94c0 1.654-1.346 3-3 3h-11v-6h14zm-14-5c-1.103 0-2 .897-2 2v2h-16v-10h6v-6h18v12zm21.46-36h-1.328c-.24-.558-.506-1.068-.775-1.517.809.347 1.522.871 2.103 1.517zm1.54 4c0 .702-.128 1.373-.35 2h-1.875c.137-.633.225-1.299.225-2s-.088-1.367-.225-2h1.875c.222.627.35 1.298.35 2zm-7.721 2c-.17-.625-.279-1.295-.279-2 0-.703.11-1.374.282-2h3.44c.169.625.278 1.295.278 2 0 .703-.11 1.374-.281 2zm2.635 2c-.309.579-.636 1.064-.916 1.441-.281-.376-.608-.862-.917-1.441zm-6.914-4c0-.702.128-1.373.35-2h1.875c-.137.633-.225 1.299-.225 2s.088 1.367.225 2h-1.875c-.222-.627-.35-1.298-.35-2zm5.086-4c.309-.579.636-1.064.916-1.441.281.376.608.862.917 1.441zm-1.442-1.517c-.27.449-.536.959-.776 1.517h-1.328c.581-.646 1.294-1.17 2.104-1.517zm-2.104 9.517h1.328c.24.558.506 1.068.775 1.517-.809-.347-1.522-.871-2.103-1.517zm6.816 1.517c.269-.448.535-.958.775-1.517h1.328c-.58.646-1.293 1.17-2.103 1.517zm-28.356 6.483h-5v-2h5zm11 0h-5v-2h5zm-5 2h5v2h-5zm-11 0h5v2h-5zm26 24h-2v-2h2zm-4 0h-2v-2h2zm-4 0h-2v-2h2zm0-14v2h-14v-2zm-20 4h20v2h-20zm0 4h2v2h-2zm4 0h2v2h-2zm4 0h2v2h-2z" fill="url(#SVGID_1_)"/></svg>