<svg height="464pt" viewBox="0 0 464 464" width="464pt" xmlns="http://www.w3.org/2000/svg"><path d="m32 0h400c17.671875 0 32 14.328125 32 32v400c0 17.671875-14.328125 32-32 32h-400c-17.671875 0-32-14.328125-32-32v-400c0-17.671875 14.328125-32 32-32zm0 0" fill="#ebebeb"/><path d="m304 280h80c8.835938 0 16 7.164062 16 16v88c0 8.835938-7.164062 16-16 16h-80c-8.835938 0-16-7.164062-16-16v-88c0-8.835938 7.164062-16 16-16zm0 0" fill="#fbb540"/><path d="m136 224h48v16h-48zm0 0" fill="#8dc79d"/><path d="m32 0h400c17.671875 0 32 14.328125 32 32v32h-464v-32c0-17.671875 14.328125-32 32-32zm0 0" fill="#6cbae5"/><path d="m24 24h16v16h-16zm0 0" fill="#4799cf"/><path d="m56 24h16v16h-16zm0 0" fill="#428dc5"/><path d="m88 24h16v16h-16zm0 0" fill="#277baa"/><path d="m304 192c0 39.765625-32.234375 72-72 72s-72-32.234375-72-72 32.234375-72 72-72 72 32.234375 72 72zm0 0" fill="#6cbae5"/><path d="m264 176c0 17.671875-14.328125 32-32 32s-32-14.328125-32-32 14.328125-32 32-32 32 14.328125 32 32zm0 0" fill="#fbb540"/><path d="m280 240c0-26.507812-21.492188-48-48-48s-48 21.492188-48 48v5.601562c27.277344 24.582032 68.722656 24.582032 96 0zm0 0" fill="#fbb540"/><path d="m296 376h-160c-4.417969 0-8-3.582031-8-8v-48c0-4.417969 3.582031-8 8-8h160zm0 0" fill="#fbb540"/><g fill="#c38325"><path d="m152 336h16v16h-16zm0 0"/><path d="m184 336h16v16h-16zm0 0"/><path d="m216 336h16v16h-16zm0 0"/><path d="m248 336h16v16h-16zm0 0"/></g><path d="m368 336h-16v-16c0-4.417969-3.582031-8-8-8s-8 3.582031-8 8v16h-16v-16c0-13.253906 10.746094-24 24-24s24 10.746094 24 24zm0 0" fill="#ebebeb"/><path d="m320 336h48v32h-48zm0 0" fill="#6cbae5"/><path d="m320 360h48v8h-48zm0 0" fill="#4799cf"/><path d="m104 336h24v16h-24zm0 0" fill="#8dc79d"/><path d="m88 352h-16c-4.417969 0-8-3.582031-8-8v-112c0-4.417969 3.582031-8 8-8h16v16h-8v96h8zm0 0" fill="#8dc79d"/><path d="m104 224h16v16h-16zm0 0" fill="#8dc79d"/><path d="m320 328h16v8h-16zm0 0" fill="#e4e4e2"/><path d="m352 328h16v8h-16zm0 0" fill="#e4e4e2"/></svg>