<svg id="Layer_5" enable-background="new 0 0 64 64" height="512" viewBox="0 0 64 64" width="512" xmlns="http://www.w3.org/2000/svg"><path d="m26 2 2 14h-10l2-14z" fill="#aab2bd"/><path d="m29 34c.55 0 1.05-.22 1.41-.59.37-.36.59-.86.59-1.41 0-1.1-.9-2-2-2h-1.52c-1.24-3.49-4.56-6-8.48-6-1.05 0-2.06.18-3 .52v-4.52h42v22h-4-6-6c-1.1 0-2 .9-2 2v2h-10l-.02.03c-.99-.85-2.09-1.58-3.27-2.18-.54-.28-1.1-.53-1.67-.75-1.88-.71-3.91-1.1-6.04-1.1 4.63 0 8.44-3.5 8.94-8z" fill="#e6e9ed"/><path d="m36 24h18v12h-18z" fill="#69d6f4"/><path d="m58 16v4h-42v-4h2 10 4v-10h1l11 10h1v-10h1z" fill="#ccd1d9"/><path d="m22.97 53.97-2.97 8.03h-2l-2.97-8.03 3.97-3.97z" fill="#ccd1d9"/><path d="m8 62h-6v-3c0-4.7 1.9-8.94 4.98-12.02 1.26-1.26 2.71-2.32 4.31-3.13v.01l3.74 10.11 2.97 8.03z" fill="#ff826e"/><path d="m30 62h-10l2.97-8.03 3.74-10.11v-.01c1.18.6 2.28 1.33 3.27 2.18 3.68 3.11 6.02 7.77 6.02 12.97v3z" fill="#ff826e"/><path d="m26.71 43.85v.01l-3.74 10.11-3.97-3.97 6.04-6.9c.57.22 1.13.47 1.67.75z" fill="#fc6e51"/><path d="m12.97 43.1 6.03 6.9-3.97 3.97-3.74-10.11v-.01c.54-.28 1.1-.53 1.68-.75z" fill="#fc6e51"/><path d="m25.04 43.1-6.04 6.9-6.03-6.9c1.87-.71 3.91-1.1 6.03-1.1 2.13 0 4.16.39 6.04 1.1z" fill="#f0d0b4"/><path d="m10.06 34h17.88c-.5 4.5-4.31 8-8.94 8s-8.44-3.5-8.94-8z" fill="#f0d0b4"/><path d="m27.48 30h-16.96c.91-2.55 2.93-4.58 5.48-5.48.94-.34 1.95-.52 3-.52 3.92 0 7.24 2.51 8.48 6z" fill="#ffeaa7"/><path d="m29 30c1.1 0 2 .9 2 2 0 .55-.22 1.05-.59 1.41-.36.37-.86.59-1.41.59h-1.06-17.88-1.06c-1.1 0-2-.9-2-2 0-.55.22-1.05.59-1.41.36-.37.86-.59 1.41-.59h1.52 16.96z" fill="#fcd770"/><path d="m60 42h-18c-1.1 0-2 .9-2 2v2 14c0 1.1.9 2 2 2h18c1.1 0 2-.9 2-2v-16c0-1.1-.9-2-2-2z" fill="#d3a06c"/><path d="m48 42h6v6h-6z" fill="#b27946"/><path d="m60 41h-1v-25.469l-12.638-10.531h-2.362v9.648l-10.613-9.648h-2.387v10h-2.132l-2-14h-7.734l-2 14h-2.134v8.847c-2.267.996-4.132 2.814-5.153 5.153h-.847c-1.654 0-3 1.346-3 3s1.346 3 3 3h.205c.587 2.902 2.412 5.307 4.876 6.7-7.538 2.148-13.081 9.082-13.081 17.3v4h36v-4c0-4.612-1.759-8.811-4.622-12h6.622v13c0 1.654 1.346 3 3 3h18c1.654 0 3-1.346 3-3v-16c0-1.654-1.346-3-3-3zm-39.133-38h4.266l1.714 12h-7.693zm12.133 14v-9.648l10.613 9.648h2.387v-9.698l11 9.167v2.531h-40v-2zm-14 8c2.878 0 5.49 1.565 6.902 4h-13.804c1.412-2.435 4.024-4 6.902-4zm-11 7c0-.552.448-1 1-1h20c.552 0 1 .448 1 1s-.448 1-1 1h-20c-.552 0-1-.448-1-1zm3.264 3h15.473c-.893 3.487-4.038 6-7.736 6s-6.844-2.513-7.737-6zm1.423 9.303 4.945 5.651-2.207 2.207-2.882-7.788c.049-.022.095-.049.144-.07zm6.313 7.111 2.811 2.811-2.507 6.775h-.608l-2.507-6.775zm3.575.747-2.207-2.207 4.945-5.651c.049.021.095.048.143.069zm-3.575-3.679-4.274-4.885c1.363-.379 2.792-.597 4.274-.597s2.911.218 4.274.597zm-16 10.518c0-5.806 3.119-10.884 7.759-13.689l5.805 15.689h-7.564v-8h-2v8h-4zm32 2h-4v-8h-2v8h-7.564l5.805-15.689c4.64 2.805 7.759 7.883 7.759 13.689zm-4.712-16c-1.856-1.499-4.016-2.629-6.37-3.3 2.464-1.393 4.289-3.799 4.876-6.7h.206c1.654 0 3-1.346 3-3s-1.346-3-3-3h-.847c-1.58-3.616-5.171-6-9.153-6-.681 0-1.349.077-2 .211v-2.211h40v20h-15c-1.654 0-3 1.346-3 3v1zm18.712-2h4v4h-4zm12 17c0 .552-.448 1-1 1h-18c-.552 0-1-.448-1-1v-16c0-.552.448-1 1-1h5v6h8v-6h5c.552 0 1 .448 1 1z"/><path d="m57 57h2v2h-2z"/><path d="m49 57h2v2h-2z"/><path d="m53 57h2v2h-2z"/><path d="m49 53h10v2h-10z"/><path d="m55 23h-20v14h20zm-2 6h-4v-4h4zm-10 0v-4h4v4zm4 2v4h-4v-4zm-6-6v4h-4v-4zm-4 6h4v4h-4zm12 4v-4h4v4z"/></svg>