<svg height="512" viewBox="0 0 64 64" width="512" xmlns="http://www.w3.org/2000/svg"><g id="Global"><circle cx="30" cy="34" fill="#57a4ff" r="27"/><path d="m61 19c0 2.99-1.83 7.16-4.25 11.37a119.445 119.445 0 0 1 -7.82 11.63c-2.26 3-3.93 5-3.93 5s-1.67-2-3.93-5c-4.73-6.29-12.07-17.01-12.07-23a15.969 15.969 0 0 1 5.07-11.69h.01a16 16 0 0 1 26.92 11.69z" fill="#ed1c24"/><path d="m56.75 30.37a25.535 25.535 0 0 1 .25 3.63 26.674 26.674 0 0 1 -2.29 10.88l-1.16-1.92a2.01 2.01 0 0 0 -1.71-.96h-2.91a119.445 119.445 0 0 0 7.82-11.63z" fill="#4c90df"/><path d="m53.55 42.96 1.16 1.92a27 27 0 0 1 -24.71 16.12c-.67 0-1.34-.02-2-.08v-3.92l-1.29-2.58a1.982 1.982 0 0 1 .51-2.43l4.5-3.76a1 1 0 0 1 .64-.23h3.95a2.006 2.006 0 0 0 1.97-1.67l.44-2.66a2.006 2.006 0 0 1 1.97-1.67h.38c2.26 3 3.93 5 3.93 5s1.67-2 3.93-5h2.91a2.01 2.01 0 0 1 1.71.96z" fill="#5fa12f"/><circle cx="45" cy="19" fill="#d1e7f8" r="8"/><path d="m27 30v3a4 4 0 0 1 -4 4h-1a2.013 2.013 0 0 0 -1.6.8l-2 2.67a1.969 1.969 0 0 0 -.4 1.2v7.92a1 1 0 0 1 -1.71.7l-1.65-1.65a3.018 3.018 0 0 1 -.82-1.53l-.5-2.5a2 2 0 0 0 -1.96-1.61h-6.82a27.016 27.016 0 0 1 18.46-35.08v3.08a2.006 2.006 0 0 1 -2 2 2.015 2.015 0 0 0 -2 2v5a2.006 2.006 0 0 1 -2 2h-4a2.006 2.006 0 0 0 -2 2 2.015 2.015 0 0 0 2 2h10a4 4 0 0 1 4 4z" fill="#5eac24"/><path d="m13.82 47.11a3.018 3.018 0 0 0 .82 1.53l1.65 1.65a1 1 0 0 0 1.71-.7v-6.659c-1.523.647-3.084 1.221-4.666 1.751z" fill="none"/><path d="m53.335 5.36a63.557 63.557 0 0 1 -3.214 7.5 8 8 0 0 1 -8.9 13.2 64.329 64.329 0 0 1 -6.621 6.555c2.137 3.453 4.523 6.795 6.47 9.385 2.26 3 3.93 5 3.93 5s1.67-2 3.93-5a119.445 119.445 0 0 0 7.82-11.63c2.42-4.21 4.25-8.38 4.25-11.37a15.97 15.97 0 0 0 -7.665-13.64z" fill="#cf1820"/><path d="m45 27a8 8 0 0 0 5.121-14.145 64.118 64.118 0 0 1 -8.9 13.2 7.959 7.959 0 0 0 3.779.945z" fill="#b7cad9"/><path d="m18 42.931v-1.261a1.969 1.969 0 0 1 .4-1.2l2-2.67a2.013 2.013 0 0 1 1.6-.8h1a4 4 0 0 0 4-4v-3a4 4 0 0 0 -4-4h-10a2.015 2.015 0 0 1 -2-2 2.006 2.006 0 0 1 2-2h4a2.006 2.006 0 0 0 2-2v-5a2.015 2.015 0 0 1 2-2 2.006 2.006 0 0 0 2-2v-3.08a27.016 27.016 0 0 0 -18.46 35.08h6.82a2 2 0 0 1 1.96 1.61l.014.072z" fill="#5eac24"/><path d="m34.6 32.615a64.005 64.005 0 0 1 -16.6 10.316v6.659a1 1 0 0 1 -1.71.7l-1.65-1.65a3.018 3.018 0 0 1 -.82-1.53l-.486-2.428a63.73 63.73 0 0 1 -7.192 1.962 26.971 26.971 0 0 0 21.858 14.276v-3.92l-1.29-2.58a1.982 1.982 0 0 1 .51-2.43l4.5-3.76a1 1 0 0 1 .64-.23h3.95a2.006 2.006 0 0 0 1.97-1.67l.44-2.66a2.006 2.006 0 0 1 1.97-1.67h.38c-1.947-2.59-4.333-5.932-6.47-9.385z" fill="#4c90df"/><path d="m14.64 48.64 1.65 1.65a1 1 0 0 0 1.71-.7v-6.659l-4.666 1.751.486 2.428a3.018 3.018 0 0 0 .82 1.53z" fill="#529720"/><path d="m14.64 48.64 1.65 1.65a1 1 0 0 0 1.71-.7v-5.377q-2.082 1.308-4.268 2.459l.088.438a3.018 3.018 0 0 0 .82 1.53z" fill="none"/></g></svg>