<?xml version="1.0" encoding="utf-8"?>
<!-- Generator: Adobe Illustrator 21.0.2, SVG Export Plug-In . SVG Version: 6.00 Build 0)  -->
<svg xmlns="http://www.w3.org/2000/svg" xmlns:xlink="http://www.w3.org/1999/xlink" version="1.1" id="Layer_1" x="0px" y="0px" viewBox="0 0 100 100" enable-background="new 0 0 100 100" xml:space="preserve" width="512" height="512">
<g>
	<circle fill="#EA8953" cx="50" cy="50" r="48"/>
	<path opacity="0.1" d="M97.6964722,55.3464355L73.8900146,31.539978c-0.4700317-0.5100098-1.0800171-0.8800049-1.7900391-1.0200195   L64.0800171,22.5H22.5v24.4500122l17.4000244,17.3999634v3L27.2399902,54.6900024h-2V66.25   c0,0.8299561,0.3200073,1.5799561,0.8300171,2.1499634h-0.0200195l0.0800171,0.0800171   c0.0499878,0.0599976,0.1099854,0.1199951,0.1699829,0.1699829l29.0465088,29.0465088   C77.5824585,95.230896,95.230957,77.5822754,97.6964722,55.3464355z"/>
	<g>
		<g>
			<path fill="#FCD462" d="M77.5,54.4449997v21.427742C77.5,76.7684174,76.7683716,77.5,75.8727417,77.5H41.522686     c-0.8956299,0-1.6272583-0.7315826-1.6272583-1.6272583v-21.427742c0-0.8956718,0.7316284-1.6272583,1.6272583-1.6272583     h34.3500557C76.7683716,52.8177414,77.5,53.5493279,77.5,54.4449997z"/>
			<path fill="#27A2DB" d="M47.3067932,57.3785782h-3.8746338c-0.3811684,0-0.6902275,0.3090591-0.6902275,0.6903114v3.8746338     c0,0.3812103,0.3090591,0.6902695,0.6902275,0.6902695h3.8746338c0.3812523,0,0.6903954-0.3090591,0.6903954-0.6902695     v-3.8746338C47.9971886,57.6876373,47.6880455,57.3785782,47.3067932,57.3785782z"/>
			<rect x="42.7419319" y="65.1581802" fill="#EBF0F3" width="11.2230291" height="1.3961942"/>
			<rect x="42.7419319" y="69.4165497" fill="#EBF0F3" width="13.8061104" height="1.3961942"/>
			<rect x="42.7419319" y="73.6474609" fill="#3A556A" width="5.6115146" height="1.3961942"/>
			<rect x="51.3373566" y="73.6474609" fill="#3A556A" width="5.6115146" height="1.3961942"/>
			<rect x="59.932785" y="73.6474609" fill="#3A556A" width="5.6115146" height="1.3961942"/>
			<rect x="68.5282135" y="73.6474609" fill="#3A556A" width="5.6115146" height="1.3961942"/>
			<circle fill="#E56353" cx="72.8147736" cy="57.7126045" r="2.995039"/>
			<circle fill="#EBF0F3" cx="68.7331543" cy="57.7126045" r="2.995039"/>
		</g>
		<g>
			<rect x="22.5000019" y="22.5" fill="#44C4A1" width="41.5785446" height="24.4537773"/>
			<path fill="#3EA69B" d="M24.4997559,24.5004234v20.453125h37.5791016v-20.453125H24.4997559z M60.0788574,40.9535484     c-1.1044922,0-2,0.8953857-2,2H28.4997559c0-1.1046143-0.8955078-2-2-2v-12.453125c1.1044922,0,2-0.8954468,2-2h29.5791016     c0,1.1045532,0.8955078,2,2,2V40.9535484z"/>
			<ellipse fill="#3EA69B" cx="43.2893066" cy="34.7269859" rx="5.228158" ry="6.7902298"/>
		</g>
		<g>
			<path fill="#64798A" d="M71.465271,30.4586792h-3.3112793v-1.2432861l-2.2548828,2.2549438l2.2548828,2.2549438v-1.2666016     h3.3112793c0.7148438,0,1.2958984,0.5810547,1.2958984,1.2958984v11.5507813h2V33.7545776     C74.7611694,31.9371948,73.2826538,30.4586792,71.465271,30.4586792z"/>
			<path fill="#64798A" d="M28.534729,69.5413208h3.3112793v1.2432861l2.2548828-2.2549438l-2.2548828-2.2549438v1.2666016     H28.534729c-0.7148438,0-1.2958984-0.5810547-1.2958984-1.2958984V54.6946411h-2v11.5507813     C25.2388306,68.0628052,26.7173462,69.5413208,28.534729,69.5413208z"/>
		</g>
	</g>
</g>
</svg>
