<svg id="Capa_1" enable-background="new 0 0 512 512" height="512" viewBox="0 0 512 512" width="512" xmlns="http://www.w3.org/2000/svg"><g><g><path d="m412.165 129.871-30.582-39.93c-3.961-5.171-10.103-8.204-16.617-8.204h-138.838c-6.514 0-12.657 3.033-16.617 8.204l-30.582 39.93c-3.961 5.171-10.103 8.204-16.617 8.204h-116.144c-19.975.001-36.168 16.193-36.168 36.168v219.852c0 19.975 16.193 36.168 36.168 36.168h419.665c19.975 0 36.168-16.193 36.168-36.168v-219.852c0-19.975-16.193-36.168-36.168-36.168h-37.05c-6.515.001-12.658-3.032-16.618-8.204z" fill="#868eaf"/><circle cx="298.195" cy="265.259" fill="#f9f5f3" r="108.154"/><path d="m113.554 138.076h-60.5v-28.109c0-7.858 6.371-14.229 14.229-14.229h32.042c7.858 0 14.229 6.371 14.229 14.229z" fill="#f9f5f3"/><circle cx="298.195" cy="265.259" fill="#bedaff" r="59.439"/></g><g><g><path d="m465.832 128.076h-37.05c-3.379 0-6.624-1.602-8.679-4.285l-30.582-39.93c-5.814-7.591-14.995-12.124-24.557-12.124h-138.836c-9.562 0-18.742 4.532-24.557 12.124l-30.582 39.93c-2.055 2.683-5.299 4.285-8.679 4.285h-38.757v-18.109c0-13.36-10.869-24.229-24.229-24.229h-32.04c-13.36 0-24.229 10.869-24.229 24.229v18.226c-24.01 1.608-43.055 21.64-43.055 46.05v219.852c0 25.457 20.711 46.167 46.168 46.167h170.923c5.523 0 10-4.477 10-10s-4.477-10-10-10h-170.923c-14.429.001-26.168-11.738-26.168-26.167v-219.852c0-14.429 11.739-26.167 26.168-26.167h116.144c9.563 0 18.743-4.532 24.557-12.124l30.582-39.93c2.055-2.683 5.299-4.285 8.679-4.285h138.837c3.379 0 6.624 1.602 8.679 4.285l30.582 39.929c5.814 7.592 14.994 12.125 24.557 12.125h37.05c14.429 0 26.168 11.739 26.168 26.167v219.852c0 14.429-11.739 26.167-26.168 26.167h-160.778c-5.523 0-10 4.477-10 10s4.477 10 10 10h160.775c25.457 0 46.168-20.71 46.168-46.167v-219.852c0-25.457-20.711-46.167-46.168-46.167zm-402.777 0v-18.109c0-2.332 1.897-4.229 4.229-4.229h32.042c2.332 0 4.229 1.897 4.229 4.229v18.109z"/><path d="m416.349 265.259c0-65.15-53.003-118.154-118.154-118.154s-118.154 53.003-118.154 118.154 53.003 118.154 118.154 118.154 118.154-53.003 118.154-118.154zm-216.307 0c0-54.122 44.032-98.154 98.154-98.154s98.154 44.032 98.154 98.154-44.032 98.154-98.154 98.154-98.154-44.032-98.154-98.154z"/><path d="m425.59 366.75c2.98 4.553 9.359 5.779 13.86 2.77 4.526-3.026 5.799-9.337 2.77-13.87-3.033-4.539-9.332-5.765-13.87-2.76-4.543 3.007-5.771 9.342-2.76 13.86z"/><path d="m367.634 265.259c0-38.289-31.15-69.439-69.439-69.439s-69.439 31.15-69.439 69.439 31.15 69.439 69.439 69.439 69.439-31.15 69.439-69.439zm-118.878 0c0-27.261 22.178-49.439 49.439-49.439s49.439 22.178 49.439 49.439-22.178 49.439-49.439 49.439-49.439-22.178-49.439-49.439z"/><path d="m270.59 426.44c-3.394-8.28-15.633-7.961-18.646.455-3.112 8.69 6.742 16.654 14.598 11.908 4.162-2.514 5.919-7.87 4.048-12.363z"/></g></g></g></svg>