<svg id="Layer_1" enable-background="new 0 0 512 512" height="512" viewBox="0 0 512 512" width="512" xmlns="http://www.w3.org/2000/svg"><g><circle cx="256" cy="256" fill="#8cf2ff" r="185"/><path d="m256 71c-5.051 0-10.052.21-15 .607 95.157 7.637 170 87.271 170 184.393s-74.843 176.756-170 184.393c4.948.397 9.949.607 15 .607 102.173 0 185-82.827 185-185s-82.827-185-185-185z" fill="#63e9ff"/><path d="m306.842 353.703c-8.595 14.293-8.091 13.811-9.152 14.287-10.679 4.79-11.183 4.61-11.557 6.394-1.544 7.366-2.869 21.016-9.986 24.959-4.132 2.289-10.637 7.833-13.954 14.956 0 0-6.935 12.481-20.636 9.807-3.434-.67-3.709-14.794-3.709-14.794-.472-1.882 3.072-8.828 2.782-10.652l-5.395-33.904c-.599-3.763-11.239-4.103-12.82-6.981-7.812-14.216-7.324-13.147-7.397-13.919-1.472-15.571-1.717-15.371-.9-16.512 6.598-9.215 6.4-8.695 6.459-9.734.58-10.112.206-11.189 1.941-12.158 6.489-3.623 12.457-1.362 13.159-1.234 0 0 28.619 3.276 33.235 10.11 6.558 9.71 5.614 11.99 8.144 11.583 15.636-2.513 15.021-2.687 16.23-1.823 12.926 9.253 13.251 9.014 13.316 10.814.67 18.688.812 17.85.24 18.801z" fill="#64cc56"/><path d="m272.869 179.589c-.438 3.191-2.49 1.92-28.951 11.372-.377.131-1.412 3.639-1.955 5.55-1.201 4.288 12.415 15.589 6.716 18.623l-16.922 9.022c-2.709 1.438-2.227 8.768-4.761 10.285-7.514 4.498-7.654 4.384-8.154 5.445-2.832 5.953-3.349 8.452-5.953 8.347l-17.737-.675c-.675-.026-6.97 2.008-6.164 5.401 1.096 4.594 3.647 15.124 4.173 15.572 13.616 17.842 13.336 11.372 8.294 24.9-.596 1.605-2.446 2.332-3.981 1.587-16.352-7.935-15.633-7.724-16.334-7.838-15.852-2.797-16.115-2.446-17.009-4.13-2.788-5.226-13.476-25.26-13.634-25.391-25.348-20.797-25.26-19.903-25.707-21.551-4.787-17.527-4.603-16.773-4.454-17.606 3.691-20.841 3.472-19.631 3.586-19.938l4.533-12.906c.798-2.271-4.796-13.003-4.945-15.221-1.35-19.35-.982-19.114-2.323-20.201-.044-.035-3.84-5.208-8.391-11.372 13.678-16.694 30.214-30.959 48.863-42.033 17.106 7.654 33.712 14.721 34.466 14.169 12.398-9.057 11.644-8.794 12.687-8.969 16.527-2.779 18.737-4.024 19.675-.693 3.639 12.915 4.524 13.897 2.525 15.493-29.083 23.243-28.302 21.981-28.206 24.067.587 12.512.447 12.1.912 12.924 9.855 17.755 9.531 18.149 11.547 18.43 13.511 1.876 14.283 2.508 15.624.544 14.432-21.227 13.301-19.727 13.985-20.175 7.347-4.822 8.049-5.795 9.978-4.875 9.539 4.568 9.925 4.472 10.495 5.839l8.049 19.228c.508 1.191-.536 6.846-.527 6.776z" fill="#ffd54f"/><path d="m399.599 139.354c-6.558 1.938-11.452 11.334-11.952 12.613-5.054 12.949-24.109 26.557-27.985 25.619-5.743-2.008-7.919-4.968-8.399-10.069-.708-7.514-2.159-12.977-3.779-18.12-1.621-5.142 3.031-19.989 3.031-19.989 1.675-4.629-4.584-13.052-6.232-17.761v-18.263c21.314 11.6 40.103 27.268 55.316 45.97z" fill="#f5f5f5"/><path d="m383.606 159.098c1.7-2.336 3.109-4.745 4.041-7.131.5-1.28 5.394-10.676 11.952-12.614-15.212-18.702-34.001-34.37-55.316-45.969v18.264c.349.996.909 2.164 1.551 3.421 14.776 12.575 27.546 27.434 37.772 44.029z" fill="#e6e6e6"/><g fill="#63e9ff"><path d="m105.398 444.799c-15.223-12.095-28.947-26.027-40.788-41.409-2.528-3.283-7.242-3.899-10.531-1.371-3.286 2.528-3.9 7.24-1.372 10.524 12.586 16.348 27.169 31.153 43.346 44.006 1.381 1.097 3.03 1.63 4.668 1.63 2.211 0 4.401-.971 5.883-2.835 2.579-3.245 2.04-7.965-1.206-10.545z"/><path d="m185.697 25.423c3.967-1.208 6.203-5.401 4.995-9.366s-5.407-6.202-9.371-4.992c-9.821 2.99-19.597 6.622-29.055 10.793-9.415 4.152-18.649 8.899-27.447 14.108-3.569 2.112-4.747 6.716-2.634 10.282 1.403 2.366 3.902 3.681 6.467 3.681 1.301 0 2.619-.338 3.82-1.049 8.286-4.906 16.985-9.377 25.855-13.289 8.914-3.931 18.121-7.352 27.37-10.168z"/><path d="m210.322 492.98c-19.074-3.67-37.705-9.644-55.375-17.755-3.764-1.728-8.225-.079-9.957 3.688-1.731 3.767-.079 8.223 3.69 9.952 18.764 8.614 38.548 14.957 58.803 18.854.48.092.957.137 1.428.137 3.528 0 6.673-2.497 7.365-6.088.783-4.07-1.882-8.005-5.954-8.788z"/><path d="m18.046 297.76c-.719-4.082-4.617-6.805-8.697-6.091-4.084.718-6.813 4.61-6.094 8.692 3.561 20.228 9.605 40.101 17.966 59.067 1.238 2.809 3.99 4.481 6.875 4.481 1.011 0 2.039-.205 3.024-.639 3.794-1.671 5.515-6.101 3.843-9.894-7.874-17.864-13.566-36.576-16.917-55.616z"/><path d="m86.485 73.722c-2.911-2.953-7.665-2.988-10.619-.079-14.686 14.461-27.618 30.725-38.435 48.338-2.169 3.533-1.064 8.154 2.471 10.322 1.226.752 2.581 1.11 3.922 1.11 2.523 0 4.989-1.272 6.406-3.58 10.183-16.58 22.355-31.888 36.177-45.498 2.953-2.908 2.989-7.66.078-10.613z"/><path d="m302.38 19.466c3.529 0 6.677-2.499 7.366-6.092.782-4.071-1.886-8.004-5.958-8.785-15.877-3.046-32.1-4.589-48.219-4.589-4.448 0-8.96.119-13.408.353-4.142.218-7.321 3.75-7.103 7.889.217 4.139 3.779 7.303 7.893 7.1 19.359-1.019 38.937.33 58.005 3.988.48.091.955.136 1.424.136z"/><path d="m7.517 246.72c3.911 0 7.209-3.029 7.483-6.987 1.338-19.343 5.028-38.544 10.97-57.07 1.265-3.947-.91-8.172-4.859-9.437-3.947-1.266-8.176.908-9.443 4.856-6.308 19.675-10.228 40.068-11.65 60.615-.285 4.135 2.836 7.719 6.973 8.005.177.012.352.018.526.018z"/><path d="m494.843 324.946c-3.951-1.269-8.177.904-9.445 4.851-5.946 18.508-14.118 36.278-24.289 52.816-2.171 3.531-1.068 8.153 2.465 10.324 1.227.753 2.584 1.112 3.925 1.112 2.522 0 4.986-1.27 6.404-3.576 10.801-17.564 19.479-36.434 25.792-56.087 1.27-3.946-.903-8.173-4.852-9.44z"/><path d="m508.177 212.111c-.716-4.082-4.601-6.814-8.694-6.095-4.085.716-6.815 4.606-6.099 8.689 2.388 13.603 3.598 27.508 3.598 41.327-.001 5.549-.198 11.168-.583 16.7-.288 4.135 2.831 7.721 6.968 8.009.178.012.354.019.53.019 3.909 0 7.207-3.026 7.482-6.984.411-5.877.619-11.846.62-17.743.001-14.687-1.286-29.465-3.822-43.922z"/><path d="m476.499 159.083c1.238 2.809 3.989 4.481 6.875 4.481 1.011 0 2.038-.205 3.023-.639 3.794-1.671 5.516-6.1 3.844-9.894l-.111-.251c-8.371-18.963-18.975-36.828-31.516-53.1-2.531-3.283-7.246-3.895-10.531-1.365-3.285 2.529-3.897 7.242-1.366 10.525 11.806 15.316 21.789 32.138 29.665 49.98z"/><path d="m424.908 428.092c-13.833 13.605-29.34 25.526-46.087 35.431-3.569 2.111-4.751 6.713-2.639 10.281 1.402 2.368 3.903 3.684 6.469 3.684 1.3 0 2.617-.338 3.817-1.047 17.796-10.524 34.272-23.192 48.974-37.65 2.956-2.907 2.994-7.659.085-10.613-2.91-2.957-7.663-2.994-10.619-.086z"/><path d="m325.585 486.951c-18.615 5.658-37.881 9.039-57.259 10.05-4.142.216-7.324 3.747-7.108 7.886.209 4.006 3.526 7.114 7.493 7.114.131 0 .264-.003.397-.01 20.595-1.074 41.066-4.667 60.846-10.678 3.967-1.206 6.206-5.398 5-9.364-1.209-3.967-5.405-6.201-9.369-4.998z"/><path d="m410.571 69.082c2.212 0 4.403-.973 5.885-2.838 2.579-3.246 2.038-7.967-1.21-10.545-16.141-12.812-33.854-23.675-52.645-32.288-3.769-1.727-8.227-.074-9.955 3.693-1.729 3.768-.074 8.223 3.696 9.95 17.693 8.11 34.37 18.338 49.565 30.399 1.38 1.097 3.028 1.629 4.664 1.629z"/></g></g></svg>