<svg height="512" viewBox="0 0 64 64" width="512" xmlns="http://www.w3.org/2000/svg"><g id="flat"><path d="m32 57h-29a61.186 61.186 0 0 0 6.62-18c.14-.65.27-1.32.39-2a63.84 63.84 0 0 0 .85-7c.09-1.3.14-2.64.14-4h13c0 1.36.05 2.7.14 4a63.84 63.84 0 0 0 .85 7c.12.68.25 1.35.39 2a61.186 61.186 0 0 0 6.62 18z" fill="#50b4f8"/><path d="m47 57h-25s3.33-5 5.03-15c.11-.65.21-1.31.3-2q.39-2.775.56-6c.07-1.28.11-2.61.11-4h13c0 1.39.04 2.72.11 4q.165 3.225.56 6c.09.69.19 1.35.3 2 1.7 10 5.03 15 5.03 15z" fill="#4481c3"/><path d="m37 45h24v12h-24z" fill="#394d5c"/><path d="m19.578 15.043a3.984 3.984 0 1 1 6.922-3.943 3.968 3.968 0 0 1 6.712-.465 4.987 4.987 0 0 1 9.788 1.365 4.944 4.944 0 0 1 -.059.587 3.9 3.9 0 0 1 4.1-.009 4.009 4.009 0 1 1 1.914 3.844 3.989 3.989 0 0 1 -7.955-.422.242.242 0 0 1 0-.025 4.954 4.954 0 0 1 -3 1.025c-.047 0-.091-.013-.137-.014a3.983 3.983 0 0 1 -7.726 0c-.046 0-.09.014-.137.014a3.982 3.982 0 0 1 -3.5-2.1 3.982 3.982 0 0 1 -3.5 2.1c-.065 0-.125-.016-.19-.019a2.969 2.969 0 0 1 .19 1.019 3 3 0 1 1 -3.422-2.957z" fill="#aabece"/><path d="m34 21v-2a3 3 0 0 0 1.984-5.25l1.323-1.5a5 5 0 0 1 -3.307 8.75z" fill="#7d8d9c"/><path d="m32 14h2v2h-2z" fill="#7d8d9c"/><g fill="#fcf05a"><path d="m53 51h4v6h-4z"/><path d="m40 48h2v2h-2z"/><path d="m44 48h2v2h-2z"/><path d="m44 52h2v2h-2z"/><path d="m48 48h2v2h-2z"/><path d="m48 52h2v2h-2z"/><path d="m40 52h2v2h-2z"/></g><path d="m24.14 30h-13.28c.09-1.3.14-2.64.14-4h13c0 1.36.05 2.7.14 4z" fill="#dd3e46"/><path d="m41.11 34h-13.22c.07-1.28.11-2.61.11-4h13c0 1.39.04 2.72.11 4z" fill="#dd3e46"/><path d="m25.38 39h-15.76c.14-.65.27-1.32.39-2h14.98c.12.68.25 1.35.39 2z" fill="#dd3e46"/><path d="m41.97 42h-14.94c.11-.65.21-1.31.3-2h14.34c.09.69.19 1.35.3 2z" fill="#dd3e46"/><path d="m9 52h2v2h-2z" fill="#f4f4e6"/><path d="m13 52h2v2h-2z" fill="#f4f4e6"/><path d="m55 31h4v14h-4z" fill="#50b4f8"/><path d="m47 31h4v14h-4z" fill="#50b4f8"/><path d="m47 31h4v4h-4z" fill="#dd3e46"/><path d="m55 31h4v4h-4z" fill="#dd3e46"/><path d="m47 35h4v4h-4z" fill="#e97424"/><path d="m55 35h4v4h-4z" fill="#e97424"/></g></svg>