<svg id="Capa_1" enable-background="new 0 0 512 512" height="512" viewBox="0 0 512 512" width="512" xmlns="http://www.w3.org/2000/svg"><g><path d="m292.423 312.424 86.412 23.043c31.888 8.504 54.076 37.383 54.076 70.386v95.845c0 5.69-4.612 10.302-10.302 10.302h-333.218c-5.69 0-10.302-4.612-10.302-10.302v-95.845c0-33.003 22.188-61.882 54.076-70.386l86.412-23.043z" fill="#d8e2f1"/><path d="m256 407.043h14.97l14.97-27.606-29.94-30.59-29.94 30.59 14.97 27.606z" fill="#dd5790"/><path d="m256 512h35.229l-20.259-104.957h-14.97-14.97l-20.259 104.957z" fill="#dd5790"/><path d="m256 427.856h18.987l-4.017-20.813h-14.97-14.97l-4.017 20.813z" fill="#da387d"/><path d="m256 348.847 29.94 30.59c5.181 5.293 14.076 3.633 16.999-3.173l23.519-54.764-34.035-9.076h-36.423z" fill="#b9cbea"/><path d="m256 348.847-29.94 30.59c-5.181 5.293-14.076 3.633-16.999-3.173l-23.519-54.764 34.035-9.076h36.423z" fill="#b9cbea"/><path d="m292.423 312.424v-44.748h-72.846v44.748c0 20.116 16.307 36.423 36.423 36.423 20.116 0 36.423-16.307 36.423-36.423z" fill="#f1d0a5"/><path d="m383.302 336.829c10.911 12.841 17.348 29.405 17.348 47.171v128h21.958c5.69 0 10.302-4.612 10.302-10.302v-95.845c.001-31.435-20.138-59.116-49.608-69.024z" fill="#b9cbea"/><path d="m219.577 291.366c11.342 4.252 23.614 6.583 36.423 6.583 12.808 0 25.081-2.332 36.423-6.583v-23.69h-72.846z" fill="#ffb983"/><path d="m172.748 96.78v97.105c0 45.979 37.273 83.252 83.252 83.252s83.252-37.273 83.252-83.252v-97.105z" fill="#f1d0a5"/><path d="m339.252 193.885v-97.105h-19.772v118.864c0 16.246-4.67 31.394-12.717 44.206 19.751-15.222 32.489-39.1 32.489-65.965z" fill="#ffb983"/><path d="m372.553 116.553v45.774h-33.301l-4.628-23.903c-.938-4.844-5.18-8.343-10.114-8.343h-6.34c-15.404 0-29.109-9.781-34.116-24.348l-.002-.005c-1.036-3.015-5.279-3.073-6.398-.089l-.387 1.033c-5.28 14.081-18.741 23.409-33.779 23.409h-55.998c-4.934 0-9.176 3.499-10.114 8.343l-4.628 23.903h-33.301v-45.774c0-64.371 52.183-116.553 116.553-116.553 64.37 0 116.553 52.182 116.553 116.553z" fill="#5766cb"/><path d="m317.521 17.551c13.677 19.099 21.731 42.499 21.731 67.783v76.994h33.301v-45.774c0-41.787-21.994-78.429-55.032-99.003z" fill="#3342aa"/><path d="m355.902 191.709h-16.65v-43.77c0-3.414 2.767-6.181 6.181-6.181h10.469c9.196 0 16.65 7.455 16.65 16.65v16.65c.001 9.196-7.454 16.651-16.65 16.651z" fill="#f1d0a5"/><path d="m156.098 191.709h16.65v-43.77c0-3.414-2.767-6.181-6.181-6.181h-10.469c-9.196 0-16.65 7.455-16.65 16.65v16.65c-.001 9.196 7.454 16.651 16.65 16.651z" fill="#f1d0a5"/><g fill="#d0e2e7"><path d="m360.664 512v-28.098c0-4.268 3.459-7.726 7.726-7.726s7.726 3.459 7.726 7.726v28.098z"/><path d="m135.883 512v-28.098c0-4.268 3.459-7.726 7.726-7.726s7.726 3.459 7.726 7.726v28.098z"/></g></g></svg>