<?xml version="1.0"?>
<svg xmlns="http://www.w3.org/2000/svg" viewBox="0 0 64 64" width="512" height="512"><g id="Fill_Outline" data-name="Fill Outline"><g id="Flat"><path d="M49,33.51V7a4,4,0,0,0-4-4H7A4,4,0,0,0,3,7V57a4,4,0,0,0,4,4H45a4,4,0,0,0,4-4V50.49" style="fill:#a1d51c"/><path d="M40,54A30,30,0,0,1,10,24V3H7A4,4,0,0,0,3,7V57a4,4,0,0,0,4,4H45a4,4,0,0,0,4-4V54Z" style="fill:#7ab92d"/><path d="M18,11A10,10,0,1,0,28,21H18Z" style="fill:#f9e109"/><path d="M22,7V17H32A10,10,0,0,0,22,7Z" style="fill:#57b7eb"/><rect x="39" y="10" width="4" height="4" style="fill:#57b7eb"/><rect x="39" y="23" width="4" height="4" style="fill:#f9e109"/><rect x="11" y="48" width="4" height="8" style="fill:#4891d3"/><rect x="19" y="44" width="4" height="12" style="fill:#f9e109"/><circle cx="42" cy="42" r="11" style="fill:#4891d3"/><polyline points="44 47 44 43 47 43 42 37 37 43 40 43 40 47" style="fill:#f9e109"/><path d="M42,41V37l-5,6h3v4h4V45.46A6,6,0,0,1,42,41Z" style="fill:#fcbc04"/><path d="M60.41,57.59l-9.35-9.36a10.88,10.88,0,0,1-2.83,2.83l9.36,9.35a2,2,0,0,0,2.82-2.82Z" style="fill:#f9e109"/><path d="M51.17,48.34l-.11-.11a10.07,10.07,0,0,1-.81,1A9.88,9.88,0,0,0,51.17,48.34Z" style="fill:#fcbc04"/><path d="M58.59,59.41l-9.25-9.24a10.55,10.55,0,0,1-1.11.89l9.36,9.35a2,2,0,0,0,3.23-.59A2,2,0,0,1,58.59,59.41Z" style="fill:#fcbc04"/><path d="M46,50a11,11,0,0,1-8.42-18.07A11,11,0,1,0,50.42,49.07,11,11,0,0,1,46,50Z" style="fill:#2d72bc"/><path d="M42,31a11,11,0,0,0-8.71,4.29A11,11,0,0,1,48.71,50.71,11,11,0,0,0,42,31Z" style="fill:#2d72bc"/><path d="M42,31A11,11,0,1,0,53,42,11,11,0,0,0,42,31Zm0,20a9,9,0,1,1,9-9A9,9,0,0,1,42,51Z" style="fill:#57b7eb"/><path d="M48.75,47.94a9,9,0,0,1-15.26-8.85,15.59,15.59,0,0,1-1-2.66,11,11,0,1,0,19,11A16.07,16.07,0,0,1,48.75,47.94Z" style="fill:#4891d3"/><path d="M10.17,27.21A30.78,30.78,0,0,1,10,24V15a10,10,0,0,0,.17,12.19Z" style="fill:#fcbc04"/><path d="M23,56V48.72a30.24,30.24,0,0,1-4-3.3V56Z" style="fill:#fcbc04"/></g><g id="Outline_copy" data-name="Outline copy"><path d="M61.12,56.88l-8.79-8.79A11.88,11.88,0,0,0,54,42,12,12,0,1,0,42,54a11.88,11.88,0,0,0,6.09-1.67l8.79,8.79a3,3,0,0,0,4.24,0A3,3,0,0,0,61.12,56.88ZM32,42A10,10,0,1,1,42,52,10,10,0,0,1,32,42ZM59.71,59.71a1,1,0,0,1-1.42,0l-8.55-8.55a11.9,11.9,0,0,0,1.42-1.42l8.55,8.55A1,1,0,0,1,59.71,59.71Z" style="fill:#39519d"/><path d="M42.77,35.36a1,1,0,0,0-1.54,0l-5,6A1,1,0,0,0,37,43h2v3a1,1,0,0,0,2,0V42a1,1,0,0,0-1-1h-.87L42,37.56,44.87,41H44a1,1,0,0,0-1,1v4a1,1,0,0,0,2,0V43h2a1,1,0,0,0,.77-1.64Z" style="fill:#39519d"/><path d="M49,56a1,1,0,0,0-1,1,3,3,0,0,1-3,3H7a3,3,0,0,1-3-3V7A3,3,0,0,1,7,4H45a3,3,0,0,1,3,3V28.51a1,1,0,1,0,2,0V7a5,5,0,0,0-5-5H7A5,5,0,0,0,2,7V57a5,5,0,0,0,5,5H45a5,5,0,0,0,5-5A1,1,0,0,0,49,56Z" style="fill:#39519d"/><path d="M27.8,26H35a1,1,0,0,0,0-2H28.58A11,11,0,0,0,29,21a1,1,0,0,0-1-1H19V11a1,1,0,0,0-1-1,11,11,0,1,0,9.8,16ZM18,30a9,9,0,0,1-1-17.94V21a1,1,0,0,0,1,1h8.94a8.93,8.93,0,0,1-.45,2H23a1,1,0,0,0,0,2h2.48A9,9,0,0,1,18,30Z" style="fill:#39519d"/><path d="M35,11H31.21A11,11,0,0,0,22,6a1,1,0,0,0-1,1V17a1,1,0,0,0,1,1H32a1,1,0,0,0,1-1,11.07,11.07,0,0,0-.75-4H35a1,1,0,0,0,0-2Zm-4.06,5H23V8.06A9,9,0,0,1,28.7,11H27a1,1,0,0,0,0,2h3.06A8.69,8.69,0,0,1,30.94,16Z" style="fill:#39519d"/><path d="M43,11a1,1,0,0,0,0-2H39a1,1,0,0,0-1,1v4a1,1,0,0,0,1,1h4a1,1,0,0,0,0-2H40V11Z" style="fill:#39519d"/><path d="M43,22H39a1,1,0,0,0-1,1v4a1,1,0,0,0,1,1h4a1,1,0,0,0,1-1V23A1,1,0,0,0,43,22Zm-1,4H40V24h2Z" style="fill:#39519d"/><path d="M15,57a1,1,0,0,0,1-1V48a1,1,0,0,0-1-1H11a1,1,0,0,0-1,1v8a1,1,0,0,0,2,0V49h2v7A1,1,0,0,0,15,57Z" style="fill:#39519d"/><path d="M23,57a1,1,0,0,0,1-1V44a1,1,0,0,0-1-1H19a1,1,0,0,0-1,1V56a1,1,0,0,0,2,0V45h2V56A1,1,0,0,0,23,57Z" style="fill:#39519d"/><path d="M21,38.8V40a1,1,0,0,0,2,0V36a1,1,0,0,0-1-1H18a1,1,0,0,0,0,2H20A12.52,12.52,0,0,1,9.12,41a1,1,0,0,0-.24,2,13.76,13.76,0,0,0,1.81.12A14.51,14.51,0,0,0,21,38.8Z" style="fill:#39519d"/></g></g></svg>
