<svg id="Capa_1" enable-background="new 0 0 512 512" height="512" viewBox="0 0 512 512" width="512" xmlns="http://www.w3.org/2000/svg"><g><path d="m256 406h-150v30h150 150v-30z" fill="#47568c"/><path d="m256 406h150v30h-150z" fill="#29376d"/><path d="m30 286h91v210h-91z" fill="#47568c"/><path d="m391 286h91v210h-91z" fill="#29376d"/><g fill="#deecf1"><path d="m131.828 66.905h30.009v44.981h-30.009z" transform="matrix(.643 -.766 .766 .643 -16.012 144.471)"/><path d="m216.257 18.265h29.988v44.893h-29.988z" transform="matrix(.985 -.174 .174 .985 -3.556 40.839)"/><path d="m169.74 35.092h30.005v44.975h-30.005z" transform="matrix(.866 -.5 .5 .866 -4.041 100.076)"/><path d="m107.089 109.762h29.991v44.991h-29.991z" transform="matrix(.342 -.94 .94 .342 -43.965 201.715)"/></g><path d="m367.406 117.262h45.005v29.991h-45.005z" fill="#c6e2e7" transform="matrix(.94 -.342 .342 .94 -21.722 141.28)"/><path d="m258.316 25.703h44.864v29.988h-44.864z" fill="#c6e2e7" transform="matrix(.174 -.985 .985 .174 191.85 310.091)"/><path d="m342.69 74.392h44.97v30.009h-44.97z" fill="#c6e2e7" transform="matrix(.766 -.642 .642 .766 27.886 255.47)"/><path d="m304.746 42.592h45.007v30.005h-45.007z" fill="#c6e2e7" transform="matrix(.5 -.866 .866 .5 113.771 312.224)"/><path d="m256 46c-74.443 0-135 60.557-135 135h135 135c0-74.443-60.557-135-135-135z" fill="#deecf1"/><path d="m256 46v135h135c0-74.443-60.557-135-135-135z" fill="#c6e2e7"/><path d="m256 106c-41.353 0-75 33.647-75 75h75 75c0-41.353-33.647-75-75-75z" fill="#c6e2e7"/><path d="m256 106v75h75c0-41.353-33.647-75-75-75z" fill="#a8d3d8"/><path d="m256 166h-256v150h256 256v-150z" fill="#ff6c6c"/><path d="m256 166h256v150h-256z" fill="#e63950"/><path d="m256 226h-105v150h105 105v-150z" fill="#61729b"/><path d="m256 226h105v150h-105z" fill="#47568c"/><path d="m271 286h30v30h-30z" fill="#fabe2c"/><path d="m211 286h30v30h-30z" fill="#fed843"/></g></svg>