<svg height="512" viewBox="0 0 512 512" width="512" xmlns="http://www.w3.org/2000/svg"><g id="flat"><path d="m304 392v-16h-96v16l-8 64v16h112v-16z" fill="#645960"/><path d="m305 400-1-8v-8h-96v8l-1 8z" fill="#4b4348"/><rect fill="#315a70" height="368" rx="32" width="464" x="24" y="24"/><path d="m320 456h-128a32 32 0 0 0 -32 32h192a32 32 0 0 0 -32-32z" fill="#315a70"/><path d="m320 456h-1.9a263 263 0 0 1 -110.1 24 265.65 265.65 0 0 1 -45.685-3.95 31.9 31.9 0 0 0 -2.315 11.95h192a32 32 0 0 0 -32-32z" fill="#203b47"/><path d="m120 336a457.807 457.807 0 0 1 -96-10.13v34.13a32 32 0 0 0 32 32h400a32 32 0 0 0 32-32v-210.676c-82.975 113.184-216.9 186.676-368 186.676z" fill="#203b47"/><path d="m56 56h400v304h-400z" fill="#e6e6e6"/><path d="m176 320h64v40h-64z" fill="#ecae79"/><path d="m240 320h-64v18a87.783 87.783 0 0 0 32 6 87.783 87.783 0 0 0 32-6z" fill="#ec9b56"/><path d="m328 208h-16v-16a104 104 0 0 0 -208 0v16h-16v-16a120 120 0 0 1 240 0z" fill="#645960"/><g fill="#ecae79"><path d="m104 200a24 24 0 0 0 -24 24 24 24 0 0 0 24 24h32v-48z"/><path d="m104 200a24 24 0 0 0 0 48h32v-48z"/><path d="m312 200h-24v48h24a24 24 0 0 0 24-24 24 24 0 0 0 -24-24z"/></g><path d="m400 104v24a16 16 0 0 1 -32 0v-24a32 32 0 0 0 -32 32v6.7a35.1 35.1 0 0 0 24 33.3v112a24 24 0 0 0 48 0v-112a35.1 35.1 0 0 0 24-33.3v-6.7a32 32 0 0 0 -32-32zm-16 192a8 8 0 1 1 8-8 8 8 0 0 1 -8 8z" fill="#645960"/><path d="m120 216v-32a64 64 0 0 1 64-64h48a64 64 0 0 1 64 64v32z" fill="#603813"/><path d="m152 176h56l16-24 16 24h24a32 32 0 0 1 32 32v40a88 88 0 0 1 -88 88 88 88 0 0 1 -88-88v-40a32 32 0 0 1 32-32z" fill="#ecc19c"/><path d="m208 312a32.036 32.036 0 0 1 -32-32v-8h16v8a16 16 0 0 0 32 0v-8h16v8a32.036 32.036 0 0 1 -32 32z" fill="#f55441"/><path d="m192 240h-16v-8a8 8 0 0 0 -16 0v8h-16v-8a24 24 0 0 1 48 0z" fill="#4b4348"/><path d="m272 240h-16v-8a8 8 0 0 0 -16 0v8h-16v-8a24 24 0 0 1 48 0z" fill="#4b4348"/><path d="m136 296a32.036 32.036 0 0 1 -32-32v-16a23.9 23.9 0 0 1 -16-6.116v22.116a48.055 48.055 0 0 0 48 48h16v-16z" fill="#645960"/><rect fill="#4eb7b4" height="32" rx="16" width="40" x="136" y="288"/><path d="m421.254 112.086a115.057 115.057 0 0 1 -61.254 88.992v86.922a24 24 0 0 0 48 0v-112a35.1 35.1 0 0 0 24-33.3v-6.7a31.917 31.917 0 0 0 -10.746-23.914zm-37.254 183.914a8 8 0 1 1 8-8 8 8 0 0 1 -8 8z" fill="#4b4348"/></g></svg>