<svg id="Line" enable-background="new 0 0 96 96" height="512" viewBox="0 0 96 96" width="512" xmlns="http://www.w3.org/2000/svg"><path d="m41 34h-38v-29c0-1.105.895-2 2-2h34c1.105 0 2 .895 2 2z" fill="#efefef"/><path d="m62 43v-15l-10.422-18.002c-.358-.618-1.017-.998-1.731-.998h-8.847v25h-38v9c0 1.105.895 2 2 2h55c1.105 0 2-.895 2-2z" fill="#f2be07"/><circle cx="84" cy="15" fill="#6ebaed" r="6"/><path d="m87 21h-6c-3.314 0-6 2.686-6 6v3c0 1.105.895 2 2 2h14c1.105 0 2-.895 2-2v-3c0-3.314-2.686-6-6-6z" fill="#6ebaed"/><path d="m59.68 24h-11.68c-.552 0-1-.448-1-1v-9c0-.552.448-1 1-1h5.32z" fill="#efefef"/><path d="m25 69h-9c-1.105 0-2 .895-2 2v22h11z" fill="#dfdddc"/><path d="m41 93h-16v-32c0-1.105.895-2 2-2h12c1.105 0 2 .895 2 2z" fill="#e6e5e4"/><path d="m69 73v-23c0-.552.448-1 1-1h2c.552 0 1 .448 1 1v23z" fill="#c9c7c6"/><path d="m76 93h-35v-21l5.293-5.293c.63-.63 1.707-.184 1.707.707v4.586l5.293-5.293c.63-.63 1.707-.184 1.707.707v4.586l5.293-5.293c.63-.63 1.707-.184 1.707.707v4.586l5.293-5.293c.63-.63 1.707-.184 1.707.707v4.586l5.293-5.293c.63-.63 1.707-.184 1.707.707z" fill="#ef6662"/><path d="m93 93h-17v-17h15c1.105 0 2 .895 2 2z" fill="#dfdddc"/><path d="m35 87h-4c-.552 0-1 .448-1 1v5h6v-5c0-.552-.448-1-1-1z" fill="#9c9b9a"/><path d="m82 88h5v5h-5z" fill="#9c9b9a"/><path d="m6 88h2v5h-2z" fill="#316596"/><path d="m7 89c-2.46 0-4.197-2.41-3.419-4.743l2.47-7.411c.304-.912 1.593-.912 1.897 0l2.47 7.411c.779 2.333-.958 4.743-3.418 4.743z" fill="#f2be07"/><path d="m41 13h-38v-8c0-1.105.895-2 2-2h34c1.105 0 2 .895 2 2z" fill="#dfdddc"/><path d="m17 3v15.586c0 .891 1.077 1.337 1.707.707l2.586-2.586c.391-.391 1.024-.391 1.414 0l2.586 2.586c.63.63 1.707.184 1.707-.707v-15.586z" fill="#f2be07"/><circle cx="13" cy="45" fill="#9c9b9a" r="6"/><circle cx="25" cy="45" fill="#9c9b9a" r="6"/><circle cx="49" cy="45" fill="#9c9b9a" r="6"/><circle cx="25" cy="45" fill="#c9c7c6" r="2"/><circle cx="49" cy="45" fill="#c9c7c6" r="2"/><circle cx="13" cy="45" fill="#c9c7c6" r="2"/><circle cx="7" cy="30" fill="#dfdddc" r="1"/><circle cx="11" cy="30" fill="#dfdddc" r="1"/><circle cx="15" cy="30" fill="#dfdddc" r="1"/><path d="m49 30h-4c-.552 0-1-.447-1-1s.448-1 1-1h4c.552 0 1 .447 1 1s-.448 1-1 1z" fill="#316596"/><path d="m46 79h-1c-.552 0-1-.447-1-1s.448-1 1-1h1c.552 0 1 .447 1 1s-.448 1-1 1z" fill="#e05551"/><path d="m51 79h-1c-.552 0-1-.447-1-1s.448-1 1-1h1c.552 0 1 .447 1 1s-.448 1-1 1z" fill="#e05551"/><path d="m56 79h-1c-.552 0-1-.447-1-1s.448-1 1-1h1c.552 0 1 .447 1 1s-.448 1-1 1z" fill="#e05551"/><path d="m61 79h-1c-.552 0-1-.447-1-1s.448-1 1-1h1c.552 0 1 .447 1 1s-.448 1-1 1z" fill="#e05551"/><path d="m66 79h-1c-.552 0-1-.447-1-1s.448-1 1-1h1c.552 0 1 .447 1 1s-.448 1-1 1z" fill="#e05551"/><path d="m71 79h-1c-.552 0-1-.447-1-1s.448-1 1-1h1c.552 0 1 .447 1 1s-.448 1-1 1z" fill="#e05551"/><path d="m46 83h-1c-.552 0-1-.447-1-1s.448-1 1-1h1c.552 0 1 .447 1 1s-.448 1-1 1z" fill="#e05551"/><path d="m51 83h-1c-.552 0-1-.447-1-1s.448-1 1-1h1c.552 0 1 .447 1 1s-.448 1-1 1z" fill="#e05551"/><path d="m56 83h-1c-.552 0-1-.447-1-1s.448-1 1-1h1c.552 0 1 .447 1 1s-.448 1-1 1z" fill="#e05551"/><path d="m61 83h-1c-.552 0-1-.447-1-1s.448-1 1-1h1c.552 0 1 .447 1 1s-.448 1-1 1z" fill="#e05551"/><path d="m66 83h-1c-.552 0-1-.447-1-1s.448-1 1-1h1c.552 0 1 .447 1 1s-.448 1-1 1z" fill="#e05551"/><path d="m71 83h-1c-.552 0-1-.447-1-1s.448-1 1-1h1c.552 0 1 .447 1 1s-.448 1-1 1z" fill="#e05551"/><path d="m46 87h-1c-.552 0-1-.447-1-1s.448-1 1-1h1c.552 0 1 .447 1 1s-.448 1-1 1z" fill="#e05551"/><path d="m51 87h-1c-.552 0-1-.447-1-1s.448-1 1-1h1c.552 0 1 .447 1 1s-.448 1-1 1z" fill="#e05551"/><path d="m56 87h-1c-.552 0-1-.447-1-1s.448-1 1-1h1c.552 0 1 .447 1 1s-.448 1-1 1z" fill="#e05551"/><g fill="#efefef"><path d="m31 65h-1c-.552 0-1-.447-1-1s.448-1 1-1h1c.552 0 1 .447 1 1s-.448 1-1 1z"/><path d="m36 65h-1c-.552 0-1-.447-1-1s.448-1 1-1h1c.552 0 1 .447 1 1s-.448 1-1 1z"/><path d="m31 69h-1c-.552 0-1-.447-1-1s.448-1 1-1h1c.552 0 1 .447 1 1s-.448 1-1 1z"/><path d="m36 69h-1c-.552 0-1-.447-1-1s.448-1 1-1h1c.552 0 1 .447 1 1s-.448 1-1 1z"/><path d="m31 73h-1c-.552 0-1-.447-1-1s.448-1 1-1h1c.552 0 1 .447 1 1s-.448 1-1 1z"/><path d="m21 74h-3c-.552 0-1-.447-1-1s.448-1 1-1h3c.552 0 1 .447 1 1s-.448 1-1 1z"/><path d="m21 78h-3c-.552 0-1-.447-1-1s.448-1 1-1h3c.552 0 1 .447 1 1s-.448 1-1 1z"/><path d="m21 82h-3c-.552 0-1-.447-1-1s.448-1 1-1h3c.552 0 1 .447 1 1s-.448 1-1 1z"/><path d="m21 86h-3c-.552 0-1-.447-1-1s.448-1 1-1h3c.552 0 1 .447 1 1s-.448 1-1 1z"/><path d="m21 90h-3c-.552 0-1-.447-1-1s.448-1 1-1h3c.552 0 1 .447 1 1s-.448 1-1 1z"/><path d="m36 73h-1c-.552 0-1-.447-1-1s.448-1 1-1h1c.552 0 1 .447 1 1s-.448 1-1 1z"/><path d="m31 77h-1c-.552 0-1-.447-1-1s.448-1 1-1h1c.552 0 1 .447 1 1s-.448 1-1 1z"/><path d="m36 77h-1c-.552 0-1-.447-1-1s.448-1 1-1h1c.552 0 1 .447 1 1s-.448 1-1 1z"/><path d="m31 81h-1c-.552 0-1-.447-1-1s.448-1 1-1h1c.552 0 1 .447 1 1s-.448 1-1 1z"/><path d="m36 81h-1c-.552 0-1-.447-1-1s.448-1 1-1h1c.552 0 1 .447 1 1s-.448 1-1 1z"/></g><path d="m61 87h-1c-.552 0-1-.447-1-1s.448-1 1-1h1c.552 0 1 .447 1 1s-.448 1-1 1z" fill="#e05551"/><path d="m66 87h-1c-.552 0-1-.447-1-1s.448-1 1-1h1c.552 0 1 .447 1 1s-.448 1-1 1z" fill="#e05551"/><path d="m71 87h-1c-.552 0-1-.447-1-1s.448-1 1-1h1c.552 0 1 .447 1 1s-.448 1-1 1z" fill="#e05551"/><path d="m89 81h-9c-.552 0-1-.447-1-1s.448-1 1-1h9c.552 0 1 .447 1 1s-.448 1-1 1z" fill="#efefef"/><path d="m89 85h-9c-.552 0-1-.447-1-1s.448-1 1-1h9c.552 0 1 .447 1 1s-.448 1-1 1z" fill="#efefef"/><path d="m89 89h-9c-.552 0-1-.447-1-1s.448-1 1-1h9c.552 0 1 .447 1 1s-.448 1-1 1z" fill="#efefef"/><path d="m17 66c-.552 0-1-.447-1-1v-1c0-.553.448-1 1-1s1 .447 1 1v1c0 .553-.448 1-1 1z" fill="#316596"/><path d="m17 61c-.552 0-1-.447-1-1v-1c0-.553.448-1 1-1s1 .447 1 1v1c0 .553-.448 1-1 1z" fill="#316596"/><path d="m17 56c-.552 0-1-.447-1-1v-1c0-.553.448-1 1-1s1 .447 1 1v1c0 .553-.448 1-1 1z" fill="#316596"/><path d="m74 14h-1c-.552 0-1-.447-1-1s.448-1 1-1h1c.552 0 1 .447 1 1s-.448 1-1 1z" fill="#316596"/><path d="m69 14h-1c-.552 0-1-.447-1-1s.448-1 1-1h1c.552 0 1 .447 1 1s-.448 1-1 1z" fill="#316596"/><path d="m64 14h-1c-.552 0-1-.447-1-1s.448-1 1-1h1c.552 0 1 .447 1 1s-.448 1-1 1z" fill="#316596"/><path d="m59 14h-1c-.552 0-1-.447-1-1s.448-1 1-1h1c.552 0 1 .447 1 1s-.448 1-1 1z" fill="#316596"/><path d="m85 73c-.552 0-1-.447-1-1v-1c0-.553.448-1 1-1s1 .447 1 1v1c0 .553-.448 1-1 1z" fill="#316596"/><path d="m85 68c-.552 0-1-.447-1-1v-1c0-.553.448-1 1-1s1 .447 1 1v1c0 .553-.448 1-1 1z" fill="#316596"/><path d="m85 63c-.552 0-1-.447-1-1v-1c0-.553.448-1 1-1s1 .447 1 1v1c0 .553-.448 1-1 1z" fill="#316596"/><path d="m85 58c-.552 0-1-.447-1-1v-1c0-.553.448-1 1-1s1 .447 1 1v1c0 .553-.448 1-1 1z" fill="#316596"/><path d="m85 53c-.552 0-1-.447-1-1v-1c0-.553.448-1 1-1s1 .447 1 1v1c0 .553-.448 1-1 1z" fill="#316596"/><path d="m85 48c-.552 0-1-.447-1-1v-1c0-.553.448-1 1-1s1 .447 1 1v1c0 .553-.448 1-1 1z" fill="#316596"/><path d="m85 43c-.552 0-1-.447-1-1v-1c0-.553.448-1 1-1s1 .447 1 1v1c0 .553-.448 1-1 1z" fill="#316596"/><path d="m85 38c-.552 0-1-.447-1-1v-1c0-.553.448-1 1-1s1 .447 1 1v1c0 .553-.448 1-1 1z" fill="#316596"/></svg>