<svg height="465pt" viewBox="-68 0 465 465.54" width="465pt" xmlns="http://www.w3.org/2000/svg"><path d="m329.488281 112.851562v317.269532c0 19.5625-15.863281 35.421875-35.429687 35.417968h-258.359375c-19.5625.003907-35.425781-15.855468-35.429688-35.417968v-317.269532c.003907-19.566406 15.867188-35.425781 35.429688-35.421874h56.25v38.820312h145.859375v-38.820312h56.25c19.566406-.003907 35.429687 15.855468 35.429687 35.421874zm-102.1875 138.9375v-85.199218l-62.421875-20.128906-62.417968 20.128906v85.199218l62.417968 20.132813.042969-.011719zm-111.742187 159.699219v-37.4375h-45.199219v37.4375zm0-70v-37.4375h-45.199219v37.4375zm0 0" fill="#00efd1"/><path d="m237.808594 77.429688v38.820312h-145.859375v-53.78125c.003906-11.851562 9.609375-21.457031 21.460937-21.457031h102.941406c11.851563 0 21.457032 9.605469 21.457032 21.457031zm0 0" fill="#fedb41"/><path d="m227.300781 166.589844v85.199218l-62.378906 20.121094-.042969-.140625v-85.050781zm0 0" fill="#00acea"/><path d="m227.300781 166.589844-62.421875 20.128906-62.417968-20.128906 62.417968-20.128906zm0 0" fill="#fedb41"/><path d="m197.351562 40.148438v.863281h-64.941406v-8.542969c0-17.929688 14.539063-32.46875 32.46875-32.46875 17.933594 0 32.472656 14.539062 32.472656 32.46875zm0 0" fill="#00acea"/><path d="m164.878906 271.769531.042969.140625-.042969.011719-62.417968-20.132813v-85.199218l62.417968 20.128906zm0 0" fill="#2ed3ff"/><path d="m70.359375 374.050781h45.199219v37.4375h-45.199219zm0 0" fill="#00acea"/><path d="m70.359375 304.050781h45.199219v37.4375h-45.199219zm0 0" fill="#00acea"/><g fill="#f4b844"><path d="m259.398438 398.769531c4.417968 0 8-3.582031 8-8s-3.582032-8-8-8h-100.820313c-4.417969 0-8 3.582031-8 8s3.582031 8 8 8zm0 0"/><path d="m158.578125 328.769531h100.820313c4.417968 0 8-3.582031 8-8s-3.582032-8-8-8h-100.820313c-4.417969 0-8 3.582031-8 8s3.582031 8 8 8zm0 0"/></g></svg>