<?xml version="1.0" encoding="iso-8859-1"?>
<!-- Generator: Adobe Illustrator 19.0.0, SVG Export Plug-In . SVG Version: 6.00 Build 0)  -->
<svg version="1.1" id="Layer_1" xmlns="http://www.w3.org/2000/svg" xmlns:xlink="http://www.w3.org/1999/xlink" x="0px" y="0px"
	 viewBox="0 0 512.001 512.001" style="enable-background:new 0 0 512.001 512.001;" xml:space="preserve">
<path style="fill:#54747B;" d="M281.6,136.536h-51.2V25.604c0-14.139,11.461-25.6,25.6-25.6l0,0c14.139,0,25.6,11.461,25.6,25.6
	V136.536z"/>
<path style="fill:#3C6168;" d="M264.534,1.466c-2.67-0.944-5.54-1.462-8.533-1.462c-14.139,0-25.6,11.461-25.6,25.6v110.933h17.067
	V25.604C247.467,14.458,254.592,4.981,264.534,1.466z"/>
<path style="fill:#FF8B1B;" d="M290.133,196.269h-68.266v-59.733c0-4.713,3.821-8.533,8.533-8.533h51.2
	c4.712,0,8.533,3.821,8.533,8.533V196.269z"/>
<path style="fill:#F57811;" d="M247.467,128.003H230.4c-4.712,0-8.533,3.821-8.533,8.533v59.733h17.067v-59.733
	C238.934,131.824,242.754,128.003,247.467,128.003z"/>
<rect x="324.265" y="162.133" style="fill:#54747B;" width="51.2" height="34.133"/>
<path style="fill:#859CA0;" d="M383.999,170.669h-68.266c-4.712,0-8.533-3.821-8.533-8.533v-25.6c0-4.713,3.821-8.533,8.533-8.533
	h68.266c4.713,0,8.533,3.821,8.533,8.533v25.6C392.533,166.849,388.713,170.669,383.999,170.669z"/>
<path style="fill:#6D888E;" d="M324.267,162.136v-25.6c0-4.713,3.821-8.533,8.533-8.533h-17.067c-4.712,0-8.533,3.821-8.533,8.533
	v25.6c0,4.713,3.821,8.533,8.533,8.533H332.8C328.087,170.669,324.267,166.849,324.267,162.136z"/>
<path style="fill:#38ABEC;" d="M383.999,512.001H213.334c-14.139,0-25.6-11.461-25.6-25.6V213.336c0-14.139,11.461-25.6,25.6-25.6
	h170.666c14.139,0,25.6,11.461,25.6,25.6v273.065C409.599,500.539,398.138,512.001,383.999,512.001z"/>
<path style="fill:#3E92DD;" d="M204.801,486.401V213.336c0-14.139,11.461-25.6,25.6-25.6h-17.067c-14.139,0-25.6,11.461-25.6,25.6
	v273.065c0,14.139,11.461,25.6,25.6,25.6H230.4C216.263,512.001,204.801,500.539,204.801,486.401z"/>
<path style="fill:#327CCF;" d="M375.466,290.135H221.867c-4.712,0-8.533-3.821-8.533-8.533v-59.733c0-4.713,3.821-8.533,8.533-8.533
	h153.599c4.712,0,8.533,3.821,8.533,8.533v59.733C383.999,286.315,380.18,290.135,375.466,290.135z"/>
<g>
	<path style="fill:#FDD349;" d="M324.267,401.068h-51.2c-4.712,0-8.533-3.821-8.533-8.533v-34.133c0-4.713,3.821-8.533,8.533-8.533
		h51.2c4.712,0,8.533,3.821,8.533,8.533v34.133C332.8,397.247,328.98,401.068,324.267,401.068z"/>
	<path style="fill:#FDD349;" d="M375.466,401.068h-25.6c-4.712,0-8.533-3.821-8.533-8.533v-34.133c0-4.713,3.821-8.533,8.533-8.533
		h25.6c4.712,0,8.533,3.821,8.533,8.533v34.133C383.999,397.247,380.18,401.068,375.466,401.068z"/>
	<path style="fill:#FDD349;" d="M247.467,401.068h-25.6c-4.712,0-8.533-3.821-8.533-8.533v-34.133c0-4.713,3.821-8.533,8.533-8.533
		h25.6c4.713,0,8.533,3.821,8.533,8.533v34.133C256,397.247,252.181,401.068,247.467,401.068z"/>
</g>
<g>
	<circle style="fill:#3C6168;" cx="247.466" cy="418.131" r="8.533"/>
	<circle style="fill:#3C6168;" cx="273.066" cy="418.131" r="8.533"/>
	<circle style="fill:#3C6168;" cx="298.666" cy="418.131" r="8.533"/>
	<circle style="fill:#3C6168;" cx="324.265" cy="418.131" r="8.533"/>
	<circle style="fill:#3C6168;" cx="349.865" cy="418.131" r="8.533"/>
	<circle style="fill:#3C6168;" cx="247.466" cy="443.731" r="8.533"/>
	<circle style="fill:#3C6168;" cx="273.066" cy="443.731" r="8.533"/>
	<circle style="fill:#3C6168;" cx="298.666" cy="443.731" r="8.533"/>
	<circle style="fill:#3C6168;" cx="324.265" cy="443.731" r="8.533"/>
	<circle style="fill:#3C6168;" cx="349.865" cy="443.731" r="8.533"/>
	<circle style="fill:#3C6168;" cx="247.466" cy="469.331" r="8.533"/>
	<circle style="fill:#3C6168;" cx="273.066" cy="469.331" r="8.533"/>
	<circle style="fill:#3C6168;" cx="298.666" cy="469.331" r="8.533"/>
	<circle style="fill:#3C6168;" cx="324.265" cy="469.331" r="8.533"/>
	<circle style="fill:#3C6168;" cx="349.865" cy="469.331" r="8.533"/>
</g>
<rect x="230.399" y="230.399" style="fill:#B6C4C6;" width="136.532" height="42.666"/>
<g>
	<polygon style="fill:#6D888E;" points="320.533,230.402 277.867,273.069 334.4,273.069 366.933,240.536 366.933,230.402 	"/>
	<polygon style="fill:#6D888E;" points="230.4,230.402 230.4,273.069 235.734,273.069 278.4,230.402 	"/>
	<polygon style="fill:#6D888E;" points="366.933,273.069 366.933,252.269 346.133,273.069 	"/>
</g>
<g>
	<path style="fill:#3C6168;" d="M341.333,315.735H256c-4.712,0-8.533-3.821-8.533-8.533c0-4.713,3.821-8.533,8.533-8.533h85.333
		c4.712,0,8.533,3.821,8.533,8.533C349.866,311.914,346.047,315.735,341.333,315.735z"/>
	<path style="fill:#3C6168;" d="M341.333,341.335H256c-4.712,0-8.533-3.821-8.533-8.533s3.821-8.533,8.533-8.533h85.333
		c4.712,0,8.533,3.821,8.533,8.533S346.047,341.335,341.333,341.335z"/>
</g>
<path style="fill:#FCAF27;" d="M396.405,90.323c-5.505,0-9.649-5.361-8.264-10.684c2.914-11.204,4.393-22.804,4.393-34.477
	s-1.478-23.272-4.393-34.478c-1.186-4.561,1.549-9.22,6.11-10.406c4.562-1.185,9.221,1.55,10.406,6.11
	c3.28,12.607,4.943,25.652,4.943,38.774s-1.663,26.167-4.943,38.774C403.658,87.777,400.196,90.323,396.405,90.323z"/>
<path id="SVGCleanerId_0" style="fill:#FCAF27;" d="M355.111,79.551c-5.505,0-9.649-5.361-8.264-10.684
	c2.003-7.703,3.02-15.679,3.02-23.705s-1.017-16.002-3.02-23.705c-1.186-4.561,1.549-9.22,6.11-10.406
	c4.563-1.186,9.22,1.549,10.406,6.11c2.369,9.105,3.57,18.527,3.57,28.002s-1.201,18.896-3.57,28.002
	C362.364,77.005,358.903,79.551,355.111,79.551z"/>
<path style="fill:#FCAF27;" d="M313.815,68.779c-5.505,0-9.649-5.361-8.264-10.685c1.094-4.205,1.649-8.556,1.649-12.932
	s-0.555-8.727-1.649-12.932c-1.187-4.561,1.549-9.22,6.11-10.407c4.558-1.187,9.22,1.548,10.407,6.11
	c1.459,5.607,2.199,11.404,2.199,17.23s-0.74,11.622-2.199,17.23C321.069,66.233,317.607,68.779,313.815,68.779z"/>
<g>
	<path id="SVGCleanerId_0_1_" style="fill:#FCAF27;" d="M355.111,79.551c-5.505,0-9.649-5.361-8.264-10.684
		c2.003-7.703,3.02-15.679,3.02-23.705s-1.017-16.002-3.02-23.705c-1.186-4.561,1.549-9.22,6.11-10.406
		c4.563-1.186,9.22,1.549,10.406,6.11c2.369,9.105,3.57,18.527,3.57,28.002s-1.201,18.896-3.57,28.002
		C362.364,77.005,358.903,79.551,355.111,79.551z"/>
</g>
<path style="fill:#FCAF27;" d="M115.597,90.323c-3.792,0-7.253-2.546-8.253-6.387c-3.28-12.607-4.943-25.652-4.943-38.774
	s1.663-26.167,4.943-38.774c1.186-4.561,5.844-7.299,10.406-6.11c4.561,1.186,7.296,5.845,6.11,10.406
	c-2.914,11.204-4.393,22.804-4.393,34.477s1.478,23.272,4.393,34.478C125.246,84.962,121.102,90.323,115.597,90.323z"/>
<path id="SVGCleanerId_1" style="fill:#FCAF27;" d="M156.891,79.551c-3.792,0-7.253-2.546-8.253-6.387
	c-2.369-9.106-3.57-18.527-3.57-28.002s1.201-18.897,3.57-28.002c1.186-4.561,5.843-7.298,10.406-6.11
	c4.561,1.186,7.296,5.845,6.11,10.406c-2.003,7.703-3.02,15.679-3.02,23.705c0,8.026,1.017,16.001,3.02,23.705
	C166.538,74.191,162.396,79.551,156.891,79.551z"/>
<path style="fill:#FCAF27;" d="M198.186,68.779c-3.792,0-7.253-2.546-8.253-6.386c-1.459-5.607-2.199-11.404-2.199-17.23
	s0.74-11.622,2.199-17.23c1.187-4.56,5.844-7.295,10.407-6.11c4.561,1.187,7.296,5.846,6.11,10.407
	c-1.094,4.205-1.649,8.556-1.649,12.932s0.555,8.727,1.649,12.932C207.835,63.418,203.691,68.779,198.186,68.779z"/>
<g>
	<path id="SVGCleanerId_1_1_" style="fill:#FCAF27;" d="M156.891,79.551c-3.792,0-7.253-2.546-8.253-6.387
		c-2.369-9.106-3.57-18.527-3.57-28.002s1.201-18.897,3.57-28.002c1.186-4.561,5.843-7.298,10.406-6.11
		c4.561,1.186,7.296,5.845,6.11,10.406c-2.003,7.703-3.02,15.679-3.02,23.705c0,8.026,1.017,16.001,3.02,23.705
		C166.538,74.191,162.396,79.551,156.891,79.551z"/>
</g>
<g>
</g>
<g>
</g>
<g>
</g>
<g>
</g>
<g>
</g>
<g>
</g>
<g>
</g>
<g>
</g>
<g>
</g>
<g>
</g>
<g>
</g>
<g>
</g>
<g>
</g>
<g>
</g>
<g>
</g>
</svg>
