<?xml version="1.0" encoding="iso-8859-1"?>
<!-- Generator: Adobe Illustrator 19.0.0, SVG Export Plug-In . SVG Version: 6.00 Build 0)  -->
<svg version="1.1" id="Capa_1" xmlns="http://www.w3.org/2000/svg" xmlns:xlink="http://www.w3.org/1999/xlink" x="0px" y="0px"
	 viewBox="0 0 512 512" style="enable-background:new 0 0 512 512;" xml:space="preserve">
<path style="fill:#ECF0F1;" d="M483.31,512H28.69C12.844,512,0,499.156,0,483.31V105.931h512V483.31
	C512,499.156,499.156,512,483.31,512z"/>
<path style="fill:#687492;" d="M512,105.931H0V28.69C0,12.844,12.844,0,28.69,0H483.31C499.156,0,512,12.844,512,28.69V105.931z"/>
<rect x="35.31" y="35.31" style="fill:#E64C3C;" width="35.31" height="35.31"/>
<rect x="105.931" y="35.31" style="fill:#F0C419;" width="35.31" height="35.31"/>
<rect x="176.552" y="35.31" style="fill:#24AE5F;" width="35.31" height="35.31"/>
<g>
	<path style="fill:#BDC3C7;" d="M0,450.207V167.724h170.311c13.197,0,23.896,10.699,23.896,23.896v234.69
		c0,13.197-10.699,23.896-23.896,23.896H0z"/>
	<path style="fill:#BDC3C7;" d="M459.034,211.862H256c-4.873,0-8.828-3.955-8.828-8.828c0-4.873,3.955-8.828,8.828-8.828h203.034
		c4.873,0,8.828,3.955,8.828,8.828C467.862,207.907,463.907,211.862,459.034,211.862z"/>
	<path style="fill:#BDC3C7;" d="M441.379,176.552H273.655c-4.873,0-8.828-3.955-8.828-8.828s3.955-8.828,8.828-8.828h167.724
		c4.873,0,8.828,3.955,8.828,8.828S446.252,176.552,441.379,176.552z"/>
</g>
<path style="fill:#24AE5F;" d="M459.034,282.483H256c-4.873,0-8.828-3.955-8.828-8.828v-35.31c0-4.873,3.955-8.828,8.828-8.828
	h203.034c4.873,0,8.828,3.955,8.828,8.828v35.31C467.862,278.528,463.907,282.483,459.034,282.483z"/>
<path style="fill:#F0C419;" d="M459.034,353.103H256c-4.873,0-8.828-3.955-8.828-8.828v-35.31c0-4.873,3.955-8.828,8.828-8.828
	h203.034c4.873,0,8.828,3.955,8.828,8.828v35.31C467.862,349.149,463.907,353.103,459.034,353.103z"/>
<path style="fill:#E64C3C;" d="M459.034,459.034H256c-4.873,0-8.828-3.955-8.828-8.828v-35.31c0-4.873,3.955-8.828,8.828-8.828
	h203.034c4.873,0,8.828,3.955,8.828,8.828v35.31C467.862,455.08,463.907,459.034,459.034,459.034z"/>
<rect x="123.586" y="291.31" style="fill:#ECF0F1;" width="35.31" height="35.31"/>
<rect y="203.034" style="fill:#8697CB;" width="88.276" height="211.862"/>
<g>
</g>
<g>
</g>
<g>
</g>
<g>
</g>
<g>
</g>
<g>
</g>
<g>
</g>
<g>
</g>
<g>
</g>
<g>
</g>
<g>
</g>
<g>
</g>
<g>
</g>
<g>
</g>
<g>
</g>
</svg>
