<svg height="512" viewBox="0 0 128 128" width="512" xmlns="http://www.w3.org/2000/svg"><g><g><path d="m98 101.318h-82.1v-74.636h96.2v60.536z" fill="#f6efea"/><path d="m15.9 26.682h96.199v16.917h-96.199z" fill="#0b607e"/><circle cx="26.902" cy="35.14" fill="#fc5c5f" r="2.902"/><circle cx="38.596" cy="35.14" fill="#feed48" r="2.902"/><circle cx="50.291" cy="35.14" fill="#7adb29" r="2.902"/><path d="m112.1 87.218h-14.1v14.1z" fill="#eee1dc"/></g><circle cx="41.339" cy="67.405" fill="#0b607e" r="15.911"/><circle cx="41.339" cy="64.979" fill="#f6efea" r="7.044"/><path d="m41.339 72.023a9.954 9.954 0 0 0 -9.75 7.951 15.893 15.893 0 0 0 19.5 0 9.954 9.954 0 0 0 -9.75-7.951z" fill="#7adb29"/><g fill="#0b607e"><path d="m82.554 56.935h-15.761a1.75 1.75 0 0 1 0-3.5h15.761a1.75 1.75 0 0 1 0 3.5z"/><path d="m103.677 68h-36.884a1.75 1.75 0 0 1 0-3.5h36.884a1.75 1.75 0 1 1 0 3.5z"/><path d="m103.677 79.065h-36.884a1.75 1.75 0 0 1 0-3.5h36.884a1.75 1.75 0 1 1 0 3.5z"/></g></g></svg>