<?xml version="1.0" encoding="iso-8859-1"?>
<!-- Generator: Adobe Illustrator 19.0.0, SVG Export Plug-In . SVG Version: 6.00 Build 0)  -->
<svg version="1.1" id="Layer_1" xmlns="http://www.w3.org/2000/svg" xmlns:xlink="http://www.w3.org/1999/xlink" x="0px" y="0px"
	 viewBox="0 0 512 512" style="enable-background:new 0 0 512 512;" xml:space="preserve">
<path style="fill:#878493;" d="M504,443.5H32v-216c0-4.418-3.582-8-8-8H8c-4.418,0-8,3.582-8,8v240c0,4.418,3.582,8,8,8h496
	c4.418,0,8-3.582,8-8v-16C512,447.082,508.418,443.5,504,443.5z"/>
<path style="fill:#AD7DC9;" d="M104,91.5H40c-4.418,0-8,3.582-8,8v336c0,4.418,3.582,8,8,8h64c4.418,0,8-3.582,8-8v-336
	C112,95.082,108.418,91.5,104,91.5z"/>
<path style="fill:#8A6CBD;" d="M48,435.5v-336c0-4.418,3.582-8,8-8H40c-4.418,0-8,3.582-8,8v336c0,4.418,3.582,8,8,8h16
	C51.582,443.5,48,439.918,48,435.5z"/>
<g>
	<rect x="32" y="139.5" style="fill:#FCDE76;" width="80" height="24"/>
	<rect x="32" y="307.5" style="fill:#FCDE76;" width="80" height="24"/>
	<rect x="32" y="355.5" style="fill:#FCDE76;" width="80" height="24"/>
</g>
<g>
	<rect x="32" y="139.5" style="fill:#FCCF6F;" width="16" height="24"/>
	<rect x="32" y="307.5" style="fill:#FCCF6F;" width="16" height="24"/>
	<rect x="32" y="355.5" style="fill:#FCCF6F;" width="16" height="24"/>
</g>
<path style="fill:#696578;" d="M376,147.5c-4.418,0-8-3.582-8-8V54.923c0-4.418,3.582-8,8-8s8,3.582,8,8V139.5
	C384,143.918,380.418,147.5,376,147.5z"/>
<path style="fill:#00B5B8;" d="M432.486,67.493c-5.709-9.865-16.325-15.993-27.705-15.993s-21.996,6.128-27.705,15.993
	c-1.435,2.479-1.435,5.536,0,8.015c5.709,9.865,16.325,15.993,27.705,15.993s21.996-6.128,27.705-15.993
	C433.921,73.028,433.921,69.972,432.486,67.493z"/>
<path style="fill:#E6608D;" d="M430.485,116.048c-11.625-5.984-30.273-9.534-54.485,5.808
	c-24.212-15.341-42.859-11.791-54.485-5.808C294.26,130.074,280,170.659,280,203.5c0,24.632,11.231,45.566,32.48,60.54
	c17.551,12.367,40.703,19.46,63.52,19.46s45.969-7.093,63.52-19.46C460.769,249.066,472,228.132,472,203.5
	C472,170.659,457.74,130.074,430.485,116.048z"/>
<path style="fill:#D4506F;" d="M392,272.068c-22.817,0-45.969-7.093-63.52-19.46C307.231,237.634,296,216.7,296,192.068
	c0-26.704,9.429-58.527,27.606-77.029c-0.719,0.327-1.418,0.664-2.091,1.01C294.26,130.074,280,170.659,280,203.5
	c0,24.632,11.231,45.566,32.48,60.54c17.551,12.367,40.703,19.46,63.52,19.46s45.969-7.093,63.52-19.46
	c2.906-2.048,5.618-4.212,8.147-6.477C431.354,266.842,411.56,272.068,392,272.068z"/>
<path style="fill:#FCDE76;" d="M235.245,424.367l-48.83-380.883c-0.562-4.383-4.577-7.483-8.952-6.918l-63.48,8.138
	c-2.104,0.27-4.016,1.365-5.313,3.043s-1.875,3.804-1.605,5.909l48.83,380.883c0.518,4.038,3.959,6.984,7.925,6.984
	c0.339,0,0.683-0.021,1.027-0.066l63.48-8.138c2.104-0.27,4.016-1.365,5.313-3.043S235.515,426.472,235.245,424.367z"/>
<g>
	
		<rect x="140.325" y="294.428" transform="matrix(-0.9919 0.1272 -0.1272 -0.9919 398.6732 595.3982)" style="fill:#F2821C;" width="80.002" height="32.001"/>
	<path style="fill:#F2821C;" d="M194.554,106.965l-8.138-63.48c-0.562-4.383-4.577-7.483-8.952-6.918l-63.48,8.138
		c-2.104,0.27-4.016,1.365-5.313,3.043s-1.875,3.804-1.605,5.909l8.138,63.481L194.554,106.965z"/>
	<polygon style="fill:#F2821C;" points="215.839,272.991 197.606,130.77 118.255,140.943 135.549,275.839 214.9,265.666 	"/>
	<path style="fill:#F2821C;" d="M235.245,424.367l-10.173-79.351l-79.351,10.173l10.173,79.35c0.518,4.038,3.959,6.984,7.925,6.984
		c0.339,0,0.683-0.021,1.027-0.066l63.48-8.138c2.104-0.27,4.016-1.365,5.313-3.043S235.515,426.472,235.245,424.367z"/>
</g>
<path style="fill:#FCCF6F;" d="M113.983,44.705c-2.104,0.27-4.016,1.365-5.313,3.043s-1.875,3.804-1.605,5.909l48.83,380.883
	c0.518,4.038,3.959,6.984,7.925,6.984c0.339,0,0.683-0.021,1.027-0.066l12.634-1.62L124.159,43.4L113.983,44.705z"/>
<g>
	<polygon style="fill:#E57712;" points="138.601,299.644 142.67,331.384 162.551,328.835 158.285,297.12 	"/>
	<path style="fill:#E57712;" d="M113.983,44.705c-2.104,0.27-4.016,1.365-5.313,3.043s-1.875,3.804-1.605,5.909l8.138,63.481
		l18.554-2.379L124.159,43.4L113.983,44.705z"/>
	<polygon style="fill:#E57712;" points="118.255,140.943 135.549,275.839 155.086,273.334 136.956,138.545 	"/>
	<path style="fill:#E57712;" d="M145.722,355.189l10.173,79.35c0.518,4.038,3.959,6.984,7.925,6.984
		c0.339,0,0.683-0.021,1.027-0.066l12.634-1.62l-11.731-87.216L145.722,355.189z"/>
</g>
<path style="fill:#FCDE76;" d="M504,307.5c4.418,0,8-3.582,8-8v-8c0-4.418-3.582-8-8-8H256c-8.822,0-16,7.178-16,16v128
	c0,8.822,7.178,16,16,16h248c4.418,0,8-3.582,8-8v-8c0-4.418-3.582-8-8-8h-80v-112H504z"/>
<path style="fill:#F0F0F1;" d="M480,307.5H272c-4.418,0-8,3.582-8,8v96c0,4.418,3.582,8,8,8h208c4.418,0,8-3.582,8-8v-96
	C488,311.082,484.418,307.5,480,307.5z"/>
<path style="fill:#E1E0E4;" d="M280,315.5h208c0-4.418-3.582-8-8-8H272c-4.418,0-8,3.582-8,8v96c0,4.418,3.582,8,8,8v-96
	C272,319.082,275.582,315.5,280,315.5z"/>
<g>
	<rect x="264" y="331.5" style="fill:#B4B2BB;" width="224" height="16"/>
	<rect x="264" y="379.5" style="fill:#B4B2BB;" width="224" height="16"/>
</g>
<g>
</g>
<g>
</g>
<g>
</g>
<g>
</g>
<g>
</g>
<g>
</g>
<g>
</g>
<g>
</g>
<g>
</g>
<g>
</g>
<g>
</g>
<g>
</g>
<g>
</g>
<g>
</g>
<g>
</g>
</svg>
