<svg id="Capa_1" enable-background="new 0 0 512 512" height="512" viewBox="0 0 512 512" width="512" xmlns="http://www.w3.org/2000/svg"><path d="m406.068 204.96h-94.396c-58.428 0-105.793 47.365-105.793 105.793v4.03c0 7.728 6.265 13.993 13.993 13.993h277.995c7.728 0 13.993-6.265 13.993-13.993v-4.03c.001-58.428-47.364-105.793-105.792-105.793z" fill="#586b76"/><path d="m200.189 354.273h-94.396c-58.428 0-105.793 47.365-105.793 105.792v4.03c0 7.728 6.265 13.993 13.993 13.993h277.995c7.728 0 13.993-6.265 13.993-13.993v-4.03c0-58.427-47.365-105.792-105.792-105.792z" fill="#d6e4ea"/><path d="m406.068 204.96h-35.161c58.428 0 105.793 47.365 105.793 105.793v4.03c0 7.728-6.265 13.993-13.993 13.993h35.161c7.728 0 13.993-6.265 13.993-13.993v-4.03c0-58.428-47.365-105.793-105.793-105.793z" fill="#465961"/><path d="m200.189 354.273h-35.161c58.428 0 105.793 47.365 105.793 105.793v4.03c0 7.728-6.265 13.993-13.993 13.993h35.161c7.728 0 13.993-6.265 13.993-13.993v-4.03c-.001-58.428-47.366-105.793-105.793-105.793z" fill="#c2d0da"/><path d="m373.568 248.263h-33.852c-17.293 0-31.311-14.018-31.311-31.311v-14.239h96.474v14.239c-.001 17.292-14.019 31.311-31.311 31.311z" fill="#ffcbbe"/><path d="m384.623 202.713v14.239c0 17.292-14.018 31.311-31.311 31.311h20.256c17.293 0 31.311-14.018 31.311-31.311v-14.239z" fill="#fdad9d"/><path d="m373.82 19.197h-34.356c-29.703 0-53.783 24.079-53.783 53.782v45.302h141.921v-45.302c0-29.703-24.079-53.782-53.782-53.782z" fill="#fcb143"/><path d="m373.82 19.197h-34.356c-.164 0-.325.011-.489.012 29.477.264 53.294 24.231 53.294 53.77v45.302h35.333v-45.302c0-29.703-24.079-53.782-53.782-53.782z" fill="#fba615"/><path d="m428.943 114.066c-.459-.034-.903-.043-1.341-.04v-16.18c0-17.217-13.957-31.174-31.174-31.174h-79.572c-17.217 0-31.174 13.957-31.174 31.174v16.216c-.745-.052-1.519-.055-2.328.005-11.572.852-20.522 7.402-19.51 21.132.982 13.34 11.007 28.545 22.19 28.616 3.496 34.638 32.74 61.674 68.299 61.674h4.62c35.576 0 64.829-27.062 68.303-61.722 10.778-.925 20.246-15.623 21.199-28.567 1.009-13.731-7.94-20.281-19.512-21.134z" fill="#ffcbbe"/><circle cx="326.528" cy="130.162" fill="#0a81f9" r="9.53"/><circle cx="386.744" cy="130.162" fill="#0a81f9" r="9.53"/><path d="m170.904 397.834h-33.852c-17.293 0-31.311-14.018-31.311-31.311v-14.239h96.474v14.239c0 17.292-14.019 31.311-31.311 31.311z" fill="#ffcbbe"/><path d="m181.959 352.283v14.239c0 17.293-14.018 31.311-31.311 31.311h20.256c17.293 0 31.311-14.018 31.311-31.311v-14.239z" fill="#fdad9d"/><path d="m165.032 166.71-67.231 25.597c-8.901 3.389-14.784 11.923-14.784 21.447v42.624h141.921v-48.374c0-30.945-30.987-52.305-59.906-41.294z" fill="#a64c31"/><path d="m165.032 166.71-1.918.73c15.347 6.667 26.68 21.856 26.68 40.564v48.374h35.144v-48.374c0-30.945-30.987-52.305-59.906-41.294z" fill="#8a3e25"/><path d="m226.279 263.637c-.459-.034-.903-.043-1.341-.04v-16.18c0-17.217-13.957-31.174-31.174-31.174h-79.572c-17.217 0-31.174 13.957-31.174 31.174v16.216c-.745-.052-1.519-.055-2.328.005-11.572.852-20.522 7.402-19.511 21.132.982 13.34 11.007 28.545 22.19 28.616 3.496 34.638 32.74 61.674 68.299 61.674h4.62c35.576 0 64.829-27.062 68.303-61.722 10.778-.925 20.246-15.623 21.199-28.567 1.011-13.731-7.939-20.282-19.511-21.134z" fill="#ffcbbe"/><circle cx="123.864" cy="279.732" fill="#8a3e25" r="9.53"/><circle cx="184.08" cy="279.732" fill="#8a3e25" r="9.53"/><path d="m162.817 329h-19.77c-4.268 0-7.727-3.46-7.727-7.727s3.46-7.727 7.727-7.727h19.77c4.268 0 7.727 3.46 7.727 7.727s-3.459 7.727-7.727 7.727z" fill="#fdad9d"/><path d="m356.016 185.292c-11.522 0-22.186-6.717-27.168-17.112-1.845-3.848-.22-8.464 3.628-10.308 3.849-1.845 8.463-.219 10.308 3.628 2.428 5.065 7.621 8.338 13.232 8.338s10.804-3.273 13.232-8.338c1.844-3.847 6.458-5.473 10.308-3.628 3.848 1.844 5.473 6.459 3.628 10.308-4.982 10.395-15.646 17.112-27.168 17.112z" fill="#fdad9d"/><path d="m88.157 145.961-20.855-1.116c-2.491-.133-4.382-2.308-4.161-4.793 3.153-35.476 20.785-68.146 48.842-90.196 29.254-22.991 67.043-32.241 103.686-25.379l-5.464 29.173c-28.235-5.288-57.351 1.836-79.883 19.542-21.422 16.836-34.954 41.718-37.553 68.782-.225 2.352-2.251 4.113-4.612 3.987z" fill="#fc6b55"/><path d="m63.622 135.618c-.182 1.473-.349 2.95-.481 4.433-.094 1.054.209 2.041.76 2.851-.164-2.431-.252-4.86-.279-7.284z" fill="#bfbfbf"/><path d="m196.099 22.341c-.193 6.642-5.313 12.118-11.933 12.695-24.47 2.133-47.431 13.237-64.297 31.392-17.87 19.239-27.335 44.72-26.53 70.835 3.638-25.228 16.811-48.219 36.984-64.073 22.532-17.706 51.648-24.83 79.883-19.542l5.464-29.173c-6.507-1.217-13.048-1.918-19.571-2.134z" fill="#fc534e"/><path d="m89.533 144.871-7.433.766 6.058.324c1.847.099 3.476-.966 4.211-2.558-.705.8-1.694 1.35-2.836 1.468z" fill="#bfbfbf"/><path d="m382.434 487.518c-7.993 0-16.026-.735-24.01-2.23l5.5-29.37c28.427 5.323 57.74-1.848 80.422-19.674 21.567-16.95 35.19-42 37.807-69.247.228-2.369 2.267-4.142 4.644-4.015l20.996 1.124c2.508.134 4.412 2.324 4.189 4.826-3.174 35.716-20.925 68.606-49.173 90.806-23.076 18.136-51.435 27.78-80.375 27.78z" fill="#fc6b55"/><path d="m507.793 364.106-11.021-.59c-3.382 35.382-21.066 67.922-49.085 89.943-23.077 18.136-51.436 27.781-80.376 27.781-2.69 0-5.385-.091-8.082-.258l-.807 4.307c7.984 1.495 16.017 2.23 24.01 2.23 28.94 0 57.299-9.645 80.376-27.781 28.247-22.2 45.999-55.09 49.173-90.806.224-2.502-1.68-4.692-4.188-4.826z" fill="#fc534e"/><path d="m245.823 41.312-23.042-31.772c-3.412-4.705-10.802-3-11.808 2.724l-9.451 53.786c-1.006 5.724 5.361 9.847 10.172 6.587l32.492-22.014c3.077-2.085 3.818-6.302 1.637-9.311z" fill="#fc6b55"/><path d="m245.865 41.371-23.181-31.965c-3.376-4.655-10.687-2.968-11.682 2.695l-.725 4.124 19.264 26.563c2.159 2.977 1.426 7.149-1.619 9.212l-26.094 17.68c1.406 3.64 6.026 5.56 9.729 3.05l32.689-22.148c3.045-2.062 3.778-6.235 1.619-9.211z" fill="#fc534e"/><path d="m331.039 470.417 23.286 32.109c3.412 4.705 10.802 3 11.808-2.724l9.551-54.357c1.006-5.724-5.361-9.847-10.172-6.587l-32.837 22.248c-3.077 2.085-3.818 6.302-1.636 9.311z" fill="#fc6b55"/><path d="m365.563 438.823-2.757 1.868-5.867 33.391c-1.002 5.702-8.363 7.4-11.761 2.714l-11.749-16.2-.777.526c-3.065 2.076-3.803 6.277-1.63 9.274l23.338 32.181c3.399 4.686 10.759 2.988 11.761-2.714l9.572-54.479c1.003-5.702-5.338-9.808-10.13-6.561z" fill="#fc534e"/><g fill="#fdad9d"><path d="m428.943 114.066c-.459-.034-.903-.043-1.341-.04v-16.18c0-17.217-13.957-31.174-31.174-31.174h-.253c5.861 5.668 9.51 13.608 9.51 22.405v58.991c0 37.915-30.736 68.651-68.651 68.651h-4.62c-4.849 0-9.578-.509-14.142-1.466 10.481 6.483 22.83 10.234 36.059 10.234h4.62c35.576 0 64.829-27.062 68.303-61.722 10.778-.925 20.246-15.623 21.199-28.567 1.011-13.729-7.938-20.279-19.51-21.132z"/><path d="m226.279 263.637c-.459-.034-.903-.043-1.341-.04v-16.18c0-17.217-13.957-31.174-31.174-31.174h-.253c5.861 5.668 9.51 13.608 9.51 22.405v58.991c0 37.915-30.736 68.651-68.651 68.651h-4.62c-4.849 0-9.578-.509-14.142-1.466 10.481 6.483 22.83 10.234 36.059 10.234h4.62c35.576 0 64.829-27.062 68.303-61.722 10.778-.925 20.246-15.623 21.199-28.567 1.012-13.729-7.938-20.28-19.51-21.132z"/></g></svg>