<svg height="466pt" viewBox="0 -1 466.66222 466" width="466pt" xmlns="http://www.w3.org/2000/svg"><path d="m16 .332031h320c8.835938 0 16 7.164063 16 16v432c0 8.835938-7.164062 16-16 16h-320c-8.835938 0-16-7.164062-16-16v-432c0-8.835937 7.164062-16 16-16zm0 0" fill="#57b7eb"/><path d="m200 400.332031c-79.527344 0-144-64.472656-144-144v-256h-40c-8.835938 0-16 7.164063-16 16v432c0 8.835938 7.164062 16 16 16h320c8.835938 0 16-7.164062 16-16v-48zm0 0" fill="#4891d3"/><path d="m72 48.332031h208v32h-208zm0 0" fill="#f9e109"/><g fill="#39519d"><path d="m256 120.332031h-160c-4.417969 0-8-3.582031-8-8s3.582031-8 8-8h160c4.417969 0 8 3.582031 8 8s-3.582031 8-8 8zm0 0"/><path d="m304 176.332031h-176c-4.417969 0-8-3.582031-8-8s3.582031-8 8-8h176c4.417969 0 8 3.582031 8 8s-3.582031 8-8 8zm0 0"/><path d="m216 224.332031h-160c-4.417969 0-8-3.582031-8-8s3.582031-8 8-8h160c4.417969 0 8 3.582031 8 8s-3.582031 8-8 8zm0 0"/><path d="m304 224.332031h-56c-4.417969 0-8-3.582031-8-8s3.582031-8 8-8h56c4.417969 0 8 3.582031 8 8s-3.582031 8-8 8zm0 0"/><path d="m136 264.332031h-80c-4.417969 0-8-3.582031-8-8s3.582031-8 8-8h80c4.417969 0 8 3.582031 8 8s-3.582031 8-8 8zm0 0"/><path d="m224 264.332031h-56c-4.417969 0-8-3.582031-8-8s3.582031-8 8-8h56c4.417969 0 8 3.582031 8 8s-3.582031 8-8 8zm0 0"/></g><path d="m280 80.332031h-208v-32zm0 0" fill="#fcbc04"/><path d="m152 372.332031c0 33.136719-26.863281 60-60 60s-60-26.863281-60-60 26.863281-60 60-60 60 26.863281 60 60zm0 0" fill="#f9e109"/><path d="m92 432.332031c25.980469-.007812 49.003906-16.734375 57.039062-41.441406-35.207031-13.359375-63.785156-39.980469-79.597656-74.160156-26.605468 10.792969-41.835937 38.917969-36.335937 67.09375 5.496093 28.175781 30.1875 48.511719 58.894531 48.507812zm0 0" fill="#fcbc04"/><path d="m192 408.332031c-.871094.027344-1.738281-.105469-2.558594-.402343-4.164062-1.402344-6.414062-5.90625-5.042968-10.078126l19.679687-59.039062c2.410156-7.207031 9.554687-11.722656 17.09375-10.8125 7.542969.910156 13.402344 7 14.027344 14.570312l2.722656 32 2.878906-4.878906c3.058594-5.335937 8.90625-8.445312 15.039063-8 6.035156.503906 11.269531 4.375 13.519531 10l5.121094 12.640625 23.28125-29.601562c1.320312-1.671875 3.253906-2.746094 5.371093-2.988281 2.117188-.238282 4.246094.375 5.90625 1.707031 3.433594 2.75 4.003907 7.75 1.28125 11.203125l-23.359374 29.679687c-3.5625 4.449219-9.21875 6.667969-14.855469 5.828125s-10.398438-4.613281-12.503907-9.910156l-4.960937-12.558594-2.960937 4.878906c-3.484376 5.921876-10.359376 8.957032-17.082032 7.542969-6.722656-1.410156-11.792968-6.960937-12.597656-13.78125l-2.71875-32.480469-19.28125 58.71875c-1.027344 3.53125-4.328125 5.90625-8 5.761719zm0 0" fill="#39519d"/><path d="m89.921875 395.050781c-4.226563.003907-8.28125-1.664062-11.28125-4.640625l-16.960937-16.960937c-1.515626-1.5-2.367188-3.546875-2.367188-5.679688 0-2.132812.851562-4.175781 2.367188-5.679687 3.121093-3.101563 8.160156-3.101563 11.28125 0l16.960937 16.960937 28.316406-28.238281c3.175781-2.71875 7.90625-2.535156 10.863281.417969 2.953126 2.957031 3.136719 7.6875.417969 10.859375l-28.238281 28.320312c-3.019531 2.996094-7.109375 4.664063-11.359375 4.640625zm0 0" fill="#39519d"/><path d="m395.25 155.738281 41.570312 24-72 124.710938-41.570312-24zm0 0" fill="#fcbc04"/><path d="m360.800781 215.371094-37.601562 64.960937 41.601562 24 12.160157-21.199219c-9.019532-21.566406-14.476563-44.449218-16.160157-67.761718zm0 0" fill="#e59730"/><path d="m364.800781 304.492188-41.601562-24-17.039063 45.519531 27.679688 16zm0 0" fill="#a1d51c"/><path d="m307.398438 327.464844 27.839843 16-8 13.917968c-4.417969 7.6875-14.230469 10.339844-21.917969 5.921876-7.6875-4.417969-10.339843-14.234376-5.921874-21.921876zm0 0" fill="#e59730"/><path d="m419.179688 114.203125 41.570312 24-24 41.570313-41.570312-24zm0 0" fill="#fcbc04"/><path d="m455.964844 98.496094c7.652344 4.417968 10.273437 14.203125 5.855468 21.855468l-8 13.855469-27.710937-16 8-13.855469c4.417969-7.652343 14.203125-10.277343 21.855469-5.855468zm0 0" fill="#c4f236"/><path d="m384.320312 174.753906 8-13.855468 41.570313 24-8 13.855468zm0 0" fill="#e59730"/><path d="m424.480469 273.050781c-1.402344.011719-2.78125-.347656-4-1.039062-1.839844-1.070313-3.175781-2.828125-3.714844-4.882813-.542969-2.054687-.242187-4.242187.835937-6.078125l32-55.441406c1.0625-1.839844 1.351563-4.027344.796876-6.078125-.550782-2.0625-1.902344-3.820312-3.757813-4.878906l-69.28125-40c-3.808594-2.199219-5.128906-7.058594-2.960937-10.882813 1.058593-1.851562 2.808593-3.203125 4.867187-3.757812 2.054687-.558594 4.25-.269531 6.09375.800781l69.28125 40c5.515625 3.175781 9.542969 8.410156 11.199219 14.558594 1.65625 6.15625.792968 12.71875-2.398438 18.238281l-32 55.441406c-1.4375 2.484375-4.09375 4.011719-6.960937 4zm0 0" fill="#39519d"/><path d="m448 104.332031c.039062-2.703125.417969-5.390625 1.121094-8-6.105469-.414062-11.914063 2.691407-14.960938 8l-8 13.839844 27.679688 16 4-6.878906c-6.300782-5.972657-9.863282-14.28125-9.839844-22.960938zm0 0" fill="#a1d51c"/></svg>