<svg height="512pt" viewBox="0 -4 512 511" width="512pt" xmlns="http://www.w3.org/2000/svg"><path d="m460.800781 299.234375v93.867187h-204.800781v-93.867187c.011719-4.707031 3.824219-8.519531 8.535156-8.53125h42.664063v-93.867187c.015625-4.707032 3.828125-8.519532 8.535156-8.535157h85.332031c4.707032.015625 8.519532 3.828125 8.535156 8.535157v93.867187h42.664063c4.707031.011719 8.519531 3.824219 8.535156 8.53125zm0 0" fill="#b19046"/><path d="m358.398438 290.703125v102.398437h-102.398438v-93.867187c.011719-4.707031 3.824219-8.519531 8.535156-8.53125zm0 0" fill="#e4c05c"/><path d="m409.601562 196.835938v93.867187h-102.402343v-93.867187c.015625-4.707032 3.828125-8.519532 8.535156-8.535157h85.332031c4.707032.015625 8.519532 3.828125 8.535156 8.535157zm0 0" fill="#f0c419"/><path d="m59.734375 393.101562h392.53125c28.277344 0 51.199219 22.925782 51.199219 51.199219 0 28.277344-22.921875 51.203125-51.199219 51.203125h-392.53125c-28.277344 0-51.199219-22.925781-51.199219-51.203125 0-28.273437 22.921875-51.199219 51.199219-51.199219zm0 0" fill="#95a5a5"/><path d="m250.507812 46.597656 25.628907 44.355469c1.132812 1.96875 1.433593 4.304687.835937 6.492187-.597656 2.191407-2.042968 4.050782-4.019531 5.167969l-27.210937 15.722657c2.332031 12.367187 2.324218 25.0625-.027344 37.425781l27.269531 15.746093c4.070313 2.363282 5.464844 7.574219 3.125 11.65625l-25.601563 44.339844c-2.367187 4.070313-7.574218 5.464844-11.65625 3.125l-27.269531-15.746094c-9.53125 8.21875-20.523437 14.574219-32.398437 18.738282l-.011719 31.425781c.015625 2.269531-.871094 4.453125-2.464844 6.0625-1.597656 1.613281-3.773437 2.523437-6.039062 2.527344l-51.230469-.015625c-2.253906-.007813-4.414062-.914063-6.003906-2.511719-1.589844-1.601563-2.476563-3.769531-2.46875-6.023437l.015625-31.425782c-11.886719-4.234375-22.90625-10.59375-32.519531-18.773437l-27.207032 15.71875c-1.949218 1.136719-4.269531 1.453125-6.453125.875-2.179687-.574219-4.042969-1.996094-5.175781-3.945313l-25.628906-44.351562c-1.132813-1.96875-1.433594-4.304688-.835938-6.492188.597656-2.191406 2.046875-4.050781 4.019532-5.167968l27.210937-15.726563c-2.332031-12.367187-2.324219-25.0625.027344-37.425781l-27.265625-15.742188c-4.070313-2.367187-5.464844-7.574218-3.125-11.660156l25.601562-44.339844c2.367188-4.066406 7.574219-5.464844 11.65625-3.121094l27.269532 15.742188c9.53125-8.214844 20.519531-14.570312 32.394531-18.738281l.011719-31.421875c-.015626-2.269532.871093-4.453125 2.464843-6.066406 1.597657-1.609376 3.773438-2.519532 6.039063-2.523438l51.230468.015625c2.253907.007813 4.414063.910156 6.003907 2.511719 1.589843 1.601562 2.476562 3.765625 2.46875 6.023437l-.015625 31.425781c11.890625 4.234376 22.90625 10.59375 32.519531 18.773438l27.207031-15.726562c1.949219-1.136719 4.269532-1.449219 6.453125-.875 2.179688.578124 4.042969 1.996093 5.175781 3.949218zm0 0" fill="#3f5c6c"/><path d="m187.742188 358.96875c-3.761719.003906-7.082032-2.457031-8.175782-6.054688-1.089844-3.601562.304688-7.492187 3.433594-9.578124l25.601562-17.066407c3.917969-2.5625 9.167969-1.488281 11.765626 2.410157 2.597656 3.894531 1.570312 9.15625-2.300782 11.789062l-25.601562 17.066406c-1.394532.9375-3.039063 1.433594-4.722656 1.433594zm0 0" fill="#e64c3c"/><path d="m213.332031 341.902344h-179.199219c-4.710937 0-8.53125-3.820313-8.53125-8.535156 0-4.710938 3.820313-8.53125 8.53125-8.53125h151.015626l-2.148438-1.433594c-3.871094-2.632813-4.898438-7.894532-2.300781-11.789063 2.597656-3.898437 7.847656-4.972656 11.765625-2.410156l25.601562 17.066406c3.128906 2.085938 4.523438 5.972657 3.433594 9.574219-1.089844 3.597656-4.40625 6.058594-8.167969 6.058594zm0 0" fill="#e64c3c"/><path d="m358.398438 273.636719c-4.710938 0-8.53125-3.820313-8.53125-8.535157v-34.132812c0-4.710938 3.820312-8.53125 8.53125-8.53125 4.714843 0 8.535156 3.820312 8.535156 8.53125v34.132812c0 4.714844-3.820313 8.535157-8.535156 8.535157zm0 0" fill="#e64c3c"/><path d="m375.464844 248.035156c-2.261719.003906-4.433594-.898437-6.03125-2.5l-11.035156-11.03125-11.03125 11.03125c-3.347657 3.234375-8.671876 3.1875-11.964844-.105468-3.289063-3.289063-3.335938-8.613282-.101563-11.960938l17.066407-17.066406c1.597656-1.601563 3.769531-2.5 6.03125-2.5 2.265624 0 4.433593.898437 6.035156 2.5l17.066406 17.066406c2.441406 2.441406 3.167969 6.109375 1.847656 9.300781-1.320312 3.1875-4.429687 5.265625-7.882812 5.265625zm0 0" fill="#e64c3c"/><g fill="#56595e"><path d="m443.734375 444.300781c0 9.425781-7.640625 17.066407-17.066406 17.066407s-17.066407-7.640626-17.066407-17.066407 7.640626-17.066406 17.066407-17.066406 17.066406 7.640625 17.066406 17.066406zm0 0"/><path d="m375.464844 444.300781c0 9.425781-7.640625 17.066407-17.066406 17.066407-9.425782 0-17.066407-7.640626-17.066407-17.066407s7.640625-17.066406 17.066407-17.066406c9.425781 0 17.066406 7.640625 17.066406 17.066406zm0 0"/><path d="m307.199219 444.300781c0 9.425781-7.640625 17.066407-17.066407 17.066407-9.425781 0-17.066406-7.640626-17.066406-17.066407s7.640625-17.066406 17.066406-17.066406c9.425782 0 17.066407 7.640625 17.066407 17.066406zm0 0"/><path d="m238.933594 444.300781c0 9.425781-7.640625 17.066407-17.066406 17.066407-9.425782 0-17.066407-7.640626-17.066407-17.066407s7.640625-17.066406 17.066407-17.066406c9.425781 0 17.066406 7.640625 17.066406 17.066406zm0 0"/><path d="m170.667969 444.300781c0 9.425781-7.640625 17.066407-17.066407 17.066407-9.425781 0-17.066406-7.640626-17.066406-17.066407s7.640625-17.066406 17.066406-17.066406c9.425782 0 17.066407 7.640625 17.066407 17.066406zm0 0"/><path d="m102.398438 444.300781c0 9.425781-7.640626 17.066407-17.066407 17.066407s-17.066406-7.640626-17.066406-17.066407 7.640625-17.066406 17.066406-17.066406 17.066407 7.640625 17.066407 17.066406zm0 0"/></g><path d="m452.265625 504.035156h-392.53125c-32.992187 0-59.734375-26.742187-59.734375-59.734375 0-32.988281 26.742188-59.730469 59.734375-59.730469h392.53125c32.992187 0 59.734375 26.742188 59.734375 59.730469 0 32.992188-26.742188 59.734375-59.734375 59.734375zm-392.53125-102.398437c-23.566406 0-42.667969 19.101562-42.667969 42.664062 0 23.566407 19.101563 42.667969 42.667969 42.667969h392.53125c23.566406 0 42.667969-19.101562 42.667969-42.667969 0-23.5625-19.101563-42.664062-42.667969-42.664062zm0 0" fill="#393f4a"/><path d="m213.332031 137.066406c0 37.703125-30.5625 68.269532-68.265625 68.269532s-68.265625-30.566407-68.265625-68.269532c0-37.699218 30.5625-68.265625 68.265625-68.265625s68.265625 30.566407 68.265625 68.265625zm0 0" fill="#547580"/><path d="m179.199219 137.066406c0 18.851563-15.28125 34.136719-34.132813 34.136719-18.851562 0-34.132812-15.285156-34.132812-34.136719 0-18.847656 15.28125-34.132812 34.132812-34.132812 18.851563 0 34.132813 15.285156 34.132813 34.132812zm0 0" fill="#95a5a5"/></svg>