<?xml version="1.0" encoding="iso-8859-1"?>
<!-- Generator: Adobe Illustrator 16.0.0, SVG Export Plug-In . SVG Version: 6.00 Build 0)  -->
<!DOCTYPE svg PUBLIC "-//W3C//DTD SVG 1.1//EN" "http://www.w3.org/Graphics/SVG/1.1/DTD/svg11.dtd">
<svg version="1.1" id="Capa_1" xmlns="http://www.w3.org/2000/svg" xmlns:xlink="http://www.w3.org/1999/xlink" x="0px" y="0px"
	 width="556.43px" height="556.43px" viewBox="0 0 556.43 556.43" style="enable-background:new 0 0 556.43 556.43;"
	 xml:space="preserve">
<g>
	<g>
		<path d="M449.856,556.416c-13.28,0-25.736-5.141-35.071-14.473L278.227,406.049L141.655,541.955
			c-9.32,9.32-21.773,14.461-35.054,14.461s-25.734-5.141-35.067-14.475L14.5,484.91c-19.334-19.336-19.334-50.799-0.001-70.139
			l135.593-136.561L14.487,141.641C-4.83,122.323-4.833,90.857,14.5,71.516l57.035-57.025c9.332-9.335,21.786-14.477,35.067-14.477
			c13.28,0,25.735,5.142,35.067,14.478l136.557,137.142L414.773,14.498c9.347-9.345,21.802-14.484,35.081-14.484
			c13.282,0,25.739,5.142,35.074,14.478l57.024,57.023c9.335,9.336,14.477,21.791,14.477,35.072
			c0,13.281-5.143,25.735-14.479,35.068L404.512,278.213l137.424,136.545c9.353,9.35,14.494,21.803,14.494,35.084
			s-5.143,25.734-14.479,35.068l-57.021,57.031C475.593,551.275,463.138,556.416,449.856,556.416z M278.227,384.686l147.253,146.537
			c6.487,6.486,15.141,10.051,24.377,10.051c9.237,0,17.891-3.564,24.366-10.039l57.021-57.031
			c6.477-6.475,10.042-15.125,10.042-24.359c0-9.236-3.565-17.887-10.04-24.359L383.027,278.213l148.234-147.284
			c6.458-6.457,10.024-15.107,10.024-24.343s-3.566-17.889-10.041-24.364l-57.024-57.023c-6.476-6.476-15.128-10.042-24.366-10.042
			c-9.235,0-17.888,3.566-24.363,10.039l-147.265,147.9L130.949,25.188c-6.462-6.464-15.112-10.03-24.348-10.03
			c-9.235,0-17.886,3.565-24.359,10.041L25.208,82.223c-13.429,13.435-13.428,35.294,0.005,48.728l146.22,147.262L25.228,425.459
			c-13.449,13.453-13.449,35.312-0.019,48.744l57.033,57.031c6.473,6.473,15.124,10.039,24.36,10.039
			c9.235,0,17.886-3.566,24.359-10.039L278.227,384.686z"/>
	</g>
</g>
<g>
</g>
<g>
</g>
<g>
</g>
<g>
</g>
<g>
</g>
<g>
</g>
<g>
</g>
<g>
</g>
<g>
</g>
<g>
</g>
<g>
</g>
<g>
</g>
<g>
</g>
<g>
</g>
<g>
</g>
</svg>
