<?xml version="1.0" encoding="iso-8859-1"?>
<!-- Generator: Adobe Illustrator 19.0.0, SVG Export Plug-In . SVG Version: 6.00 Build 0)  -->
<svg version="1.1" id="Capa_1" xmlns="http://www.w3.org/2000/svg" xmlns:xlink="http://www.w3.org/1999/xlink" x="0px" y="0px"
	 viewBox="0 0 512.001 512.001" style="enable-background:new 0 0 512.001 512.001;" xml:space="preserve">
<g>
	<path style="fill:#DBD9DC;" d="M263.147,452.597c-7.782,1.06-15.742,1.597-23.661,1.597c-64.753,0-122.495-35.13-152.521-90.976
		l17.432,11.654c3.806,2.536,8.927,1.52,11.452-2.278c2.54-3.79,1.516-8.919-2.274-11.456L73.543,334.38
		c-2.403-1.617-5.5-1.835-8.113-0.601c-2.621,1.238-4.403,3.762-4.694,6.649l-4.774,47.915c-0.452,4.536,2.863,8.585,7.395,9.036
		c0.282,0.028,0.556,0.04,0.831,0.04c4.194,0,7.782-3.177,8.21-7.44l1.592-15.974c33.313,59.473,95.71,96.704,165.496,96.704
		c8.661,0,17.379-0.589,25.887-1.75c4.524-0.617,7.685-4.778,7.073-9.298C271.824,455.141,267.679,451.972,263.147,452.597z"/>
	<path style="fill:#DBD9DC;" d="M384.808,157.04l-15.266-45.665c-1.444-4.323-6.089-6.669-10.452-5.214
		c-4.323,1.444-6.653,6.125-5.21,10.448l5.732,17.145c-33.708-27.479-76.258-42.915-120.127-42.915
		c-20.677,0-41.008,3.302-60.435,9.819c-4.323,1.452-6.653,6.133-5.202,10.456c1.452,4.327,6.145,6.649,10.46,5.206
		c17.726-5.948,36.29-8.964,55.177-8.964c40.088,0,78.969,14.117,109.759,39.245l-18.371-3.1c-4.484-0.79-8.75,2.274-9.516,6.766
		c-0.758,4.496,2.274,8.758,6.774,9.516l47.476,8.016c0.452,0.081,0.911,0.117,1.371,0.117c2.387,0,4.694-1.04,6.274-2.891
		C385.139,162.823,385.727,159.79,384.808,157.04z"/>
</g>
<path style="fill:#B48764;" d="M160.244,206.672l-33.914-12.718c-6.446-2.417-10.717-8.58-10.717-15.465v-13.328H66.066v13.329
	c0,6.885-4.271,13.047-10.717,15.464l-33.914,12.718c-12.893,4.835-21.434,17.16-21.434,30.929v59.689
	c0,9.122,7.395,16.516,16.516,16.516h148.645c9.122,0,16.516-7.395,16.516-16.516v-59.689
	C181.678,223.832,173.137,211.507,160.244,206.672z"/>
<path style="fill:#966D50;" d="M90.84,189.935c9.273,0,18.117-1.783,26.31-4.899c-0.897-2.047-1.537-4.217-1.537-6.547v-13.328
	H66.066v13.329c0,2.33-0.639,4.498-1.536,6.546C72.723,188.152,81.568,189.935,90.84,189.935z"/>
<path style="fill:#5D5360;" d="M16.518,313.806h148.645c9.122,0,16.516-7.395,16.516-16.516v-59.689
	c0-13.769-8.541-26.094-21.434-30.929l-32.618-12.232l-25.107,25.107c-6.45,6.45-16.907,6.45-23.357,0L54.054,194.44l-32.619,12.232
	c-12.893,4.835-21.434,17.16-21.434,30.929v59.689C0.002,306.412,7.396,313.806,16.518,313.806z"/>
<path style="fill:#C39772;" d="M90.84,173.419L90.84,173.419c-31.926,0-57.807-25.881-57.807-57.806V90.839
	c0-31.926,25.881-57.806,57.806-57.806l0,0c31.926,0,57.806,25.881,57.806,57.806v24.774
	C148.647,147.539,122.766,173.419,90.84,173.419z"/>
<path style="fill:#B48764;" d="M66.066,115.613V90.839c0-26.182,17.418-48.271,41.29-55.381c-5.236-1.559-10.773-2.425-16.516-2.425
	c-31.925,0-57.806,25.881-57.806,57.806v24.774c0,31.925,25.881,57.806,57.806,57.806c5.743,0,11.28-0.866,16.516-2.425
	C83.484,163.884,66.066,141.795,66.066,115.613z"/>
<g>
	<path style="fill:#6F6571;" d="M25.778,240.485L5.215,219.923c-3.293,5.181-5.214,11.253-5.214,17.677v59.69
		c0,9.121,7.395,16.516,16.516,16.516h16.516v-55.803C33.034,251.433,30.424,245.132,25.778,240.485z"/>
	<path style="fill:#6F6571;" d="M155.902,240.485l20.563-20.562c3.293,5.181,5.214,11.253,5.214,17.677v59.69
		c0,9.121-7.395,16.516-16.516,16.516h-16.516v-55.803C148.646,251.433,151.256,245.132,155.902,240.485z"/>
	<path style="fill:#6F6571;" d="M82.582,222.1v91.707h16.516V222.1C93.992,225.064,87.687,225.064,82.582,222.1z"/>
</g>
<circle style="fill:#6E4B53;" cx="90.841" cy="33.03" r="33.03"/>
<path style="fill:#5C414B;" d="M33.034,90.839v18.532c9.147-4.332,20.351-11.165,28.923-21.33c2.505-2.97,6.789-3.583,10.176-1.68
	c10.887,6.116,36.415,17.764,76.514,20.399V90.839c0-31.926-25.881-57.806-57.806-57.806l0,0
	C58.915,33.032,33.034,58.913,33.034,90.839z"/>
<path style="fill:#503441;" d="M59.281,42.443C43.489,52.762,33.034,70.567,33.034,90.839v18.532
	c9.147-4.332,20.351-11.165,28.923-21.33c1.314-1.558,3.12-2.426,5.026-2.664C60.865,73.751,56.087,58.59,59.281,42.443z"/>
<path style="fill:#E6AF78;" d="M492.384,373.886L447.486,353.1c-5.965-2.761-9.809-8.923-9.809-15.722v-31.83l-66.064,0.001v31.83
	c0,6.799-3.844,12.96-9.808,15.721l-44.898,20.786c-11.929,5.523-19.616,17.845-19.616,31.443v89.467
	c0,9.502,7.395,17.204,16.516,17.204h181.676c9.122,0,16.516-7.703,16.516-17.204V405.33
	C512,391.731,504.313,379.409,492.384,373.886z"/>
<path style="fill:#5D5360;" d="M313.808,512l181.676-0.001c9.121,0,16.516-7.703,16.516-17.204V405.33
	c0-13.598-7.688-25.921-19.617-31.444l-44.592-20.644l-31.466,31.466c-6.45,6.45-16.907,6.45-23.357,0l-31.467-31.467
	l-44.593,20.645c-11.929,5.523-19.616,17.845-19.616,31.443v89.467C297.292,504.297,304.686,512,313.808,512z"/>
<path style="fill:#D29B6E;" d="M371.614,305.549v31.83c0,3.151-0.899,6.124-2.379,8.726c10.533,5.732,22.599,8.992,35.411,8.992
	s24.877-3.259,35.41-8.991c-1.48-2.602-2.379-5.576-2.379-8.727v-31.83L371.614,305.549z"/>
<path style="fill:#F0C087;" d="M404.647,338.581L404.647,338.581c-31.926,0-57.807-25.881-57.807-57.806v-49.548h115.613v49.548
	C462.453,312.7,436.572,338.581,404.647,338.581z"/>
<path style="fill:#E6AF78;" d="M379.872,280.774v-49.548H346.84v49.548c0,31.925,25.881,57.806,57.806,57.806
	c5.743,0,11.28-0.866,16.516-2.425C397.29,329.045,379.872,306.956,379.872,280.774z"/>
<path style="fill:#5C414B;" d="M412.905,189.935h-16.516c-31.926,0-57.806,25.881-57.807,57.806v13.211
	c0,6.12,6.493,10.275,11.906,7.42c8.378-4.419,18.204-12.662,24.808-21.556c2.667-3.592,7.795-4.124,11.38-1.449
	c26.204,19.554,62.703,15.059,77.458,12.145c3.845-0.759,6.578-4.168,6.578-8.087v-1.684
	C470.711,215.816,444.83,189.935,412.905,189.935z"/>
<path style="fill:#503441;" d="M350.488,268.372c8.378-4.419,18.204-12.663,24.807-21.556c1.011-1.361,2.419-2.138,3.919-2.612
	c-11.675-16.252-12.471-34.368-11.021-46.903c-17.659,9.893-29.612,28.76-29.612,50.441v13.21
	C338.582,267.072,345.075,271.227,350.488,268.372z"/>
<g>
	<path style="fill:#6F6571;" d="M338.582,439.681c0-6.571-2.61-12.872-7.256-17.518l-31.061-31.06
		c-1.914,4.387-2.973,9.217-2.973,14.226v89.467c0,9.502,7.395,17.205,16.516,17.205h24.774L338.582,439.681L338.582,439.681z"/>
	<path style="fill:#6F6571;" d="M470.71,439.681c0-6.571,2.61-12.872,7.256-17.518l31.061-31.06
		c1.914,4.387,2.973,9.217,2.973,14.226v89.467c0,9.502-7.395,17.205-16.516,17.205H470.71L470.71,439.681L470.71,439.681z"/>
	<path style="fill:#6F6571;" d="M396.389,387.261V512l16.516-0.001V387.261C407.799,390.225,401.494,390.225,396.389,387.261z"/>
</g>
<g>
</g>
<g>
</g>
<g>
</g>
<g>
</g>
<g>
</g>
<g>
</g>
<g>
</g>
<g>
</g>
<g>
</g>
<g>
</g>
<g>
</g>
<g>
</g>
<g>
</g>
<g>
</g>
<g>
</g>
</svg>
