<?xml version="1.0"?>
<svg xmlns="http://www.w3.org/2000/svg" viewBox="0 0 64 64" width="512" height="512"><path d="m50 62v-60h-36v60" fill="#788bf9"/><path d="m54.97009 44.20892a6 6 0 1 0 -5.94018 0c-4.07251.60059-7.02991 2.48096-7.02991 5.43808v12.353h20v-12.353c0-2.95712-2.9574-4.83749-7.02991-5.43808z" fill="#f4cfcb"/><path d="m34.97009 44.20892a6 6 0 1 0 -5.94018 0c-4.07251.60059-7.02991 2.48096-7.02991 5.43808v12.353h20v-12.353c0-2.95712-2.9574-4.83749-7.02991-5.43808z" fill="#f47673"/><path d="m14.97009 44.20892a6 6 0 1 0 -5.94018 0c-4.07251.60059-7.02991 2.48096-7.02991 5.43808v12.353h20v-12.353c0-2.95712-2.9574-4.83749-7.02991-5.43808z" fill="#f4938c"/><path d="m35.815 19.882-3.738-1.981-3.678 2.099.645-4.332-3.044-3.012 4.137-.696 1.797-3.96 1.911 3.901 4.155.565-2.956 3.107z" fill="#de2f55"/><g fill="#a6e0f4"><path d="m41 7h2v2h-2z"/><path d="m41 11h2v2h-2z"/><path d="m41 15h2v2h-2z"/><path d="m41 19h2v2h-2z"/><path d="m21 7h2v2h-2z"/><path d="m21 11h2v2h-2z"/><path d="m21 15h2v2h-2z"/><path d="m21 19h2v2h-2z"/><path d="m41 23h2v2h-2z"/><path d="m45 7h2v2h-2z"/><path d="m45 11h2v2h-2z"/><path d="m45 15h2v2h-2z"/><path d="m45 19h2v2h-2z"/><path d="m45 23h2v2h-2z"/><path d="m37 23h2v2h-2z"/><path d="m33 23h2v2h-2z"/><path d="m29 23h2v2h-2z"/><path d="m25 23h2v2h-2z"/><path d="m21 23h2v2h-2z"/><path d="m17 7h2v2h-2z"/><path d="m17 11h2v2h-2z"/><path d="m17 15h2v2h-2z"/><path d="m17 19h2v2h-2z"/><path d="m17 23h2v2h-2z"/><path d="m41 27h2v2h-2z"/><path d="m45 27h2v2h-2z"/><path d="m37 27h2v2h-2z"/><path d="m33 27h2v2h-2z"/><path d="m29 27h2v2h-2z"/><path d="m25 27h2v2h-2z"/><path d="m21 27h2v2h-2z"/><path d="m17 27h2v2h-2z"/></g><path d="m7 17a.99943.99943 0 0 1 -1-1 3.00328 3.00328 0 0 0 -3-3 1 1 0 0 1 0-2 3.00328 3.00328 0 0 0 3-3 1 1 0 0 1 2 0 3.00328 3.00328 0 0 0 3 3 1 1 0 0 1 0 2 3.00328 3.00328 0 0 0 -3 3 .99943.99943 0 0 1 -1 1zm-1.00293-5a5.03114 5.03114 0 0 1 1.00293 1.00293 5.03114 5.03114 0 0 1 1.00293-1.00293 5.03114 5.03114 0 0 1 -1.00293-1.00293 5.03114 5.03114 0 0 1 -1.00293 1.00293z" fill="#e9cd4b"/><path d="m57 25a.99943.99943 0 0 1 -1-1 3.00328 3.00328 0 0 0 -3-3 1 1 0 0 1 0-2 3.00328 3.00328 0 0 0 3-3 1 1 0 0 1 2 0 3.00328 3.00328 0 0 0 3 3 1 1 0 0 1 0 2 3.00328 3.00328 0 0 0 -3 3 .99943.99943 0 0 1 -1 1zm-1.00293-5a5.03114 5.03114 0 0 1 1.00293 1.00293 5.03114 5.03114 0 0 1 1.00293-1.00293 5.03114 5.03114 0 0 1 -1.00293-1.00293 5.03114 5.03114 0 0 1 -1.00293 1.00293z" fill="#e9cd4b"/></svg>
