<svg height="512pt" viewBox="0 0 512 512" width="512pt" xmlns="http://www.w3.org/2000/svg"><path d="m507 305.410156v-98.820312h-44.367188c-5.203124-21.8125-13.84375-42.65625-25.601562-61.75l31.386719-31.386719-69.871094-69.875-31.386719 31.386719c-19.09375-11.757813-39.9375-20.398438-61.75-25.597656v-44.367188h-98.820312v44.367188c-21.8125 5.199218-42.65625 13.839843-61.75 25.597656l-31.386719-31.386719-69.875 69.875 31.386719 31.386719c-11.757813 19.09375-20.398438 39.9375-25.597656 61.75h-44.367188v98.820312h44.367188c5.199218 21.8125 13.839843 42.65625 25.597656 61.75l-31.386719 31.386719 69.875 69.875 31.386719-31.386719c19.09375 11.757813 39.9375 20.402344 61.75 25.601563v44.363281h98.820312v-44.367188c21.8125-5.203124 42.65625-13.84375 61.75-25.601562l31.386719 31.386719 69.875-69.878907-31.386719-31.382812c11.757813-19.09375 20.402344-39.9375 25.601563-61.75zm0 0" fill="#e6e6e6"/><path d="m398.546875 256c0 78.726562-63.820313 142.546875-142.546875 142.546875s-142.546875-63.820313-142.546875-142.546875 63.820313-142.546875 142.546875-142.546875 142.546875 63.820313 142.546875 142.546875zm0 0" fill="#90a4ae"/><path d="m256 184.171875-73.339844 63.824219v79.832031h146.679688v-79.832031zm0 0" fill="#e6e6e6"/><path d="m287.878906 327.828125h-63.757812v-59.65625h63.757812zm0 0" fill="#90caf9"/><path d="m462.632812 206.589844c-5.203124-21.8125-13.84375-42.65625-25.601562-61.75l31.386719-31.386719-35.6875-35.691406-354.96875 354.96875 35.691406 35.691406 31.386719-31.386719c19.09375 11.757813 39.9375 20.402344 61.75 25.601563v2.679687l258.71875-258.726562zm0 0" fill="#bdbdbd"/><path d="m206.589844 465.308594v41.691406h98.820312v-44.367188c21.8125-5.203124 42.65625-13.84375 61.75-25.601562l31.386719 31.386719 69.875-69.878907-31.386719-31.382812c11.757813-19.09375 20.402344-39.9375 25.601563-61.75h44.363281v-98.816406h-41.691406zm0 0" fill="#757575"/><path d="m398.546875 256c.046875-38.183594-15.277344-74.78125-42.515625-101.539062l-201.570312 201.570312c26.757812 27.238281 63.355468 42.558594 101.539062 42.515625 6.203125 0 12.402344-.402344 18.554688-1.203125l122.789062-122.789062c.800781-6.152344 1.203125-12.351563 1.203125-18.554688zm0 0" fill="#78909c"/><path d="m397.34375 274.554688-122.789062 122.789062c64.003906-8.421875 114.367187-58.785156 122.789062-122.789062zm0 0" fill="#546e7a"/><path d="m329.339844 247.996094-35.742188-31.101563-110.933594 110.933594h146.675782zm0 0" fill="#bdbdbd"/><path d="m287.878906 268.171875h-45.558594l-18.199218 18.195313v41.460937h63.757812zm0 0" fill="#64b5f6"/><path d="m305.410156 512h-98.820312c-2.761719 0-5-2.238281-5-5v-40.457031c-19.660156-5.0625-38.503906-12.871094-55.980469-23.199219l-28.621094 28.613281c-1.949219 1.953125-5.117187 1.953125-7.070312 0l-69.875-69.878906c-1.953125-1.949219-1.953125-5.117187 0-7.066406l28.617187-28.621094c-10.328125-17.476563-18.136718-36.320313-23.199218-55.980469h-40.460938c-2.761719 0-5-2.238281-5-5v-98.820312c0-2.761719 2.238281-5 5-5h40.457031c5.0625-19.660156 12.871094-38.503906 23.199219-55.980469l-28.613281-28.621094c-1.953125-1.949219-1.953125-5.117187 0-7.066406l69.875-69.878906c1.953125-1.953125 5.121093-1.953125 7.070312 0l28.621094 28.617187c17.476563-10.328125 36.320313-18.136718 55.980469-23.199218v-40.460938c0-2.761719 2.238281-5 5-5h98.820312c2.761719 0 5 2.238281 5 5v40.457031c19.660156 5.0625 38.503906 12.871094 55.980469 23.199219l28.621094-28.617188c1.953125-1.953124 5.117187-1.953124 7.070312 0l69.875 69.875c1.953125 1.953126 1.953125 5.121094 0 7.070313l-28.617187 28.621094c10.328125 17.476562 18.136718 36.320312 23.199218 55.980469h40.460938c2.761719 0 5 2.238281 5 5v98.820312c0 2.761719-2.238281 5-5 5h-40.457031c-5.0625 19.660156-12.871094 38.503906-23.199219 55.980469l28.617188 28.621093c1.953124 1.949219 1.953124 5.117188 0 7.066407l-69.875 69.878906c-1.953126 1.953125-5.117188 1.953125-7.070313 0l-28.621094-28.617187c-17.476562 10.328124-36.320312 18.136718-55.980469 23.199218v40.464844c0 2.761719-2.242187 5.003906-5.003906 5zm-93.820312-10h88.820312v-39.367188c0-2.316406 1.589844-4.328124 3.839844-4.863281 21.296875-5.074219 41.648438-13.511719 60.289062-24.992187 1.972657-1.210938 4.519532-.914063 6.15625.726562l27.851563 27.847656 62.804687-62.804687-27.851562-27.847656c-1.636719-1.636719-1.9375-4.183594-.722656-6.152344 11.480468-18.640625 19.917968-38.992187 24.988281-60.289063.535156-2.253906 2.550781-3.84375 4.863281-3.84375h39.371094v-88.824218h-39.367188c-2.316406 0-4.328124-1.589844-4.863281-3.839844-5.074219-21.296875-13.511719-41.648438-24.992187-60.289062-1.210938-1.972657-.914063-4.519532.726562-6.15625l27.847656-27.851563-62.804687-62.804687-27.847656 27.851562c-1.636719 1.636719-4.183594 1.9375-6.152344.722656-18.640625-11.480468-38.992187-19.917968-60.289063-24.988281-2.253906-.535156-3.84375-2.550781-3.84375-4.863281v-39.371094h-88.824218v39.367188c0 2.316406-1.589844 4.328124-3.839844 4.863281-21.296875 5.074219-41.648438 13.511719-60.289062 24.992187-1.972657 1.214844-4.523438.914063-6.160157-.722656l-27.847656-27.851562-62.804687 62.804687 27.851562 27.851563c1.636719 1.636718 1.933594 4.183593.722656 6.15625-11.484375 18.640624-19.917968 38.992187-24.992187 60.289062-.535157 2.25-2.546875 3.839844-4.863281 3.839844h-39.367188v88.820312h39.367188c2.316406 0 4.328124 1.589844 4.863281 3.839844 5.074219 21.296875 13.507812 41.648438 24.992187 60.289062 1.214844 1.972657.914063 4.523438-.722656 6.160157l-27.851562 27.851562 62.808593 62.804688 27.84375-27.855469c1.636719-1.636719 4.183594-1.9375 6.152344-.722656 18.644531 11.480468 38.996094 19.914062 60.292969 24.988281 2.25.535156 3.839844 2.550781 3.839844 4.863281zm0 0" fill="#424242"/><path d="m256 403.546875c-81.355469 0-147.546875-66.191406-147.546875-147.546875s66.191406-147.546875 147.546875-147.546875 147.546875 66.191406 147.546875 147.546875-66.191406 147.546875-147.546875 147.546875zm0-285.09375c-75.84375 0-137.546875 61.703125-137.546875 137.546875s61.703125 137.546875 137.546875 137.546875 137.546875-61.703125 137.546875-137.546875-61.703125-137.546875-137.546875-137.546875zm0 0" fill="#424242"/><path d="m287.878906 332.828125h-63.757812c-2.761719 0-5-2.238281-5-5v-59.65625c0-2.761719 2.238281-5 5-5h63.757812c2.761719 0 5 2.238281 5 5v59.65625c0 2.761719-2.238281 5-5 5zm-58.757812-10h53.757812v-49.65625h-53.757812zm0 0" fill="#42a5f5"/><path d="m329.339844 332.828125h-146.675782c-2.761718 0-5-2.238281-5-5v-79.828125c0-1.445312.625-2.820312 1.714844-3.769531l73.339844-63.832031c1.882812-1.636719 4.679688-1.636719 6.5625 0l73.339844 63.824218c1.089844.953125 1.71875 2.328125 1.71875 3.777344v79.832031c-.003906 2.761719-2.242188 4.996094-5 4.996094zm-141.675782-10h136.675782v-72.554687l-68.339844-59.472657-68.335938 59.472657zm0 0" fill="#424242"/></svg>