<svg height="512pt" viewBox="0 -51 512 512" width="512pt" xmlns="http://www.w3.org/2000/svg"><path d="m314.730469 94.851562h-270.84375c-24.238281 0-43.886719-19.648437-43.886719-43.886718 0-24.238282 19.648438-43.886719 43.886719-43.886719h270.84375c24.242187 0 43.890625 19.648437 43.890625 43.886719 0 24.238281-19.648438 43.886718-43.890625 43.886718zm0 0" fill="#f1eded"/><path d="m358.625 50.964844c0 12.121094-4.914062 23.101562-12.859375 31.042968-7.941406 7.941407-18.90625 12.847657-31.027344 12.847657h-29.109375c12.121094 0 23.089844-4.90625 31.03125-12.847657 7.941406-7.941406 12.859375-18.921874 12.859375-31.042968 0-24.242188-19.660156-43.886719-43.890625-43.886719h29.105469c24.234375 0 43.890625 19.644531 43.890625 43.886719zm0 0" fill="#dad0cd"/><path d="m57.679688 7.078125h56.132812v87.777344h-56.132812zm0 0" fill="#27bef4"/><path d="m92.730469 7.078125h21.082031v87.777344h-21.082031zm0 0" fill="#209ced"/><g fill="#27bef4"><path d="m298.402344 50.964844c0 7.75-6.28125 14.035156-14.03125 14.035156s-14.035156-6.285156-14.035156-14.035156 6.285156-14.035156 14.035156-14.035156 14.03125 6.285156 14.03125 14.035156zm0 0"/><path d="m209.316406 59.742188c-.011718 0-.023437 0-.035156 0h-.109375c-4.265625-.019532-7.707031-3.496094-7.6875-7.765626.019531-4.253906 3.476563-7.6875 7.722656-7.6875h.039063.105468c4.269532.019532 7.710938 3.496094 7.691407 7.761719-.019531 4.253907-3.476563 7.691407-7.726563 7.691407zm0 0"/><path d="m183.328125 59.742188c-.011719 0-.023437 0-.035156 0h-.109375c-4.265625-.019532-7.710938-3.496094-7.691406-7.765626.023437-4.265624 3.53125-7.671874 7.765624-7.6875h.105469c4.269531.019532 7.710938 3.496094 7.691407 7.761719-.019532 4.253907-3.476563 7.691407-7.726563 7.691407zm0 0"/><path d="m157.339844 59.742188c-.011719 0-.023438 0-.035156 0h-.109376c-4.265624-.019532-7.710937-3.496094-7.6875-7.765626.019532-4.253906 3.472657-7.6875 7.722657-7.6875h.039062.105469c4.269531.019532 7.710938 3.496094 7.691406 7.761719-.019531 4.253907-3.476562 7.691407-7.726562 7.691407zm0 0"/></g><path d="m314.730469 182.628906h-270.84375c-24.238281 0-43.886719-19.648437-43.886719-43.886718 0-24.238282 19.648438-43.886719 43.886719-43.886719h270.84375c24.242187 0 43.890625 19.648437 43.890625 43.886719 0 24.238281-19.648438 43.886718-43.890625 43.886718zm0 0" fill="#dad0cd"/><path d="m358.625 138.742188c0 12.121093-4.914062 23.101562-12.859375 31.042968-7.941406 7.941406-18.90625 12.847656-31.027344 12.847656h-29.109375c12.121094 0 23.089844-4.90625 31.03125-12.847656s12.859375-18.921875 12.859375-31.042968c0-24.242188-19.660156-43.890626-43.890625-43.890626h29.105469c24.234375 0 43.890625 19.648438 43.890625 43.890626zm0 0" fill="#c1bab8"/><path d="m57.679688 94.851562h56.132812v87.777344h-56.132812zm0 0" fill="#209ced"/><path d="m92.730469 94.851562h21.082031v87.777344h-21.082031zm0 0" fill="#197ae5"/><path d="m298.402344 138.742188c0 7.75-6.28125 14.035156-14.03125 14.035156s-14.035156-6.285156-14.035156-14.035156 6.285156-14.035157 14.035156-14.035157 14.03125 6.285157 14.03125 14.035157zm0 0" fill="#209ced"/><path d="m209.316406 147.519531c-.011718 0-.023437 0-.035156 0l-.109375-.003906c-4.265625-.019531-7.707031-3.492187-7.6875-7.761719.019531-4.253906 3.476563-7.691406 7.722656-7.691406h.039063l.105468.003906c4.269532.019532 7.710938 3.492188 7.691407 7.761719-.019531 4.253906-3.476563 7.691406-7.726563 7.691406zm0 0" fill="#209ced"/><path d="m183.328125 147.519531c-.011719 0-.023437 0-.035156 0l-.109375-.003906c-4.265625-.019531-7.710938-3.492187-7.691406-7.761719.023437-4.253906 3.476562-7.691406 7.726562-7.691406h.039062l.105469.003906c4.269531.019532 7.710938 3.492188 7.691407 7.761719-.019532 4.253906-3.476563 7.691406-7.726563 7.691406zm0 0" fill="#209ced"/><path d="m157.339844 147.519531c-.011719 0-.023438 0-.035156 0l-.109376-.003906c-4.265624-.019531-7.710937-3.492187-7.6875-7.761719.019532-4.253906 3.472657-7.691406 7.722657-7.691406h.039062l.105469.003906c4.269531.019532 7.710938 3.492188 7.691406 7.761719-.019531 4.253906-3.476562 7.691406-7.726562 7.691406zm0 0" fill="#209ced"/><path d="m314.730469 270.40625h-270.84375c-24.238281 0-43.886719-19.648438-43.886719-43.886719s19.648438-43.890625 43.886719-43.890625h270.84375c24.242187 0 43.890625 19.652344 43.890625 43.890625s-19.648438 43.886719-43.890625 43.886719zm0 0" fill="#f1eded"/><path d="m358.625 226.519531c0 12.121094-4.914062 23.101563-12.859375 31.042969-7.941406 7.941406-18.90625 12.847656-31.027344 12.847656h-29.109375c12.121094 0 23.089844-4.90625 31.03125-12.847656s12.859375-18.921875 12.859375-31.042969c0-24.242187-19.660156-43.890625-43.890625-43.890625h29.105469c24.234375 0 43.890625 19.648438 43.890625 43.890625zm0 0" fill="#dad0cd"/><path d="m57.679688 182.628906h56.132812v87.777344h-56.132812zm0 0" fill="#27bef4"/><path d="m92.730469 182.628906h21.082031v87.777344h-21.082031zm0 0" fill="#209ced"/><path d="m298.402344 226.519531c0 7.75-6.28125 14.03125-14.03125 14.03125s-14.035156-6.28125-14.035156-14.03125 6.285156-14.035156 14.035156-14.035156 14.03125 6.285156 14.03125 14.035156zm0 0" fill="#27bef4"/><path d="m209.316406 235.296875h-.105468c-4.269532 0-7.726563-3.460937-7.726563-7.726563 0-4.269531 3.457031-7.726562 7.726563-7.726562h.105468c4.269532 0 7.726563 3.457031 7.726563 7.726562 0 4.265626-3.457031 7.726563-7.726563 7.726563zm0 0" fill="#27bef4"/><path d="m183.328125 235.296875h-.109375c-4.265625 0-7.726562-3.460937-7.726562-7.726563 0-4.269531 3.460937-7.726562 7.726562-7.726562h.109375c4.265625 0 7.726563 3.457031 7.726563 7.726562 0 4.265626-3.457032 7.726563-7.726563 7.726563zm0 0" fill="#27bef4"/><path d="m157.339844 235.296875h-.109375c-4.265625 0-7.722657-3.460937-7.722657-7.726563 0-4.269531 3.457032-7.726562 7.722657-7.726562h.109375c4.265625 0 7.726562 3.457031 7.726562 7.726562 0 4.265626-3.460937 7.726563-7.726562 7.726563zm0 0" fill="#27bef4"/><path d="m318.957031 388.015625h-127.191406c-4.265625 0-7.726563-3.457031-7.726563-7.726563 0-4.265624 3.460938-7.726562 7.726563-7.726562h127.191406c4.265625 0 7.726563 3.460938 7.726563 7.726562 0 4.269532-3.460938 7.726563-7.726563 7.726563zm0 0" fill="#dad0cd"/><path d="m166.707031 388.015625h-127.035156c-4.269531 0-7.726563-3.457031-7.726563-7.726563 0-4.265624 3.457032-7.726562 7.726563-7.726562h127.035156c4.269531 0 7.726563 3.460938 7.726563 7.726562 0 4.269532-3.460938 7.726563-7.726563 7.726563zm0 0" fill="#dad0cd"/><path d="m179.3125 379.085938c-4.265625 0-7.726562-3.460938-7.726562-7.726563v-68.0625c0-4.265625 3.460937-7.726563 7.726562-7.726563s7.726562 3.460938 7.726562 7.726563v68.0625c0 4.265625-3.460937 7.726563-7.726562 7.726563zm0 0" fill="#dad0cd"/><path d="m202.050781 380.289062c0 12.558594-10.179687 22.738282-22.738281 22.738282-12.554688 0-22.734375-10.179688-22.734375-22.738282 0-12.554687 10.179687-22.734374 22.734375-22.734374 12.558594 0 22.738281 10.179687 22.738281 22.734374zm0 0" fill="#50758e"/><path d="m476.839844 313.328125v-216.554687c20.6875-9 35.15625-29.609376 35.15625-53.605469 0-15.191407-5.792969-29.027344-15.292969-39.421875-7.125-7.792969-20.148437-2.59375-20.148437 7.964844v21.675781c0 6.433593-5.214844 11.648437-11.644532 11.648437h-22.722656c-6.433594 0-11.648438-5.214844-11.648438-11.648437v-21.675781c0-10.558594-13.023437-15.757813-20.148437-7.964844-9.496094 10.394531-15.292969 24.230468-15.292969 39.421875 0 24 14.472656 44.609375 35.160156 53.609375v216.550781c-20.691406 9-35.160156 29.609375-35.160156 53.605469 0 15.191406 5.796875 29.03125 15.292969 39.421875 7.125 7.796875 20.148437 2.597656 20.148437-7.964844v-21.675781c0-6.433594 5.214844-11.644532 11.648438-11.644532h22.722656c6.433594 0 11.644532 5.214844 11.644532 11.644532v21.675781c0 10.5625 13.023437 15.761719 20.148437 7.964844 9.5-10.390625 15.292969-24.226563 15.292969-39.421875 0-23.996094-14.472656-44.609375-35.15625-53.605469zm0 0" fill="#6b97af"/><path d="m512 366.933594c0 15.1875-5.800781 29.035156-15.292969 39.421875-3.609375 3.949219-8.726562 4.554687-12.902343 2.832031 5.066406-8.652344 7.972656-18.730469 7.972656-29.480469 0-21.796875-11.9375-40.796875-29.628906-50.84375-3.382813-1.921875-5.535157-5.445312-5.535157-9.335937v-228.953125c0-3.890625 2.152344-7.414063 5.535157-9.332031 17.691406-10.050782 29.628906-29.046876 29.628906-50.84375 0-10.75-2.90625-20.828126-7.972656-29.484376 4.171874-1.722656 9.292968-1.117187 12.902343 2.832032 9.492188 10.386718 15.292969 24.234375 15.292969 39.421875 0 24-14.476562 44.605469-35.164062 53.609375v216.546875c20.6875 9.003906 35.164062 29.609375 35.164062 53.609375zm0 0" fill="#50758e"/></svg>