<svg enable-background="new 0 0 140 140" height="512" viewBox="0 0 140 140" width="512" xmlns="http://www.w3.org/2000/svg"><circle cx="70" cy="70" fill="#4abaa4" r="64"/><path d="m132.8499756 57.9299316c.7401123 3.9100342 1.1500244 7.9400635 1.1500244 12.0700684 0 35.3499756-28.6500244 64-64 64-2.1899414 0-4.3599854-.1099854-6.5-.3300781l-35.3699951-35.369873c-1.2000732-.8100586-2-2.1900635-2-3.75v-53.7800294c0-2.5 2.0299072-4.5200195 4.5200195-4.5200195h38.2598877v-5.6000977c0-1.9099121 1.5500488-3.4499512 3.460083-3.4499512h26.4100342c.9899902 0 1.8699951.4200439 2.5 1.0800781l7.9699707 7.9699708h.0900879c1.3798828 0 2.5998535.6300049 3.4299316 1.5999756z" opacity=".1"/><path d="m63.668667 92.704704h12.654142v22.729139h-12.654142z" fill="#b0b1b5" transform="matrix(0 1 -1 0 174.065 34.074)"/><path d="m109.3389053 36.2454834h-78.6863346c-2.4964237 0-4.5202427 2.0237465-4.5202427 4.5202408v53.7807846c0 2.4964905 2.023819 4.5202408 4.5202427 4.5202408h78.6863327c2.4964218 0 4.5202408-2.0237503 4.5202408-4.5202408v-53.7807846c.0000019-2.4964943-2.0238171-4.5202408-4.5202389-4.5202408z" fill="#344e5c"/><path d="m30.652296 40.76593h78.686539v47.722225h-78.686539z" fill="#509fd7"/><path d="m26.132328 88.4881592v6.0583496c0 2.4964905 2.023819 4.5202408 4.5202427 4.5202408h78.6863327c2.4964218 0 4.5202408-2.0237503 4.5202408-4.5202408v-6.0583496z" fill="#ececec"/><circle cx="69.996" cy="93.777" fill="#dad7dc" r="2.235"/><path d="m58.631161 99.066727h22.729145v2.628624h-22.729145z" fill="#19282f" opacity=".1"/><path d="m87.3215561 107.976532h-34.6515617c-2.6727905 0-4.8395233 2.1667328-4.8395233 4.839592h44.3306007c0-2.6728592-2.1667328-4.839592-4.8395157-4.839592z" fill="#ececec"/><path d="m51.7682991 71.509346c.4517517 2.8094254 2.8860817 4.9647675 5.8209229 4.9647675 2.9348755 0 5.3692398-2.1553421 5.8209572-4.9648361-1.036129-.7210388-.98946-1.712616-.98946-1.712616v-3.0709152h-9.6629257l-.0240517 3.0746613c0-.0000001.070755.9878692-.9654427 1.7089385z" fill="#d6b24e"/><path d="m65.2041626 54.6679192c-.0016556 0-.0032501.5267487-.0048523.5267487-.1028366-4.1883125-3.4860001-8.1087646-7.6100349-8.1087646s-7.5072632 3.9204521-7.6100349 8.1087646c-.0015984 0-.0031929-.5267487-.0048523-.5267487-.8408279 0-1.5223923 1.8999557-1.5223923 3.5947647s.6815643 3.0685272 1.5223923 3.0685272v.1095543c0 2.0935173 1.8237534 4.7423935 3.6861916 6.901535 2.0765991 2.4074554 5.7807274 2.4074554 7.8573303 0 1.8625031-2.1591415 3.6862526-4.8080177 3.6862526-6.901535v-.1095543c.8407669 0 1.5223923-1.3737183 1.5223923-3.0685272s-.6816255-3.5947647-1.5223924-3.5947647z" fill="#ffd25a"/><path d="m59.4997559 72.3095398 4.1467857 2.0386505-4.3078117 12.6304321-1.2670021-2.900032-.1126252-10.192337z" fill="#e6e7e8"/><path d="m79.9350052 88.4881592c-.1507187-4.9782791-.206665-10.0880051-2.2777328-12.6892548-2.0556564-2.5817642-12.2843018-4.8328247-12.2843018-4.8328247l-1.8891602 2.1088638-.2460098 1.071991-.9578056 4.2001648-1.1247482 4.9646378-1.5275574 5.1764221z" fill="#344e5c"/><path d="m62.4346733 69.4592896-4.8504639 2.5259475 3.783516 2.3629532z" fill="#dad7dc"/><path d="m55.6686592 72.3095398-4.1467857 2.0386505 4.3078117 12.6304321 1.2670059-2.900032.1126213-10.192337z" fill="#e6e7e8"/><path d="m55.5579453 88.4881592-1.546524-5.1764221-1.1423111-5.0173264-.9401703-4.1474762-.2460823-1.071991-1.8891602-2.1088638s-10.2284966 2.2511368-12.284153 4.8328247c-2.0710716 2.6010971-2.1270905 7.7108994-2.2752876 12.6892548z" fill="#344e5c"/><path d="m52.7337418 69.4592896 4.8504676 2.5259475-3.7835197 2.3629532z" fill="#dad7dc"/><path d="m55.8861313 88.4881592h3.3963318l.2111816-.3983612-1.0401268-13.2565537.9003754-1.7385864-1.7696343-1.10215-1.7696342 1.10215.9003029 1.7385864-1.0399819 13.2565537z" fill="#f37735"/><g fill="#293b44"><path d="m49.0466309 79.101944 4.8564567 9.3862152h2.9833069l-4.1453285-19.0259171-2.9492951 1.5057678-1.0556144 5.4950409 2.4837265 1.3660202z"/><path d="m61.2654305 88.4881592 4.8564567-9.3862152-2.1731796-1.272873 2.4836578-1.3660202-1.055542-5.4950409-2.9494438-1.5057678-4.145256 19.0259171z"/><path d="m44.1933594 88.4881592.3017311-5.5806275-.6076851 5.5806275z"/><path d="m71.2792587 88.4881592-.6076812-5.5806275.3017272 5.5806275z"/></g><path d="m48.6433754 56.9869385c.2871895 1.0913162.8892784 1.9280586.9678574 3.7869225h.4890366c-.1327133-.7961464-.325428-2.7931442.325428-5.8150749 0 0 1.4750252-.1229439 3.072998-1.7822609 0 0-.4302444 1.2904816-1.4750252 1.9666176 0 0 2.4583969-.798954 5.3469734-3.6260605 0 0-.2458267 1.720726-3.0729942 3.4417038 0 0 3.9334831-.6145973 5.9001617-3.1959419 0 0-.798954 1.7823906-2.7042236 2.8886414 0 0 3.7490692-.6145973 5.4084473-3.8105392 0 0 1.5979729-.1843529 1.7823906 2.5813446.1843567 2.7656937.122879 3.5646477.6760101 3.9948921l-.2751312 3.356678h.347641c.179184-.9355583.6673965-3.2600327 1.1566849-3.6025696 0 0 1.5979691-7.7438965-1.7823257-9.2189865 0 0-1.1677246-5.1011467-9.0345688-3.1958122-7.8669052 1.9052048-7.5596085 7.313652-7.5596085 7.313652s.1229476 3.7491301.4302482 4.9167937z" fill="#344e5c"/><path d="m102.2269897 30.6510029v13.7499981c0 1.9099121-1.539978 3.4599609-3.4500122 3.4599609h-15.579956l-8.7399902 6.4699707v-6.4699707h-2.0900269c-1.9099731 0-3.460022-1.5500488-3.460022-3.4599609v-13.7499981c0-1.9100342 1.5500488-3.4500732 3.460022-3.4500732h26.4099731c1.9100342-.0000001 3.4500122 1.540039 3.4500122 3.4500732z" fill="#d6b251"/><g fill="#e6e7e8"><circle cx="76.53" cy="37.528" r="2.373"/><circle cx="85.569" cy="37.528" r="2.373"/><circle cx="94.609" cy="37.528" r="2.373"/></g></svg>