<?xml version="1.0" encoding="iso-8859-1"?>
<!-- Generator: Adobe Illustrator 19.0.0, SVG Export Plug-In . SVG Version: 6.00 Build 0)  -->
<svg version="1.1" id="Capa_1" xmlns="http://www.w3.org/2000/svg" xmlns:xlink="http://www.w3.org/1999/xlink" x="0px" y="0px"
	 viewBox="0 0 512 512" style="enable-background:new 0 0 512 512;" xml:space="preserve">
<path style="fill:#009688;" d="M192,386.9v-32.6c0-21.3,13.5-39.4,32.2-46.2V289c0-27,21.7-49,48.3-49H498c4.9,0,9.5,0.9,13.9,2.3
	V80c0-17.6-14.3-32-32-32H32C14.4,48,0,62.4,0,80v288c0,17.7,14.4,32,32,32h161.9C192.7,395.8,192,391.5,192,386.9z"/>
<path style="fill:#FFC107;" d="M496,464H272c-8.8,0-16-7.2-16-16v-32c0-8.8,7.2-16,16-16h224c8.8,0,16,7.2,16,16v32
	C512,456.8,504.8,464,496,464z"/>
<rect x="416" y="400" style="fill:#FFB300;" width="32" height="64"/>
<path style="fill:#FFD54F;" d="M464,400H240c-8.8,0-16-7.2-16-16v-32c0-8.8,7.2-16,16-16h224c8.8,0,16,7.2,16,16v32
	C480,392.8,472.8,400,464,400z"/>
<rect x="384" y="336" style="fill:#FFCA28;" width="32" height="64"/>
<path style="fill:#FFC107;" d="M496,336H272c-8.8,0-16-7.2-16-16v-32c0-8.8,7.2-16,16-16h224c8.8,0,16,7.2,16,16v32
	C512,328.8,504.8,336,496,336z"/>
<rect x="416" y="272" style="fill:#FFB300;" width="32" height="64"/>
<path style="fill:#4DB6AC;" d="M192,354.3c0-21.3,13.5-39.4,32.2-46.2V289c0-27,21.7-49,48.3-49H480v-65.6
	c-48.9-7.1-87.3-45.5-94.4-94.4H126.4c-7.1,48.9-45.5,87.3-94.4,94.4v99.3c48.9,7.1,87.3,45.5,94.4,94.4H192V354.3z"/>
<path style="fill:#009688;" d="M225,280c4.2-22.7,23.9-40,47.5-40H318c1.3-5.1,2-10.5,2-16c0-35.3-28.7-64-64-64s-64,28.7-64,64
	C192,248.1,205.4,269.1,225,280z"/>
<g>
</g>
<g>
</g>
<g>
</g>
<g>
</g>
<g>
</g>
<g>
</g>
<g>
</g>
<g>
</g>
<g>
</g>
<g>
</g>
<g>
</g>
<g>
</g>
<g>
</g>
<g>
</g>
<g>
</g>
</svg>
