<svg height="512pt" viewBox="0 -18 512.001 512" width="512pt" xmlns="http://www.w3.org/2000/svg"><path d="m125.453125 408.445312h261.09375v60.261719h-261.09375zm0 0" fill="#dad0cd"/><path d="m491.394531 420.5625h-470.789062c-11.378907 0-20.605469-9.222656-20.605469-20.601562v-295.542969c0-11.378907 9.226562-20.601563 20.605469-20.601563h470.792969c11.378906 0 20.601562 9.222656 20.601562 20.601563v295.542969c0 11.378906-9.226562 20.601562-20.605469 20.601562zm0 0" fill="#14f2d7"/><path d="m190.996094 175.273438v194.785156h-128.277344v-194.785156c0-5.6875 4.613281-10.304688 10.300781-10.304688h107.675781c5.683594 0 10.300782 4.617188 10.300782 10.304688zm0 0" fill="#fab03c"/><path d="m512 104.421875v295.535156c0 11.386719-9.21875 20.605469-20.605469 20.605469h-32.613281c11.382812 0 20.601562-9.21875 20.601562-20.605469v-295.535156c0-11.386719-9.21875-20.605469-20.601562-20.605469h32.613281c11.386719 0 20.605469 9.21875 20.605469 20.605469zm0 0" fill="#00e2c7"/><path d="m512 370.0625v29.894531c0 11.386719-9.21875 20.605469-20.605469 20.605469h-470.789062c-11.386719 0-20.605469-9.21875-20.605469-20.605469v-29.894531zm0 0" fill="#6b97af"/><path d="m512 370.0625v29.894531c0 11.386719-9.21875 20.605469-20.605469 20.605469h-32.613281c11.382812 0 20.601562-9.21875 20.601562-20.605469v-29.894531zm0 0" fill="#50758e"/><path d="m410.871094 476.433594h-309.742188c-4.265625 0-7.726562-3.460938-7.726562-7.726563s3.460937-7.726562 7.726562-7.726562h309.742188c4.265625 0 7.726562 3.460937 7.726562 7.726562s-3.460937 7.726563-7.726562 7.726563zm0 0" fill="#6b97af"/><g fill="#dad0cd"><path d="m256.054688 403.039062c-.015626 0-.027344 0-.039063 0l-.105469-.003906c-4.269531-.019531-7.710937-3.492187-7.691406-7.761718.019531-4.253907 3.476562-7.691407 7.726562-7.691407h.035157.109375c4.265625.019531 7.710937 3.496094 7.6875 7.765625-.015625 4.253906-3.472656 7.691406-7.722656 7.691406zm0 0"/><path d="m256 120.175781c-4.269531 0-7.726562-3.457031-7.726562-7.722656v-74.117187c0-4.265626 3.460937-7.726563 7.726562-7.726563s7.726562 3.460937 7.726562 7.726563v74.117187c0 4.265625-3.457031 7.722656-7.726562 7.722656zm0 0"/><path d="m248.621094 33.363281h-203.019532c-4.269531 0-7.726562-3.460937-7.726562-7.726562s3.457031-7.726563 7.726562-7.726563h203.019532c4.269531 0 7.726562 3.460938 7.726562 7.726563s-3.457031 7.726562-7.726562 7.726562zm0 0"/><path d="m466.398438 33.363281h-200.527344c-4.265625 0-7.726563-3.460937-7.726563-7.726562s3.460938-7.726563 7.726563-7.726563h200.527344c4.269531 0 7.726562 3.460938 7.726562 7.726563s-3.457031 7.726562-7.726562 7.726562zm0 0"/></g><path d="m281.636719 25.636719c0 14.15625-11.476563 25.636719-25.636719 25.636719s-25.636719-11.480469-25.636719-25.636719c0-14.160157 11.476563-25.636719 25.636719-25.636719s25.636719 11.476562 25.636719 25.636719zm0 0" fill="#50758e"/><path d="m193.796875 135.613281h-131.078125c-4.269531 0-7.726562-3.457031-7.726562-7.726562 0-4.265625 3.460937-7.726563 7.726562-7.726563h131.078125c4.265625 0 7.722656 3.460938 7.722656 7.726563 0 4.269531-3.457031 7.726562-7.722656 7.726562zm0 0" fill="#fab03c"/><path d="m449.28125 135.613281h-131.078125c-4.265625 0-7.726563-3.457031-7.726563-7.726562 0-4.265625 3.460938-7.726563 7.726563-7.726563h131.078125c4.265625 0 7.726562 3.460938 7.726562 7.726563 0 4.269531-3.460937 7.726562-7.726562 7.726562zm0 0" fill="#fab03c"/><path d="m438.980469 228.84375h-200.660157c-5.6875 0-10.300781-4.609375-10.300781-10.300781v-43.269531c0-5.6875 4.613281-10.300782 10.300781-10.300782h200.660157c5.6875 0 10.300781 4.613282 10.300781 10.300782v43.269531c0 5.691406-4.613281 10.300781-10.300781 10.300781zm0 0" fill="#f1eded"/><path d="m227.773438 279.839844c-.011719 0-.023438 0-.035157 0h-.121093c-4.269532-.019532-7.710938-3.492188-7.695313-7.757813.015625-4.257812 3.472656-7.695312 7.726563-7.695312h.03125.121093c4.269531.015625 7.714844 3.488281 7.695313 7.757812-.015625 4.257813-3.472656 7.695313-7.722656 7.695313zm0 0" fill="#50758e"/><path d="m307.851562 279.839844h-51.054687c-4.269531 0-7.726563-3.460938-7.726563-7.726563 0-4.269531 3.460938-7.726562 7.726563-7.726562h51.054687c4.269532 0 7.726563 3.457031 7.726563 7.726562 0 4.265625-3.457031 7.726563-7.726563 7.726563zm0 0" fill="#6b97af"/><path d="m227.773438 305.988281c-.011719 0-.023438 0-.035157 0h-.121093c-4.269532-.019531-7.710938-3.492187-7.695313-7.757812.015625-4.257813 3.472656-7.695313 7.726563-7.695313h.03125.121093c4.269531.015625 7.714844 3.492188 7.695313 7.757813-.015625 4.253906-3.472656 7.695312-7.722656 7.695312zm0 0" fill="#50758e"/><path d="m307.851562 305.988281h-51.054687c-4.269531 0-7.726563-3.460937-7.726563-7.726562s3.460938-7.726563 7.726563-7.726563h51.054687c4.269532 0 7.726563 3.460938 7.726563 7.726563s-3.457031 7.726562-7.726563 7.726562zm0 0" fill="#6b97af"/><path d="m227.773438 332.136719c-.011719 0-.023438 0-.035157 0l-.121093-.003907c-4.269532-.015624-7.710938-3.488281-7.695313-7.757812.015625-4.253906 3.472656-7.695312 7.726563-7.695312h.03125l.121093.003906c4.269531.015625 7.714844 3.488281 7.695313 7.757812-.015625 4.257813-3.472656 7.695313-7.722656 7.695313zm0 0" fill="#50758e"/><path d="m307.851562 332.136719h-51.054687c-4.269531 0-7.726563-3.460938-7.726563-7.726563 0-4.269531 3.460938-7.726562 7.726563-7.726562h51.054687c4.269532 0 7.726563 3.457031 7.726563 7.726562 0 4.265625-3.457031 7.726563-7.726563 7.726563zm0 0" fill="#6b97af"/><path d="m348.597656 279.839844c-.011718 0-.023437 0-.03125 0h-.125c-4.265625-.019532-7.710937-3.492188-7.695312-7.757813.019531-4.257812 3.476562-7.695312 7.726562-7.695312h.03125.125c4.265625.015625 7.710938 3.488281 7.691406 7.757812-.015624 4.257813-3.472656 7.695313-7.722656 7.695313zm0 0" fill="#50758e"/><path d="m449.28125 279.839844h-71.660156c-4.265625 0-7.726563-3.460938-7.726563-7.726563 0-4.269531 3.460938-7.726562 7.726563-7.726562h71.660156c4.269531 0 7.726562 3.457031 7.726562 7.726562 0 4.265625-3.460937 7.726563-7.726562 7.726563zm0 0" fill="#fab03c"/><path d="m348.597656 305.988281c-.011718 0-.023437 0-.03125 0h-.125c-4.265625-.019531-7.710937-3.492187-7.695312-7.757812.019531-4.257813 3.476562-7.695313 7.726562-7.695313h.03125.125c4.265625.015625 7.710938 3.492188 7.691406 7.757813-.015624 4.253906-3.472656 7.695312-7.722656 7.695312zm0 0" fill="#50758e"/><path d="m449.28125 305.988281h-71.660156c-4.265625 0-7.726563-3.460937-7.726563-7.726562s3.460938-7.726563 7.726563-7.726563h71.660156c4.269531 0 7.726562 3.460938 7.726562 7.726563s-3.460937 7.726562-7.726562 7.726562zm0 0" fill="#fab03c"/><path d="m348.597656 332.136719c-.011718 0-.023437 0-.03125 0l-.125-.003907c-4.265625-.015624-7.710937-3.488281-7.695312-7.757812.019531-4.253906 3.476562-7.695312 7.726562-7.695312h.03125l.125.003906c4.265625.015625 7.710938 3.488281 7.691406 7.757812-.015624 4.257813-3.472656 7.695313-7.722656 7.695313zm0 0" fill="#50758e"/><path d="m449.28125 332.136719h-71.660156c-4.265625 0-7.726563-3.460938-7.726563-7.726563 0-4.269531 3.460938-7.726562 7.726563-7.726562h71.660156c4.269531 0 7.726562 3.457031 7.726562 7.726562 0 4.265625-3.460937 7.726563-7.726562 7.726563zm0 0" fill="#fab03c"/><path d="m190.996094 175.273438v1.277343l-119.203125 193.507813h-9.074219v-14.71875l117.121094-190.140625c.050781-.082031.089844-.15625.152344-.226563h.699218c5.6875-.003906 10.304688 4.613282 10.304688 10.300782zm0 0" fill="#f6cb43"/></svg>