<svg id="Layer_1" enable-background="new 0 0 256 256" height="512" viewBox="0 0 256 256" width="512" xmlns="http://www.w3.org/2000/svg"><g><path d="m29.619 200.432c-7.724 0-14.009-6.285-14.009-14.009v-126.892c0-7.724 6.285-14.009 14.009-14.009h196.762c7.724 0 14.009 6.285 14.009 14.009v126.892c0 7.724-6.285 14.009-14.009 14.009z" fill="#cecece"/><g><path d="m22.11 186.423v-126.892c0-7.724 6.285-14.009 14.009-14.009h-6.5c-7.724 0-14.009 6.285-14.009 14.009v126.892c0 7.724 6.285 14.009 14.009 14.009h6.5c-7.724 0-14.009-6.285-14.009-14.009z" fill="#afafaf"/></g><g><path d="m233.89 186.423v-126.892c0-7.724-6.285-14.009-14.009-14.009h6.5c7.724 0 14.009 6.285 14.009 14.009v126.892c0 7.724-6.285 14.009-14.009 14.009h-6.5c7.724 0 14.009-6.285 14.009-14.009z" fill="#e2e2e2"/></g><path d="m231.769 174.121c0 2.963-2.425 5.388-5.388 5.388h-196.762c-2.963 0-5.388-2.425-5.388-5.388v-114.59c0-2.963 2.425-5.388 5.388-5.388h196.762c2.963 0 5.388 2.425 5.388 5.388z" fill="#63bce7"/><g><path d="m30.731 174.121v-114.59c0-2.963 2.425-5.388 5.388-5.388h-6.5c-2.963 0-5.388 2.425-5.388 5.388v114.59c0 2.963 2.425 5.388 5.388 5.388h6.5c-2.963 0-5.388-2.425-5.388-5.388z" fill="#6377e7"/></g><g><path d="m225.269 174.121v-114.59c0-2.963-2.425-5.388-5.388-5.388h6.5c2.963 0 5.388 2.425 5.388 5.388v114.59c0 2.963-2.425 5.388-5.388 5.388h-6.5c2.963 0 5.388-2.425 5.388-5.388z" fill="#63e2e7"/></g><path d="m88.847 223.148h78.305v9.429h-78.305z" fill="#cecece"/><g><path d="m88.847 223.148h6.5v9.429h-6.5z" fill="#afafaf"/></g><path d="m99.983 200.432h56.035v22.716h-56.035z" fill="#9e9e9e"/><g><path d="m99.983 200.432h6.5v22.716h-6.5z" fill="#707070"/></g><circle cx="128" cy="189.97" fill="#f8af23" r="4.613"/><path d="m188.979 39.844-27.393-27.393h-94.565v167.058h121.958z" fill="#f8af23"/><g><path d="m161.586 12.451h-6.5l27.393 27.393v139.665h6.5v-139.665z" fill="#f8d323"/></g><g><path d="m67.021 12.451h6.5v167.058h-6.5z" fill="#f87023"/></g><g fill="#f46275"><path d="m91.875 50.25h72.25v14.5h-72.25z"/><path d="m91.875 75.156h72.25v14.5h-72.25z"/><path d="m91.875 100.061h72.25v14.5h-72.25z"/><g><path d="m83.625 139.75h35v18.75h-35z"/><path d="m137.375 139.75h35v18.75h-35z"/></g></g><g fill="#3f3679"><path d="m128 196.084c3.371 0 6.113-2.742 6.113-6.113s-2.742-6.113-6.113-6.113-6.113 2.742-6.113 6.113 2.742 6.113 6.113 6.113zm0-9.227c1.717 0 3.113 1.396 3.113 3.113s-1.396 3.113-3.113 3.113-3.113-1.396-3.113-3.113 1.396-3.113 3.113-3.113z"/><path d="m27.323 242.05h-18.003c-.828 0-1.5.672-1.5 1.5s.672 1.5 1.5 1.5h18.003c.828 0 1.5-.672 1.5-1.5s-.672-1.5-1.5-1.5z"/><path d="m246.68 242.05h-18.003c-.828 0-1.5.672-1.5 1.5s.672 1.5 1.5 1.5h18.003c.828 0 1.5-.672 1.5-1.5s-.672-1.5-1.5-1.5z"/><path d="m218.479 242.05h-180.958c-.828 0-1.5.672-1.5 1.5s.672 1.5 1.5 1.5h180.959c.828 0 1.5-.672 1.5-1.5s-.672-1.5-1.501-1.5z"/><path d="m9.32 234.076h79.527 78.305 79.527c.828 0 1.5-.672 1.5-1.5s-.672-1.5-1.5-1.5h-78.027v-7.929c0-.828-.672-1.5-1.5-1.5h-9.635v-19.716h68.863c8.552 0 15.509-6.957 15.509-15.509v-126.891c0-8.552-6.957-15.509-15.509-15.509h-35.901v-4.178c0-.397-.158-.779-.439-1.061l-27.394-27.393c-.281-.281-.663-.439-1.061-.439h-94.564c-.828 0-1.5.672-1.5 1.5v31.572h-35.902c-8.552 0-15.509 6.957-15.509 15.509v126.892c0 8.552 6.957 15.509 15.509 15.509h68.863v19.716h-9.635c-.828 0-1.5.672-1.5 1.5v7.929h-78.027c-.828 0-1.5.672-1.5 1.5s.672 1.498 1.5 1.498zm153.766-218.005 22.272 22.273h-22.272zm27.393 39.572h35.901c2.144 0 3.888 1.744 3.888 3.888v114.591c0 2.144-1.744 3.888-3.888 3.888h-35.901zm-121.958-41.693h91.565v25.895c0 .828.672 1.5 1.5 1.5h25.894v136.664h-118.959zm-38.902 164.059c-2.144 0-3.888-1.744-3.888-3.888v-114.591c0-2.144 1.744-3.888 3.888-3.888h35.901v122.366h-35.901zm-12.509 8.414v-126.892c0-6.897 5.611-12.509 12.509-12.509h35.901v5.62h-35.901c-3.798 0-6.888 3.09-6.888 6.888v114.591c0 3.798 3.09 6.888 6.888 6.888h37.401 121.959 37.401c3.798 0 6.888-3.09 6.888-6.888v-114.591c0-3.798-3.09-6.888-6.888-6.888h-35.901v-5.62h35.901c6.897 0 12.509 5.611 12.509 12.509v126.892c0 6.897-5.611 12.509-12.509 12.509h-70.363-56.035-70.363c-6.897 0-12.509-5.612-12.509-12.509zm84.372 15.509h53.035v19.716h-53.035zm-11.134 22.715h9.635 56.035 9.635v6.429h-75.305z"/><path d="m91.875 116.062h72.25c.828 0 1.5-.672 1.5-1.5v-14.5c0-.828-.672-1.5-1.5-1.5h-34.625v-7.406h34.625c.828 0 1.5-.672 1.5-1.5v-14.5c0-.828-.672-1.5-1.5-1.5h-34.625v-7.406h34.625c.828 0 1.5-.672 1.5-1.5v-14.5c0-.828-.672-1.5-1.5-1.5h-72.25c-.828 0-1.5.672-1.5 1.5v14.5c0 .828.672 1.5 1.5 1.5h34.625v7.405h-34.625c-.828 0-1.5.672-1.5 1.5v14.5c0 .828.672 1.5 1.5 1.5h34.625v7.406h-34.625c-.828 0-1.5.672-1.5 1.5v14.5c0 .829.672 1.501 1.5 1.501zm1.5-64.312h69.25v11.5h-69.25zm0 24.905h69.25v11.5h-69.25zm0 24.907h69.25v11.5h-69.25z"/><path d="m118.625 138.25h-35c-.828 0-1.5.672-1.5 1.5v18.75c0 .828.672 1.5 1.5 1.5h35c.828 0 1.5-.672 1.5-1.5v-18.75c0-.828-.672-1.5-1.5-1.5zm-1.5 18.75h-32v-15.75h32z"/><path d="m172.375 138.25h-35c-.828 0-1.5.672-1.5 1.5v18.75c0 .828.672 1.5 1.5 1.5h35c.828 0 1.5-.672 1.5-1.5v-18.75c0-.828-.672-1.5-1.5-1.5zm-1.5 18.75h-32v-15.75h32z"/></g></g></svg>