<?xml version="1.0" encoding="iso-8859-1"?>
<!-- Generator: Adobe Illustrator 19.0.0, SVG Export Plug-In . SVG Version: 6.00 Build 0)  -->
<svg version="1.1" id="Capa_1" xmlns="http://www.w3.org/2000/svg" xmlns:xlink="http://www.w3.org/1999/xlink" x="0px" y="0px"
	 viewBox="0 0 438.349 438.349" style="enable-background:new 0 0 438.349 438.349;" xml:space="preserve">
<g>
	<g>
		<rect x="357.192" y="137.418" style="fill:#00EFD1;" width="38.661" height="290.638"/>
		<rect x="278.824" y="189.663" style="fill:#00EFD1;" width="38.661" height="238.393"/>
		<rect x="200.457" y="247.132" style="fill:#00EFD1;" width="38.661" height="180.924"/>
		<rect x="121.567" y="270.643" style="fill:#00EFD1;" width="38.661" height="157.675"/>
		<rect x="42.677" y="356.847" style="fill:#00EFD1;" width="38.661" height="71.523"/>
	</g>
	<g>
		<path style="fill:#224099;" d="M160.228,438.349h-38.661c-5.771,0-10.449-4.678-10.449-10.449V270.643
			c0-5.771,4.678-10.449,10.449-10.449h38.661c5.771,0,10.449,4.678,10.449,10.449V427.9
			C170.677,433.671,165.999,438.349,160.228,438.349z M132.016,417.451h17.763V281.092h-17.763V417.451z"/>
		<path style="fill:#224099;" d="M239.118,438.349h-38.661c-5.771,0-10.449-4.678-10.449-10.449V247.132
			c0-5.771,4.678-10.449,10.449-10.449h38.661c5.771,0,10.449,4.678,10.449,10.449V427.9
			C249.567,433.671,244.889,438.349,239.118,438.349L239.118,438.349z M210.906,417.451h17.763V257.581h-17.763L210.906,417.451z"/>
		<path style="fill:#224099;" d="M81.339,438.349H42.677c-5.771,0-10.449-4.678-10.449-10.449v-71.576
			c0-5.771,4.678-10.449,10.449-10.449h38.661c5.771,0,10.449,4.678,10.449,10.449V427.9
			C91.788,433.671,87.109,438.349,81.339,438.349z M53.126,417.451H70.89v-50.678H53.126V417.451z"/>
		<path style="fill:#224099;" d="M317.486,438.349h-38.661c-5.771,0-10.449-4.678-10.449-10.449V189.663
			c0-5.771,4.678-10.449,10.449-10.449h38.661c5.771,0,10.449,4.678,10.449,10.449V427.9
			C327.935,433.671,323.256,438.349,317.486,438.349z M289.273,417.451h17.763V200.112h-17.763V417.451z"/>
		<path style="fill:#224099;" d="M395.853,438.349h-38.661c-5.771,0-10.449-4.678-10.449-10.449V137.418
			c0-5.771,4.678-10.449,10.449-10.449h38.661c5.771,0,10.449,4.678,10.449,10.449V427.9
			C406.302,433.671,401.624,438.349,395.853,438.349z M367.641,417.451h17.763V147.867h-17.763V417.451z"/>
		<path style="fill:#224099;" d="M412.049,3.149c-2.055-2.1-4.9-3.238-7.837-3.135h-68.441c-5.475-0.289-10.147,3.916-10.435,9.39
			c-0.009,0.179-0.014,0.357-0.014,0.536c0,5.771,4.678,10.449,10.449,10.449h43.363L271.51,128.536L233.894,90.92
			c-1.854-2.076-4.532-3.224-7.314-3.135l0,0c-2.756,0.039-5.385,1.166-7.314,3.135L26.481,283.704
			c-3.725,4.165-3.725,10.464,0,14.629c2.055,2.1,4.9,3.238,7.837,3.135c2.756-0.039,5.385-1.166,7.314-3.135l184.947-184.947
			l37.616,37.616c1.929,1.969,4.558,3.095,7.314,3.135l0,0c2.796,0.167,5.507-0.995,7.314-3.135L393.763,36.063v42.841
			c-0.008,5.482,4.431,9.933,9.913,9.94c0.179,0,0.358-0.004,0.536-0.014l0,0c5.475,0.289,10.147-3.916,10.435-9.39
			c0.009-0.179,0.014-0.357,0.014-0.536V10.463C414.586,7.81,413.672,5.249,412.049,3.149z"/>
	</g>
</g>
<g>
</g>
<g>
</g>
<g>
</g>
<g>
</g>
<g>
</g>
<g>
</g>
<g>
</g>
<g>
</g>
<g>
</g>
<g>
</g>
<g>
</g>
<g>
</g>
<g>
</g>
<g>
</g>
<g>
</g>
</svg>
