<svg height="512pt" viewBox="0 0 512.001 512" width="512pt" xmlns="http://www.w3.org/2000/svg"><path d="m502 286v-60l-50.03125-10c-5.1875-25.46875-15.296875-49.167969-29.117188-70.289062l30.070313-44.199219-42.433594-42.429688s-44.199219 30.070313-44.328125 30.136719c-20.988281-13.886719-44.679687-24-70.160156-29.1875l-10-50.03125h-60l-10 50.03125c-25.121094 5.121094-48.851562 15.089844-70.160156 29.199219-.128906-.078125-44.328125-30.148438-44.328125-30.148438l-42.433594 42.429688 30.070313 44.199219c-13.820313 21.121093-23.929688 44.820312-29.117188 70.289062l-50.03125 10v60l50.03125 10c5.167969 25.371094 15.238281 49.082031 29.199219 70.160156-.082031.128906-30.152344 44.332032-30.152344 44.332032l42.433594 42.429687 44.199219-30.070313c21.117187 13.820313 44.808593 23.929688 70.289062 29.117188l10 50.03125h60l10-50.03125c25.480469-5.1875 49.171875-15.296875 70.160156-29.199219.128906.082031 44.328125 30.152344 44.328125 30.152344l42.433594-42.429687s-30.070313-44.203126-30.152344-44.332032c13.902344-20.988281 24.011719-44.679687 29.199219-70.160156zm-246 110c-76.839844 0-140-62.441406-140-140 0-28.199219 8.488281-47.585938 8.488281-48.03125 19.890625-54.179688 71.703125-91.941406 131.511719-91.964844 62.367188-.027344 116.734375 41.207032 134.191406 100.035156 0 .011719.007813.019532.007813.03125 3.269531 10.933594 5.210937 22.789063 5.660156 33.679688 3.660156 80.53125-60.847656 146.25-139.859375 146.25zm0 0" fill="#ede9e8"/><path d="m335.839844 370.941406c-24.105469 16.832032-52.589844 25.058594-79.839844 25.058594-29.648438 0-57.179688-9.269531-79.839844-25.058594 2.609375-41.820312 37.359375-74.941406 79.839844-74.941406s77.230469 33.121094 79.839844 74.941406zm0 0" fill="#5c9cee"/><path d="m306 226c0 27.613281-22.386719 50-50 50s-50-22.386719-50-50 22.386719-50 50-50 50 22.386719 50 50zm0 0" fill="#5c9cee"/><path d="m256 126c5.398438 0 9.808594-4.289062 9.988281-9.648438.011719-.109374.011719-.230468.011719-.351562 0-5.519531-4.480469-10-10-10s-10 4.480469-10 10c0 .121094 0 .242188.011719.351562.179687 5.359376 4.589843 9.648438 9.988281 9.648438zm0 0"/><path d="m316 226c0-33.082031-26.914062-60-60-60s-60 26.917969-60 60c0 33.085938 26.914062 60 60 60s60-26.914062 60-60zm-60 40c-22.054688 0-40-17.945312-40-40s17.945312-40 40-40 40 17.945312 40 40-17.945312 40-40 40zm0 0"/><path d="m503.960938 216.195312-43.632813-8.722656c-5.128906-21.582031-13.6875-42.234375-25.519531-61.5625l26.378906-38.773437c2.699219-3.972657 2.199219-9.300781-1.195312-12.695313l-42.429688-42.429687c-3.398438-3.398438-8.726562-3.898438-12.699219-1.199219-9.046875 6.15625-29.191406 19.859375-38.867187 26.433594-19.179688-11.847656-39.804688-20.429688-61.46875-25.574219l-8.722656-43.632813c-.933594-4.671874-5.035157-8.039062-9.804688-8.039062h-60c-4.765625 0-8.871094 3.367188-9.804688 8.039062l-8.722656 43.632813c-21.671875 5.148437-42.292968 13.730469-61.464844 25.582031-9.152343-6.222656-27.757812-18.878906-38.871093-26.441406-3.972657-2.699219-9.300781-2.195312-12.699219 1.199219l-42.429688 42.429687c-3.394531 3.394532-3.898437 8.726563-1.195312 12.695313l26.378906 38.773437c-11.832031 19.328125-20.394531 39.980469-25.519531 61.5625l-43.632813 8.722656c-4.675781.933594-8.039062 5.039063-8.039062 9.804688v60c0 4.765625 3.363281 8.871094 8.039062 9.804688l43.632813 8.722656c5.148437 21.675781 13.730469 42.296875 25.582031 61.46875-6.222656 9.148437-18.882812 27.753906-26.441406 38.871094-2.703125 3.96875-2.199219 9.296874 1.195312 12.695312l42.429688 42.429688c3.398438 3.394531 8.726562 3.898437 12.699219 1.195312l38.769531-26.378906c19.332031 11.835937 39.988281 20.394531 61.566406 25.519531l8.722656 43.632813c.933594 4.675781 5.039063 8.039062 9.804688 8.039062h60c4.769531 0 8.871094-3.363281 9.804688-8.039062l8.722656-43.632813c21.667968-5.144531 42.292968-13.726563 61.46875-25.582031 9.148437 6.222656 27.757812 18.878906 38.871094 26.441406 3.96875 2.699219 9.296874 2.199219 12.695312-1.195312l42.429688-42.433594c3.394531-3.394532 3.898437-8.722656 1.195312-12.695313-7.558594-11.113281-20.21875-29.71875-26.441406-38.871093 11.855468-19.171876 20.441406-39.796876 25.582031-61.464844l43.632813-8.722656c4.675781-.933594 8.039062-5.039063 8.039062-9.804688v-60c0-4.765625-3.363281-8.871094-8.039062-9.804688zm-11.960938 61.605469-41.988281 8.394531c-3.949219.789063-7.039063 3.867188-7.839844 7.808594-4.832031 23.714844-14.164063 46.136719-27.738281 66.636719-2.152344 3.246094-2.222656 7.453125-.175782 10.769531.152344.25.191407.3125 25.738282 37.863282l-30.726563 30.722656c-37.550781-25.542969-37.609375-25.582032-37.863281-25.738282-3.3125-2.042968-7.515625-1.976562-10.769531.175782-20.5 13.574218-42.917969 22.910156-66.632813 27.738281-3.945312.804687-7.023437 3.894531-7.8125 7.839844l-8.390625 41.988281h-43.601562l-8.394531-41.988281c-.789063-3.945313-3.867188-7.039063-7.808594-7.839844-23.601563-4.808594-46.078125-14.125-66.8125-27.6875-3.378906-2.210937-7.757813-2.175781-11.097656.097656l-37.359376 25.414063-30.722656-30.722656c25.546875-37.554688 25.582032-37.613282 25.738282-37.863282 2.042968-3.320312 1.976562-7.523437-.175782-10.773437-13.574218-20.492188-22.90625-42.910157-27.738281-66.632813-.804687-3.945312-3.894531-7.019531-7.839844-7.808594l-41.988281-8.394531v-43.601562l41.988281-8.394531c3.949219-.789063 7.035157-3.863282 7.839844-7.808594 4.8125-23.605469 14.125-46.085938 27.691406-66.8125 2.210938-3.378906 2.171875-7.757813-.101562-11.101563l-25.414063-37.355469 30.726563-30.722656c37.550781 25.542969 37.609375 25.582032 37.863281 25.738282 3.316406 2.042968 7.519531 1.976562 10.765625-.175782 20.5-13.570312 42.917969-22.90625 66.636719-27.738281 3.945312-.804687 7.023437-3.894531 7.8125-7.839844l8.390625-41.988281h43.601562l8.394531 41.992188c.789063 3.945312 3.867188 7.035156 7.808594 7.835937 23.710938 4.832031 46.128906 14.160156 66.640625 27.730469 3.078125 2.039062 7.03125 2.214844 10.277344.457031.542969-.292969.578125-.3125 38.351563-26.011719l30.722656 30.726563-25.410156 37.355469c-2.273438 3.339843-2.316407 7.71875-.101563 11.101562 13.5625 20.726562 22.878906 43.207031 27.6875 66.8125.804687 3.941406 3.894531 7.019531 7.839844 7.808594l41.988281 8.394531zm0 0"/><path d="m298.230469 112.054688c-5.328125-1.453126-10.824219 1.6875-12.277344 7.015624-1.453125 5.328126 1.6875 10.824219 7.015625 12.277344 45.097656 12.300782 93.03125 60.167969 93.03125 124.652344 0 38.300781-16.652344 72.78125-43.09375 96.59375-10.359375-38.492188-45.605469-66.59375-86.90625-66.59375-41.296875 0-76.539062 28.097656-86.902344 66.582031-28.789062-25.828125-44.769531-62.824219-42.960937-102.628906 2.753906-55.726563 40.136719-103.402344 93.03125-118.644531 5.308593-1.527344 8.371093-7.070313 6.839843-12.375-1.53125-5.308594-7.070312-8.371094-12.375-6.839844-58.316406 16.800781-104.1875 70.414062-107.472656 136.914062-3.996094 87.878907 66.785156 156.992188 149.839844 156.992188 82.609375 0 150-66.597656 150-150 0-69.484375-48.949219-127.90625-107.769531-143.945312zm-111.484375 253.832031c4.921875-34.007813 34.296875-59.886719 69.253906-59.886719 34.984375 0 64.375 25.917969 69.265625 59.960938-20.066406 12.6875-43.820313 20.039062-69.265625 20.039062-24.558594 0-48.628906-7.132812-69.253906-20.113281zm0 0"/></svg>