<svg height="512pt" viewBox="-34 0 512 512" width="512pt" xmlns="http://www.w3.org/2000/svg"><path d="m224.421875 162.023438-84.035156-45.394532c-10.722657-5.785156-23.636719-5.785156-34.351563 0l-84.046875 45.394532c-13.546875 7.320312-21.988281 21.480468-21.988281 36.875v272.261718c0 22.558594 18.28125 40.839844 40.839844 40.839844h164.742187c1.535157 0 3.050781-.082031 4.546875-.25 20.410156-2.261719 36.28125-19.566406 36.28125-40.589844v-272.261718c0-15.394532-8.4375-29.554688-21.988281-36.875zm-101.214844 60.441406c-17.878906 0-32.371093-14.492188-32.371093-32.371094 0-17.886719 14.492187-32.378906 32.371093-32.378906 17.886719 0 32.378907 14.492187 32.378907 32.378906 0 17.878906-14.492188 32.371094-32.378907 32.371094zm0 0" fill="#fce06d"/><path d="m195.8125 229.511719c-13.546875 7.308593-21.988281 21.46875-21.988281 36.867187v204.78125c0 21.023438 15.882812 38.339844 36.304687 40.589844 20.410156-2.261719 36.28125-19.566406 36.28125-40.589844v-268.980468zm0 0" fill="#edb05f"/><path d="m123.207031 230.253906c-22.144531 0-40.160156-18.015625-40.160156-40.164062 0-22.144532 18.015625-40.160156 40.160156-40.160156 22.148438 0 40.164063 18.015624 40.164063 40.160156 0 22.148437-18.015625 40.164062-40.164063 40.164062zm0-64.75c-13.558593 0-24.589843 11.03125-24.589843 24.589844s11.03125 24.589844 24.589843 24.589844c13.5625 0 24.589844-11.03125 24.589844-24.59375 0-13.558594-11.03125-24.585938-24.589844-24.585938zm0 0" fill="#edb05f"/><path d="m123.207031 197.878906c-3.347656 0-6.324219-2.144531-7.382812-5.324218l-41.554688-124.65625c-6.21875-18.65625-1.441406-38.882813 12.460938-52.789063 9.746093-9.742187 22.699219-15.109375 36.476562-15.109375 13.78125 0 26.734375 5.363281 36.476563 15.109375 13.90625 13.90625 18.679687 34.132813 12.460937 52.789063l-41.550781 124.65625c-1.058594 3.179687-4.035156 5.324218-7.386719 5.324218zm0-182.289062c-9.222656 0-18.445312 3.507812-25.464843 10.53125-9.707032 9.707031-13.039063 23.828125-8.699219 36.851562l34.164062 102.496094 34.167969-102.496094c4.339844-13.023437 1.007812-27.144531-8.699219-36.851562-7.023437-7.023438-16.246093-10.53125-25.46875-10.53125zm0 0" fill="#71cde2"/><path d="m421.636719 229.511719-84.035157-45.394531c-10.722656-5.792969-23.640624-5.792969-34.351562 0l-84.046875 45.394531c-13.550781 7.308593-21.988281 21.46875-21.988281 36.867187v204.78125c0 22.558594 18.28125 40.839844 40.839844 40.839844h164.742187c22.546875 0 40.828125-18.28125 40.828125-40.839844v-204.78125c0-15.398437-8.441406-29.558594-21.988281-36.867187zm-101.21875 60.441406c-17.875 0-32.378907-14.503906-32.378907-32.378906s14.503907-32.378907 32.378907-32.378907c17.890625 0 32.382812 14.503907 32.382812 32.378907s-14.492187 32.378906-32.382812 32.378906zm0 0" fill="#7fb270"/><path d="m320.421875 297.738281c-22.144531 0-40.164063-18.015625-40.164063-40.164062 0-22.144531 18.015626-40.164063 40.164063-40.164063s40.164063 18.019532 40.164063 40.164063c0 22.148437-18.019532 40.164062-40.164063 40.164062zm0-64.753906c-13.558594 0-24.589844 11.03125-24.589844 24.589844 0 13.558593 11.03125 24.589843 24.589844 24.589843s24.589844-11.03125 24.589844-24.589843c0-13.558594-11.03125-24.589844-24.589844-24.589844zm0 0" fill="#518e6e"/><path d="m320.421875 265.359375c-3.351563 0-6.328125-2.144531-7.386719-5.324219l-41.550781-124.652344c-6.21875-18.660156-1.445313-38.886718 12.460937-52.792968 9.742188-9.742188 22.699219-15.105469 36.476563-15.105469s26.734375 5.363281 36.476563 15.105469l-5.507813 5.507812 5.507813-5.507812c13.90625 13.90625 18.679687 34.132812 12.460937 52.792968l-41.550781 124.652344c-1.058594 3.179688-4.035156 5.324219-7.386719 5.324219zm0-182.304687c-9.621094 0-18.664063 3.746093-25.464844 10.546874-9.707031 9.710938-13.042969 23.832032-8.699219 36.855469l34.164063 102.496094 34.164063-102.496094c4.34375-13.023437 1.011718-27.144531-8.699219-36.855469-6.800781-6.800781-15.84375-10.546874-25.464844-10.546874zm0 0" fill="#ff6694"/><path d="m349.273438 402.332031c-6.175782-5.707031-14.257813-8.980469-21.363282-11.597656v-34.921875c7.316406.546875 11.859375 2.820312 15.179688 4.484375 2.140625 1.070313 3.828125 1.914063 5.46875 1.914063 5.160156 0 7.75-6.410157 7.75-10 0-3.84375-3.414063-7.097657-9.871094-9.40625-5.003906-1.789063-11.921875-2.980469-18.527344-3.1875v-4.546876c0-2.113281-2.589844-4.113281-5.324218-4.113281-2.839844 0-5.152344 1.84375-5.152344 4.113281v4.90625c-9.988282 1.070313-32.898438 6.375-32.898438 32.320313 0 22.292969 17.457032 28.542969 32.898438 34.03125v40.460937c-10.929688-.898437-16.824219-5.914062-21.132813-9.578124-2.574219-2.191407-4.605469-3.917969-6.789062-3.917969-4.28125 0-8.09375 5.589843-8.09375 10 0 4.402343 3.742187 9.402343 10.015625 13.375 7.03125 4.457031 16.261718 7.003906 26 7.183593v5.238282c0 2.269531 2.308594 4.113281 5.152344 4.113281 2.734374 0 5.320312-2 5.320312-4.113281v-5.773438c9.496094-1.339844 17.355469-5.089844 22.738281-10.847656 5.824219-6.234375 8.777344-14.625 8.777344-24.933594 0-10.648437-3.320313-18.890625-10.148437-25.203125zm-7.425782 27.105469c0 9.25-5.175781 15.121094-14.976562 16.988281v-36.183593c7.800781 3.367187 14.976562 8.054687 14.976562 19.195312zm-23.375-73.269531v31.179687c-8.972656-3.394531-16.363281-7.035156-16.363281-16.78125 0-10.144531 8.863281-13.433594 16.363281-14.398437zm0 0" fill="#4d5160"/><g fill="#ff6694"><path d="m120.351562 420.226562c-21.472656-.347656-36.019531-11.949218-36.019531-20.433593 0-4.15625 3.636719-9.867188 7.96875-9.867188 5.710938 0 10.386719 12.117188 28.050781 13.503907v-40.691407c-15.585937-5.539062-32.898437-11.773437-32.898437-33.9375 0-21.816406 16.449219-30.472656 32.898437-32.207031v-5.019531c0-2.078125 2.078126-3.984375 5.019532-3.984375 2.597656 0 5.195312 1.90625 5.195312 3.984375v4.671875c11.773438.347656 28.398438 3.984375 28.398438 12.46875 0 3.289062-2.425782 9.871094-7.621094 9.871094-4.15625 0-8.65625-5.542969-20.777344-6.40625v35.148437c15.0625 5.539063 31.511719 13.160156 31.511719 36.707031 0 21.300782-12.8125 33.074219-31.511719 35.671875v5.886719c0 2.078125-2.597656 3.980469-5.195312 3.980469-2.941406 0-5.019532-1.902344-5.019532-3.980469zm1.035157-76.1875v-31.515624c-9.695313 1.210937-16.621094 5.542968-16.621094 14.546874 0 9.867188 7.445313 13.503907 16.621094 16.96875zm8.140625 22.507813v36.535156c9.351562-1.730469 15.238281-7.269531 15.238281-17.140625 0-10.910156-6.753906-15.757812-15.238281-19.394531zm0 0"/><path d="m125.371094 429.707031c-2.839844 0-5.152344-1.84375-5.152344-4.113281v-5.238281c-9.738281-.179688-18.964844-2.726563-25.996094-7.183594-6.273437-3.972656-10.019531-8.972656-10.019531-13.375 0-4.410156 3.8125-10 8.097656-10 2.183594 0 4.214844 1.730469 6.789063 3.917969 4.308594 3.664062 10.203125 8.679687 21.132812 9.578125v-40.460938c-15.441406-5.488281-32.902344-11.738281-32.902344-34.03125 0-25.945312 22.910157-31.246093 32.902344-32.320312v-4.90625c0-2.269531 2.308594-4.113281 5.148438-4.113281 2.738281 0 5.324218 2 5.324218 4.113281v4.550781c6.605469.203125 13.523438 1.394531 18.527344 3.183594 6.457032 2.308594 9.871094 5.5625 9.871094 9.40625 0 3.589844-2.589844 10-7.75 10-1.640625 0-3.328125-.84375-5.464844-1.914063-3.324218-1.660156-7.867187-3.933593-15.183594-4.484375v34.921875c7.105469 2.617188 15.1875 5.890625 21.367188 11.597657 6.828125 6.3125 10.148438 14.554687 10.148438 25.203124 0 10.3125-2.957032 18.699219-8.78125 24.9375-5.378907 5.753907-13.238282 9.503907-22.734376 10.84375v5.773438c0 2.113281-2.585937 4.113281-5.324218 4.113281zm-33.074219-39.652343c-3.453125 0-7.835937 4.585937-7.835937 9.738281 0 4.3125 3.699218 9.234375 9.898437 13.160156 7.023437 4.449219 16.253906 6.984375 25.992187 7.144531h.128907v5.496094c0 2.125 2.195312 3.851562 4.890625 3.851562 2.554687 0 5.0625-1.90625 5.0625-3.851562v-6l.113281-.015625c9.488281-1.320313 17.335937-5.046875 22.691406-10.78125 5.78125-6.1875 8.710938-14.515625 8.710938-24.761719 0-10.570312-3.292969-18.75-10.066407-25.011718-6.164062-5.695313-14.257812-8.960938-21.363281-11.574219l-.085937-.03125v-35.382813l.140625.011719c7.449219.53125 12.058593 2.835937 15.417969 4.519531 2.109374 1.054688 3.773437 1.886719 5.351562 1.886719 4.988281 0 7.488281-6.242187 7.488281-9.738281 0-8.441406-16.90625-12.003906-28.269531-12.339844h-.125v-4.804688c0-1.941406-2.511719-3.851562-5.066406-3.851562-2.695313 0-4.890625 1.730469-4.890625 3.851562v5.140626l-.117188.011718c-6.394531.671875-15.496093 2.699219-22.546875 8.542969-6.792968 5.621094-10.234375 13.539063-10.234375 23.535156 0 22.148438 17.429688 28.347657 32.8125 33.816407l.085938.027343v40.925781l-.140625-.011718c-11.101563-.871094-17.0625-5.945313-21.417969-9.652344-2.535156-2.152344-4.535156-3.851562-6.625-3.851562zm37.101563 13.183593v-36.886719l.179687.078126c7.953125 3.410156 15.316406 8.132812 15.316406 19.511718 0 9.4375-5.308593 15.410156-15.34375 17.269532zm.257812-36.492187v36.179687c9.800781-1.863281 14.980469-7.734375 14.980469-16.984375 0-11.144531-7.175781-15.828125-14.980469-19.195312zm-8.136719-22.519532-.175781-.066406c-9.140625-3.449218-16.707031-7.117187-16.707031-17.089844 0-8.230468 5.785156-13.304687 16.734375-14.675781l.148437-.015625zm-.261719-31.554687c-7.5.964844-16.363281 4.253906-16.363281 14.398437 0 9.742188 7.394531 13.386719 16.363281 16.78125zm0 0"/></g></svg>