<svg height="512" viewBox="0 0 64 64" width="512" xmlns="http://www.w3.org/2000/svg"><g id="cluster"><path d="m10 38a7 7 0 0 1 0-14h.84a9.994 9.994 0 0 1 17.3-9.8 12.991 12.991 0 1 1 23.09 9.8h2.77a7 7 0 0 1 0 14z" fill="#57a4ff"/><path d="m61 31a7 7 0 0 1 -7 7h-2a7 7 0 0 0 0-14h2a7 7 0 0 1 7 7z" fill="#2488ff"/><path d="m56 44a5 5 0 0 1 0 10h-34a5 5 0 0 1 0-10h1c-.28-.78-1-1.62-1-2.5a7.495 7.495 0 0 1 14.01-3.71 10 10 0 1 1 17.98 6.21z" fill="#e0e0e2"/><path d="m56 38a10 10 0 0 1 -2.01 6h-2a9.991 9.991 0 0 0 -6.97-15.95c.32-.03.65-.05.98-.05a10 10 0 0 1 10 10z" fill="#c6c5ca"/><path d="m61 49a5 5 0 0 1 -5 5h-2a5 5 0 0 0 0-10h2a5 5 0 0 1 5 5z" fill="#c6c5ca"/><path d="m54 16a12.928 12.928 0 0 1 -2.77 8h-2a12.981 12.981 0 0 0 -9.25-20.96c.34-.03.68-.04 1.02-.04a13 13 0 0 1 13 13z" fill="#2488ff"/><path d="m53 51v4l-1.98.49 1.05 1.75-2.83 2.83-1.75-1.05-.49 1.98h-4l-.49-1.98-1.75 1.05-2.83-2.83 1.05-1.75-1.98-.49v-4l1.98-.49-1.05-1.75 2.83-2.83 1.75 1.05.49-1.98h4l.49 1.98 1.75-1.05 2.83 2.83-1.05 1.75z" fill="#c0ab91"/><circle cx="45" cy="53" fill="#ffeb99" r="3"/><path d="m22 54h3s4 2.34 4 4a3 3 0 0 1 -3 3h-20a3 3 0 0 1 0-6v-1a5 5 0 0 1 5-5 5.466 5.466 0 0 1 3 1 6.1 6.1 0 0 1 3.3-2.72 5.182 5.182 0 0 0 -.3 1.72 5 5 0 0 0 5 5z" fill="#57a4ff"/><path d="m53 55-1.98.49 1.05 1.75-2.83 2.83-1.25-.75 2.08-2.08-1.05-1.75 1.98-.49v-4l-1.98-.49 1.05-1.75-2.08-2.08 1.25-.75 2.83 2.83-1.05 1.75 1.98.49z" fill="#b39a7c"/><path d="m56 43h-.208a10.87 10.87 0 0 0 1.185-4.6 7.983 7.983 0 0 0 -2.977-15.4h-.885a13.805 13.805 0 0 0 1.885-7 13.992 13.992 0 0 0 -27.414-3.958 10.994 10.994 0 0 0 -18.586 7.958 10.881 10.881 0 0 0 .424 3.021 8 8 0 0 0 .576 15.979h11.376a8.466 8.466 0 0 0 -.376 2.5 3.53 3.53 0 0 0 .4 1.53 6 6 0 0 0 -4.832 3.476 6.939 6.939 0 0 0 -2.859 2.162 6.3 6.3 0 0 0 -2.709-.668 6.006 6.006 0 0 0 -6 6v.126a4 4 0 0 0 1 7.874h20a4 4 0 0 0 4-4 4.613 4.613 0 0 0 -1.878-3h7.878a1 1 0 0 0 .757.97l.669.167-.355.591a1 1 0 0 0 .151 1.222l2.828 2.828a1 1 0 0 0 1.222.151l.591-.355.167.669a1 1 0 0 0 .97.757h4a1 1 0 0 0 .97-.757l.167-.669.591.355a1 1 0 0 0 1.222-.151l2.828-2.828a1 1 0 0 0 .151-1.222l-.355-.591.669-.167a1 1 0 0 0 .757-.97h2a6 6 0 0 0 0-12zm-46-6a6 6 0 0 1 0-12h.84a1 1 0 0 0 .915-1.4 8.9 8.9 0 0 1 -.755-3.6 9 9 0 0 1 16.326-5.219 1 1 0 0 0 1.8-.443 11.992 11.992 0 0 1 23.874 1.662 11.874 11.874 0 0 1 -2.558 7.384 1 1 0 0 0 .788 1.616h2.77a5.989 5.989 0 0 1 2.849 11.263 11.008 11.008 0 0 0 -10.849-9.263c-.337 0-.671.016-1 .045v-7.045h2v-2h-3a1 1 0 0 0 -1 1v8.413a10.86 10.86 0 0 0 -4 2.087v-16.5h2v-2h-3a1 1 0 0 0 -1 1v19.661a10.926 10.926 0 0 0 -1.669 3.665 8.562 8.562 0 0 0 -2.331-1.556v-11.77a1 1 0 0 0 -1-1h-10v2h9v10.14a8.349 8.349 0 0 0 -4 .236v-2.376a1 1 0 0 0 -1-1h-16v2h15v2.3a8.539 8.539 0 0 0 -2.7 2.7zm18 21a2 2 0 0 1 -2 2h-20a2 2 0 0 1 0-4 1 1 0 0 0 1-1v-1a4 4 0 0 1 4-4 4.473 4.473 0 0 1 2.425.818 1 1 0 0 0 1.431-.3 5.642 5.642 0 0 1 1.152-1.366 6 6 0 0 0 4.992 5.758v1.09h-7v2h8a1 1 0 0 0 1-1v-2h1.715c1.717 1.047 3.285 2.466 3.285 3zm24-3.781-1.221.3a1 1 0 0 0 -.614 1.485l.647 1.079-1.724 1.724-1.079-.647a1 1 0 0 0 -1.485.614l-.305 1.226h-2.438l-.3-1.221a1 1 0 0 0 -1.485-.614l-1.079.647-1.724-1.724.647-1.079a1 1 0 0 0 -.614-1.485l-1.226-.305v-2.438l1.221-.3a1 1 0 0 0 .614-1.485l-.647-1.079 1.724-1.724 1.079.647a1 1 0 0 0 1.485-.615l.3-1.22h2.438l.3 1.22a1 1 0 0 0 1.485.615l1.079-.647 1.724 1.724-.647 1.079a1 1 0 0 0 .614 1.485l1.221.3zm4-1.219h-2v-2a1 1 0 0 0 -.757-.97l-.669-.167.355-.591a1 1 0 0 0 -.151-1.222l-2.828-2.828a1 1 0 0 0 -1.222-.151l-.591.355-.167-.669a1 1 0 0 0 -.97-.757h-4a1 1 0 0 0 -.97.757l-.167.669-.591-.355a1 1 0 0 0 -1.222.151l-2.828 2.828a1 1 0 0 0 -.151 1.222l.355.591-.669.167a1 1 0 0 0 -.757.97v2h-14a4 4 0 0 1 0-8h1a1 1 0 0 0 .941-1.338 7.117 7.117 0 0 0 -.475-.991 3.065 3.065 0 0 1 -.466-1.171 6.494 6.494 0 0 1 12.141-3.214 1 1 0 0 0 1.868-.474 9 9 0 1 1 16.18 5.588 1 1 0 0 0 .8 1.6h2.011a4 4 0 0 1 0 8z"/><path d="m45 49a4 4 0 1 0 4 4 4 4 0 0 0 -4-4zm0 6a2 2 0 1 1 2-2 2 2 0 0 1 -2 2z"/><path d="m25.03 40.977 1.987.231a2.5 2.5 0 0 1 2.483-2.208v-2a4.5 4.5 0 0 0 -4.47 3.977z"/><path d="m46 31v2a5.006 5.006 0 0 1 5 5h2a7.008 7.008 0 0 0 -7-7z"/><path d="m49 16h2a10.011 10.011 0 0 0 -10-10v2a8.009 8.009 0 0 1 8 8z"/><path d="m15.419 22a4.946 4.946 0 0 1 -.419-2 5.006 5.006 0 0 1 5-5v-2a7.008 7.008 0 0 0 -7 7 6.922 6.922 0 0 0 .587 2.8z"/><path d="m18 21h2v2h-2z"/><path d="m6 30h2v2h-2z"/><path d="m43 11h2v2h-2z"/><path d="m49 18h2v2h-2z"/><path d="m10 56h2v2h-2z"/></g></svg>