<?xml version="1.0" encoding="iso-8859-1"?>
<!-- Generator: Adobe Illustrator 19.0.0, SVG Export Plug-In . SVG Version: 6.00 Build 0)  -->
<svg version="1.1" id="Capa_1" xmlns="http://www.w3.org/2000/svg" xmlns:xlink="http://www.w3.org/1999/xlink" x="0px" y="0px"
	 viewBox="0 0 511.999 511.999" style="enable-background:new 0 0 511.999 511.999;" xml:space="preserve">
<path style="fill:#707487;" d="M255.375,16.712c-36.6,0-66.268,29.669-66.268,66.268v26.795c4.429-4.105,10.73-6.337,16.88-5.515
	v-3.302c0-2.625,2.241-4.699,4.84-4.502c25.621,1.841,51.696-6.301,71.411-19.18c1.841-1.203,4.278-0.904,5.773,0.704
	c16.855,18.118,16.753,17.416,16.753,19.782v6.484c6.742-1.011,12.722,1.073,16.877,4.936V82.981
	C321.643,46.381,291.975,16.712,255.375,16.712z"/>
<path style="fill:#5B5D6E;" d="M209.946,82.981c0-33.054,24.2-60.447,55.849-65.447c-3.395-0.536-6.873-0.822-10.419-0.822
	c-36.6,0-66.268,29.669-66.268,66.268v26.795c4.429-4.106,10.73-6.337,16.88-5.515v-3.302c0-2.322,1.755-4.205,3.958-4.475
	L209.946,82.981L209.946,82.981z"/>
<path style="fill:#F0A479;" d="M304.677,101.847v36.443c0,0.395-0.021,0.785-0.03,1.179c12.896,1.953,22.997-7.365,22.997-18.809
	C327.643,109.193,317.534,99.92,304.677,101.847z"/>
<path style="fill:#E59770;" d="M321.673,106.85c-4.173-3.91-10.2-6.022-16.996-5.003v36.443c0,0.395-0.021,0.785-0.03,1.179
	c6.817,1.032,12.851-1.086,17.026-5.002V106.85z"/>
<path style="fill:#F0A479;" d="M206.135,138.334v-36.521c-11.256-1.503-23.025,7.135-23.025,18.846
	c0,11.458,10.104,20.817,23.054,18.857C206.154,139.122,206.135,138.729,206.135,138.334z"/>
<path style="fill:#E59770;" d="M206.135,132.668c-2.699-3.301-4.275-7.489-4.275-12.009c0-4.367,1.638-8.307,4.275-11.453v-7.393
	c-11.256-1.503-23.026,7.136-23.026,18.846c0,11.458,10.104,20.817,23.054,18.857c-0.009-0.394-0.029-0.787-0.029-1.181v-5.667
	H206.135z"/>
<path style="fill:#F0A479;" d="M256.081,184.579c-10.706,0-20.115-2.939-27.81-7.856v27.149l27.691,34.18l27.69-34.18v-27.883
	C275.808,181.4,266.31,184.579,256.081,184.579z"/>
<path style="fill:#E59770;" d="M248.876,184.113c-7.754-1.005-14.688-3.61-20.605-7.39v27.149l20.605,25.433V184.113z"/>
<path style="fill:#E4EAF8;" d="M356.906,229.915l-73.254-28.37l-27.69,34.18l-27.691-34.18l-73.177,28.37
	c0,0-27.094,11.138-27.094,42.025c0,27.948,0,98.592,0,121.169c0,4.986,4.043,9.028,9.028,9.028c3.799,0,234.085,0,237.943,0
	c4.986,0,9.028-4.043,9.028-9.028c0-22.577,0-93.222,0-121.169C384,241.053,356.906,229.915,356.906,229.915z"/>
<path style="fill:#D8DCE5;" d="M148.605,393.109c0-22.578,0-103.524,0-131.472c0-18.314,9.525-29.683,17.28-35.906l-10.791,4.184
	c0,0-27.094,11.138-27.094,42.025c0,27.948,0,98.592,0,121.17c0,4.986,4.043,9.028,9.028,9.028c0.669,0,8.366,0,20.605,0
	C152.648,402.137,148.605,398.095,148.605,393.109z"/>
<path style="fill:#F0A479;" d="M288.012,75.654c-1.496-1.608-3.933-1.907-5.773-0.704c-19.715,12.879-45.79,21.021-71.411,19.18
	c-2.599-0.197-4.84,1.877-4.84,4.502v39.589c0,25.444,19.937,48.684,50.094,48.684c26.845,0,48.685-21.84,48.685-48.684V95.436
	C304.766,93.07,304.867,93.771,288.012,75.654z"/>
<path style="fill:#E59770;" d="M226.626,138.222V94.039c-5.246,0.42-10.531,0.469-15.798,0.091c-2.599-0.197-4.84,1.877-4.84,4.502
	v39.59c0,25.444,19.937,48.684,50.094,48.684c3.291,0,6.505-0.332,9.615-0.958C243.441,181.471,226.626,161.775,226.626,138.222z"/>
<g>
	<path style="fill:#D8DCE5;" d="M289.396,253.288l20.706-41.499l-26.45-10.244l-27.69,34.18l26.997,19.174
		C285.144,256.451,288.199,255.686,289.396,253.288z"/>
	<path style="fill:#D8DCE5;" d="M222.566,253.288l-20.706-41.499l26.45-10.244l27.69,34.18l-26.997,19.174
		C226.818,256.451,223.763,255.686,222.566,253.288z"/>
</g>
<path style="fill:#FF5050;" d="M284.124,368.613l-17.772-105.172h-10.354h-0.033H245.61l-17.772,105.172
	c-0.187,1.355,0.211,2.731,1.058,3.665l0,0l0,0l24.536,27.036c1.367,1.506,3.731,1.506,5.098,0l24.536-27.036l0,0l0,0
	C283.913,371.344,284.311,369.967,284.124,368.613z"/>
<g>
	<path style="fill:#ED3A3A;" d="M249.535,372.277c-0.847-0.934-1.245-2.31-1.058-3.665l17.772-105.172h-10.251h-0.033H245.61
		l-17.772,105.172c-0.187,1.355,0.211,2.731,1.058,3.665l24.536,27.035c1.367,1.506,3.731,1.506,5.098,0l7.77-8.562L249.535,372.277
		z"/>
	<polygon style="fill:#ED3A3A;" points="255.998,235.749 255.998,235.725 255.981,235.737 255.964,235.725 255.964,235.749 
		236.328,249.694 245.61,263.664 255.964,263.664 255.998,263.664 266.352,263.664 275.634,249.694 	"/>
</g>
<path style="fill:#DB2A2A;" d="M266.284,243.054l-10.286-7.305v-0.024l-0.017,0.012l-0.017-0.012v0.024l-19.636,13.946l9.282,13.969
	h10.354h0.033h10.217l-7.968-11.992c-0.732-1.102-0.457-2.586,0.622-3.352L266.284,243.054z"/>
<path style="fill:#707487;" d="M383.375,109.863c-36.6,0-66.268,29.669-66.268,66.268v26.795c4.429-4.105,10.73-6.337,16.88-5.515
	v-3.302c0-2.625,2.241-4.699,4.84-4.502c25.621,1.841,51.696-6.301,71.411-19.18c1.841-1.203,4.278-0.904,5.773,0.704
	c16.855,18.118,16.753,17.416,16.753,19.782v6.484c6.742-1.011,12.722,1.073,16.877,4.936v-26.202
	C449.643,139.531,419.975,109.863,383.375,109.863z"/>
<path style="fill:#5B5D6E;" d="M337.946,176.131c0-33.054,24.2-60.447,55.849-65.447c-3.395-0.536-6.873-0.822-10.419-0.822
	c-36.6,0-66.268,29.669-66.268,66.269v26.795c4.429-4.106,10.73-6.337,16.88-5.515v-3.302c0-2.322,1.755-4.205,3.958-4.475V176.131z
	"/>
<path style="fill:#F0A479;" d="M432.677,194.997v36.443c0,0.395-0.021,0.785-0.03,1.179c12.896,1.953,22.997-7.365,22.997-18.809
	C455.643,202.343,445.534,193.07,432.677,194.997z"/>
<path style="fill:#E59770;" d="M449.673,200c-4.173-3.91-10.2-6.022-16.996-5.003v36.443c0,0.395-0.021,0.785-0.03,1.179
	c6.817,1.032,12.851-1.086,17.026-5.002V200z"/>
<path style="fill:#F0A479;" d="M334.135,231.485v-36.521c-11.256-1.503-23.025,7.135-23.025,18.846
	c0,11.458,10.104,20.817,23.054,18.857C334.154,232.272,334.135,231.879,334.135,231.485z"/>
<path style="fill:#E59770;" d="M334.135,225.818c-2.699-3.301-4.275-7.489-4.275-12.009c0-4.367,1.638-8.307,4.275-11.453v-7.393
	c-11.256-1.503-23.026,7.135-23.026,18.846c0,11.458,10.104,20.817,23.054,18.857c-0.009-0.394-0.029-0.787-0.029-1.181
	L334.135,225.818L334.135,225.818z"/>
<path style="fill:#F0A479;" d="M384.081,277.729c-10.706,0-20.115-2.939-27.81-7.856v27.149l27.691,34.18l27.69-34.18v-27.883
	C403.808,274.549,394.31,277.729,384.081,277.729z"/>
<path style="fill:#E59770;" d="M376.876,277.263c-7.754-1.005-14.688-3.61-20.605-7.39v27.149l20.605,25.433V277.263z"/>
<path style="fill:#E4EAF8;" d="M484.906,323.065l-73.254-28.37l-27.69,34.18l-27.691-34.18l-73.177,28.37
	c0,0-27.094,11.139-27.094,42.025c0,27.948,0,98.592,0,121.169c0,4.986,4.043,9.028,9.028,9.028c3.799,0,234.085,0,237.943,0
	c4.986,0,9.028-4.043,9.028-9.028c0-22.577,0-93.222,0-121.169C512,334.203,484.906,323.065,484.906,323.065z"/>
<path style="fill:#D8DCE5;" d="M276.605,486.259c0-22.578,0-103.524,0-131.472c0-18.314,9.525-29.683,17.28-35.906l-10.791,4.184
	c0,0-27.094,11.138-27.094,42.025c0,27.948,0,98.592,0,121.17c0,4.986,4.043,9.028,9.029,9.028c0.669,0,8.366,0,20.605,0
	C280.647,495.288,276.605,491.245,276.605,486.259z"/>
<path style="fill:#F0A479;" d="M416.012,168.804c-1.496-1.608-3.933-1.907-5.773-0.704c-19.715,12.879-45.79,21.021-71.411,19.18
	c-2.599-0.197-4.84,1.877-4.84,4.502v39.589c0,25.444,19.937,48.684,50.094,48.684c26.845,0,48.685-21.84,48.685-48.684v-42.785
	C432.765,186.221,432.867,186.921,416.012,168.804z"/>
<path style="fill:#E59770;" d="M354.626,231.372V187.19c-5.246,0.42-10.531,0.469-15.798,0.091c-2.599-0.197-4.84,1.877-4.84,4.502
	v39.59c0,25.444,19.937,48.684,50.094,48.684c3.291,0,6.505-0.332,9.615-0.958C371.441,274.621,354.626,254.925,354.626,231.372z"/>
<g>
	<path style="fill:#D8DCE5;" d="M417.396,346.438l20.706-41.499l-26.45-10.244l-27.69,34.18l26.997,19.174
		C413.144,349.601,416.199,348.836,417.396,346.438z"/>
	<path style="fill:#D8DCE5;" d="M350.566,346.438l-20.706-41.499l26.45-10.244l27.69,34.18l-26.997,19.174
		C354.818,349.601,351.763,348.836,350.566,346.438z"/>
</g>
<path style="fill:#FF5050;" d="M412.124,461.763l-17.772-105.172h-10.354h-0.033H373.61l-17.772,105.172
	c-0.187,1.355,0.211,2.731,1.058,3.665l0,0l0,0l24.536,27.036c1.367,1.506,3.731,1.506,5.098,0l24.536-27.036l0,0l0,0
	C411.913,464.493,412.31,463.118,412.124,461.763z"/>
<g>
	<path style="fill:#ED3A3A;" d="M377.535,465.428c-0.847-0.934-1.245-2.31-1.058-3.665l17.772-105.172h-10.251h-0.033H373.61
		l-17.772,105.172c-0.187,1.355,0.211,2.731,1.058,3.665l24.536,27.035c1.367,1.506,3.732,1.506,5.098,0l7.77-8.562L377.535,465.428
		z"/>
	<polygon style="fill:#ED3A3A;" points="383.998,328.898 383.998,328.875 383.981,328.887 383.964,328.875 383.964,328.898 
		364.328,342.844 373.61,356.814 383.964,356.814 383.998,356.814 394.352,356.814 403.633,342.844 	"/>
</g>
<path style="fill:#DB2A2A;" d="M394.283,336.204l-10.286-7.305v-0.024l-0.017,0.012l-0.017-0.012v0.024l-19.636,13.946l9.282,13.969
	h10.354h0.033h10.217l-7.968-11.992c-0.732-1.102-0.457-2.586,0.622-3.353L394.283,336.204z"/>
<g>
	<path style="fill:#D8DCE5;" d="M308.715,495.288V379.075c0-4.267-3.459-7.727-7.727-7.727s-7.727,3.459-7.727,7.727v116.212
		C297.977,495.288,303.162,495.288,308.715,495.288z"/>
	<path style="fill:#D8DCE5;" d="M473.488,495.288V379.075c0-4.267-3.459-7.727-7.727-7.727s-7.727,3.459-7.727,7.727v116.212
		C463.573,495.288,468.752,495.288,473.488,495.288z"/>
</g>
<path style="fill:#707487;" d="M127.375,109.863c-36.6,0-66.268,29.669-66.268,66.268v26.795c4.429-4.105,10.73-6.337,16.88-5.515
	v-3.302c0-2.625,2.241-4.699,4.84-4.502c25.621,1.841,51.696-6.301,71.411-19.18c1.841-1.203,4.278-0.904,5.773,0.704
	c16.855,18.118,16.753,17.416,16.753,19.782v6.484c6.742-1.011,12.722,1.073,16.877,4.936v-26.202
	C193.643,139.531,163.975,109.863,127.375,109.863z"/>
<path style="fill:#5B5D6E;" d="M81.946,176.131c0-33.054,24.2-60.447,55.849-65.447c-3.395-0.536-6.873-0.822-10.419-0.822
	c-36.6,0-66.268,29.669-66.268,66.269v26.795c4.429-4.106,10.73-6.337,16.88-5.515v-3.302c0-2.322,1.755-4.205,3.958-4.475V176.131z
	"/>
<path style="fill:#F0A479;" d="M176.677,194.997v36.443c0,0.395-0.021,0.785-0.03,1.179c12.896,1.953,22.997-7.365,22.997-18.809
	C199.643,202.343,189.534,193.07,176.677,194.997z"/>
<path style="fill:#E59770;" d="M193.673,200c-4.173-3.91-10.2-6.022-16.996-5.003v36.443c0,0.395-0.021,0.785-0.03,1.179
	c6.817,1.032,12.851-1.086,17.026-5.002V200z"/>
<path style="fill:#F0A479;" d="M78.135,231.485v-36.521c-11.256-1.503-23.026,7.135-23.026,18.846
	c0,11.458,10.104,20.817,23.054,18.857C78.154,232.272,78.135,231.879,78.135,231.485z"/>
<path style="fill:#E59770;" d="M78.135,225.818c-2.699-3.301-4.275-7.489-4.275-12.009c0-4.367,1.638-8.307,4.275-11.453v-7.393
	c-11.256-1.503-23.026,7.135-23.026,18.846c0,11.458,10.104,20.817,23.054,18.857c-0.009-0.394-0.029-0.787-0.029-1.181
	L78.135,225.818L78.135,225.818z"/>
<path style="fill:#F0A479;" d="M128.081,277.729c-10.706,0-20.115-2.939-27.81-7.856v27.149l27.691,34.18l27.69-34.18v-27.883
	C147.808,274.549,138.31,277.729,128.081,277.729z"/>
<path style="fill:#E59770;" d="M120.876,277.263c-7.754-1.005-14.688-3.61-20.605-7.39v27.149l20.605,25.433
	C120.876,322.454,120.876,277.263,120.876,277.263z"/>
<path style="fill:#E4EAF8;" d="M228.906,323.065l-73.254-28.37l-27.69,34.18l-27.691-34.18l-73.177,28.37
	c0,0-27.094,11.139-27.094,42.025c0,27.948,0,98.592,0,121.169c0,4.986,4.043,9.028,9.028,9.028c3.799,0,234.085,0,237.943,0
	c4.986,0,9.028-4.043,9.028-9.028c0-22.577,0-93.222,0-121.169C256,334.203,228.906,323.065,228.906,323.065z"/>
<path style="fill:#D8DCE5;" d="M20.605,486.259c0-22.578,0-103.524,0-131.472c0-18.314,9.525-29.683,17.28-35.906l-10.791,4.184
	c0,0-27.094,11.138-27.094,42.025c0,27.948,0,98.592,0,121.17c0,4.986,4.043,9.028,9.028,9.028c0.669,0,8.366,0,20.605,0
	C24.648,495.288,20.605,491.245,20.605,486.259z"/>
<path style="fill:#F0A479;" d="M160.012,168.804c-1.496-1.608-3.933-1.907-5.773-0.704c-19.715,12.879-45.79,21.021-71.411,19.18
	c-2.599-0.197-4.84,1.877-4.84,4.502v39.589c0,25.444,19.937,48.684,50.094,48.684c26.845,0,48.685-21.84,48.685-48.684v-42.785
	C176.766,186.221,176.867,186.921,160.012,168.804z"/>
<path style="fill:#E59770;" d="M98.626,231.372V187.19c-5.246,0.42-10.531,0.469-15.798,0.091c-2.599-0.197-4.84,1.877-4.84,4.502
	v39.59c0,25.444,19.937,48.684,50.094,48.684c3.291,0,6.505-0.332,9.615-0.958C115.441,274.621,98.626,254.925,98.626,231.372z"/>
<g>
	<path style="fill:#D8DCE5;" d="M161.396,346.438l20.706-41.499l-26.45-10.244l-27.69,34.18l26.997,19.174
		C157.144,349.601,160.199,348.836,161.396,346.438z"/>
	<path style="fill:#D8DCE5;" d="M94.566,346.438L73.86,304.939l26.45-10.244l27.69,34.18l-26.997,19.174
		C98.818,349.601,95.763,348.836,94.566,346.438z"/>
</g>
<path style="fill:#FF5050;" d="M156.124,461.763l-17.772-105.172h-10.354h-0.033H117.61L99.838,461.763
	c-0.187,1.355,0.211,2.731,1.058,3.665l0,0l0,0l24.536,27.036c1.367,1.506,3.731,1.506,5.098,0l24.536-27.036l0,0l0,0
	C155.913,464.493,156.311,463.118,156.124,461.763z"/>
<g>
	<path style="fill:#ED3A3A;" d="M121.535,465.428c-0.847-0.934-1.245-2.31-1.058-3.665l17.772-105.172h-10.251h-0.033H117.61
		L99.838,461.763c-0.187,1.355,0.211,2.731,1.058,3.665l24.536,27.035c1.367,1.506,3.731,1.506,5.098,0l7.77-8.562L121.535,465.428z
		"/>
	<polygon style="fill:#ED3A3A;" points="127.998,328.898 127.998,328.875 127.981,328.887 127.964,328.875 127.964,328.898 
		108.328,342.844 117.61,356.814 127.964,356.814 127.998,356.814 138.352,356.814 147.633,342.844 	"/>
</g>
<path style="fill:#DB2A2A;" d="M138.283,336.204l-10.286-7.305v-0.024l-0.017,0.012l-0.017-0.012v0.024l-19.636,13.946l9.282,13.969
	h10.354h0.033h10.217l-7.968-11.992c-0.732-1.102-0.457-2.586,0.622-3.353L138.283,336.204z"/>
<g>
	<path style="fill:#D8DCE5;" d="M52.715,495.288V379.075c0-4.267-3.459-7.727-7.727-7.727c-4.268,0-7.727,3.459-7.727,7.727v116.212
		C41.977,495.288,47.162,495.288,52.715,495.288z"/>
	<path style="fill:#D8DCE5;" d="M217.488,495.288V379.075c0-4.267-3.459-7.727-7.727-7.727c-4.267,0-7.727,3.459-7.727,7.727
		v116.212C207.573,495.288,212.752,495.288,217.488,495.288z"/>
</g>
<g>
</g>
<g>
</g>
<g>
</g>
<g>
</g>
<g>
</g>
<g>
</g>
<g>
</g>
<g>
</g>
<g>
</g>
<g>
</g>
<g>
</g>
<g>
</g>
<g>
</g>
<g>
</g>
<g>
</g>
</svg>
