<?xml version="1.0" encoding="iso-8859-1"?>
<!-- Generator: Adobe Illustrator 19.0.0, SVG Export Plug-In . SVG Version: 6.00 Build 0)  -->
<svg version="1.1" id="Capa_1" xmlns="http://www.w3.org/2000/svg" xmlns:xlink="http://www.w3.org/1999/xlink" x="0px" y="0px"
	 viewBox="0 0 512.129 512.129" style="enable-background:new 0 0 512.129 512.129;" xml:space="preserve">
<g>
	<path style="fill:#415A6B;" d="M397.995,455.531h-53.333c-6.4,0-10.667-4.267-10.667-10.667V68.331
		c0-6.4,4.267-10.667,10.667-10.667h53.333v21.333h-42.667v355.2h42.667V455.531z"/>
	<rect x="316.929" y="245.398" style="fill:#415A6B;" width="75.733" height="21.333"/>
</g>
<g>
	<polygon style="fill:#FFD15C;" points="79.062,454.464 59.862,459.798 45.995,436.331 65.195,429.931 	"/>
	<polygon style="fill:#FFD15C;" points="281.729,446.998 265.729,467.264 253.995,436.331 276.395,423.531 	"/>
</g>
<g>
	<path style="fill:#E8EAE9;" d="M263.595,187.798l8.533-10.667c0,0,18.133,19.2,24.533,40.533c6.4,21.333,9.6,44.8,14.933,57.6
		c5.333,12.8,20.267,42.667,14.933,60.8c-4.267,18.133-27.733,77.867-29.867,84.267c-3.2,7.467-3.2,7.467-3.2,7.467l-16,26.667
		c0,0-7.467-14.933-28.8-21.333l9.6-24.533c0,0,5.333-9.6,6.4-19.2c1.067-9.6,0-14.933,2.133-25.6
		c2.133-9.6,4.267-23.467,5.333-27.733c1.067-5.333,5.333-11.733,2.133-18.133c-3.2-6.4-26.667-55.467-26.667-55.467
		L263.595,187.798z"/>
	<path style="fill:#E8EAE9;" d="M65.195,188.864l-8.533-10.667c0,0-18.133,19.2-24.533,40.533s-9.6,45.867-16,58.667
		c-6.4,12.8-20.267,42.667-14.933,60.8c4.267,18.133,27.733,77.867,29.867,84.267s3.2,7.467,3.2,7.467l16,26.667
		c0,0,7.467-14.933,28.8-21.333l-9.6-24.533c0,0-5.333-9.6-6.4-19.2c-1.067-9.6,0-14.933-2.133-25.6
		c-2.133-9.6-4.267-23.467-5.333-27.733c-2.133-5.333-6.4-11.733-3.2-18.133c3.2-6.4,26.667-55.467,26.667-55.467L65.195,188.864z"
		/>
</g>
<g>
	<path style="fill:#FFD15C;" d="M197.462,92.864c0,0-1.067,22.4-4.267,29.867v24.533l-24.533,30.933l-37.333-20.267v-29.867
		c0,0-6.4-17.067-7.467-35.2c-1.067-17.067-4.267-36.267-2.133-44.8s38.4-21.333,50.133-21.333s25.6,14.933,26.667,22.4
		C199.596,54.464,200.662,88.598,197.462,92.864z"/>
	
		<ellipse transform="matrix(0.2033 -0.9791 0.9791 0.2033 77.2004 263.5803)" style="fill:#FFD15C;" cx="200.566" cy="84.352" rx="14.933" ry="6.4"/>
	
		<ellipse transform="matrix(0.2033 0.9791 -0.9791 0.2033 177.3591 -51.0759)" style="fill:#FFD15C;" cx="120.065" cy="83.446" rx="14.933" ry="6.4"/>
</g>
<path style="fill:#415A6B;" d="M122.795,90.731h2.133c0,0-3.2-13.867-1.067-19.2c2.133-5.333,4.267-10.667,4.267-16
	s0-11.733,7.467-10.667c7.467,1.067,43.733,2.133,52.267,1.067s8.533,12.8,8.533,17.067s3.2,13.867,3.2,17.067
	c0,4.267-1.067,9.6-1.067,9.6h1.067c0,0,7.467-21.333,8.533-35.2s-8.533-43.733-40.533-52.267s-48,18.133-44.8,27.733
	c0,0-14.933,3.2-10.667,24.533S122.795,90.731,122.795,90.731z"/>
<path style="fill:#F7B64C;" d="M157.995,147.264c-14.933-1.067-26.667-20.267-26.667-20.267v29.867l17.067,9.6
	c41.6-16,44.8-43.733,44.8-43.733C188.929,132.331,172.929,148.331,157.995,147.264z"/>
<path style="fill:#CED6E0;" d="M198.529,141.931c0,0,7.467,7.467,20.267,13.867c12.8,6.4,46.933,17.067,53.333,21.333
	c0,0,2.133,45.867-23.467,84.267c0,0-5.333,110.933,0,135.467c0,0-56.533,16-75.733,16s-83.2-16-89.6-20.267
	c-7.467-4.267,8.533-59.733,9.6-69.333c0-8.533-10.667-59.733-10.667-59.733s-30.933-55.467-24.533-86.4
	c0,0,23.467-8.533,39.467-17.067c17.067-8.533,30.933-22.4,30.933-22.4l28.8,23.467l9.6-1.067l23.467-6.4L198.529,141.931z"/>
<g>
	<path style="fill:#415A6B;" d="M160.129,179.264c4.267-1.067,6.4-1.067,9.6,0c1.067-4.267,6.4-8.533,11.733-11.733l-18.133-3.2
		h-4.267l-9.6,3.2C155.862,169.664,159.062,174.998,160.129,179.264z"/>
	<path style="fill:#415A6B;" d="M185.729,347.798c-6.4,6.4-9.6,10.667-17.067,17.067c-3.2-3.2-13.867-13.867-17.067-17.067
		c0,0,3.2-138.667,4.267-146.133c1.067-7.467,4.267-22.4,4.267-22.4l7.467-4.267l3.2,5.333c0,0,5.333,19.2,5.333,30.933
		C176.129,219.798,182.529,302.998,185.729,347.798z"/>
</g>
<g>
	<path style="fill:#F3F3F3;" d="M193.195,136.598c0,0-13.867,20.267-27.733,26.667c0,0,14.933,10.667,16,17.067
		c0,0,19.2-23.467,19.2-32C200.662,139.798,193.195,136.598,193.195,136.598z"/>
	<path style="fill:#F3F3F3;" d="M161.195,163.264c0,0-7.467,5.333-12.8,17.067c0,0-18.133-19.2-23.467-32
		c-1.067-3.2-1.067-6.4,2.133-9.6l5.333-5.333C131.329,133.398,135.595,152.598,161.195,163.264z"/>
</g>
<path style="fill:#415A6B;" d="M247.596,392.598c0,0,7.467,34.133,14.933,50.133c7.467,16,4.267,23.467,4.267,23.467
	s-9.6,7.467-9.6,45.867h-92.8l-1.067-4.267l-2.133,4.267h-89.6c0,0,1.067-29.867-13.867-55.467c0,0,5.333-20.267,13.867-36.267
	s11.733-29.867,11.733-29.867C136.662,404.331,192.129,405.398,247.596,392.598z"/>
<path style="fill:#F3705A;" d="M512.129,21.398v93.867c0,11.733-9.6,21.333-21.333,21.333h-93.867
	c-11.733,0-21.333-9.6-21.333-21.333V21.398c0-11.733,9.6-21.333,21.333-21.333h93.867C502.529,0.064,512.129,9.664,512.129,21.398z
	"/>
<rect x="407.596" y="32.064" style="fill:#F05540;" width="72.533" height="72.533"/>
<path style="fill:#66C6B9;" d="M512.129,209.131v93.867c0,11.733-9.6,21.333-21.333,21.333h-93.867
	c-11.733,0-21.333-9.6-21.333-21.333v-93.867c0-11.733,9.6-21.333,21.333-21.333h93.867
	C502.529,187.798,512.129,197.398,512.129,209.131z"/>
<rect x="407.596" y="219.798" style="fill:#4ABAA5;" width="72.533" height="72.533"/>
<path style="fill:#FFD15C;" d="M512.129,396.864v93.867c0,11.733-9.6,21.333-21.333,21.333h-93.867
	c-11.733,0-21.333-9.6-21.333-21.333v-93.867c0-11.733,9.6-21.333,21.333-21.333h93.867
	C502.529,375.531,512.129,385.131,512.129,396.864z"/>
<rect x="407.596" y="407.531" style="fill:#F7B64C;" width="72.533" height="72.533"/>
<g>
</g>
<g>
</g>
<g>
</g>
<g>
</g>
<g>
</g>
<g>
</g>
<g>
</g>
<g>
</g>
<g>
</g>
<g>
</g>
<g>
</g>
<g>
</g>
<g>
</g>
<g>
</g>
<g>
</g>
</svg>
