<svg height="512" viewBox="0 0 64 64" width="512" xmlns="http://www.w3.org/2000/svg"><g id="flat"><path d="m58.664 26.027a2.075 2.075 0 0 0 -1.664 2.08v4.893l-4 4-1-1a2.715 2.715 0 0 0 -4 0l-6 5a4.933 4.933 0 0 0 -2 4v8h9v-3l7-5 5-10v-7a2 2 0 0 0 -2.336-1.973z" fill="#ffd782"/><path d="m5.336 26.027a2.075 2.075 0 0 1 1.664 2.08v4.893l4 4 1-1a2.715 2.715 0 0 1 4 0l6 5a4.933 4.933 0 0 1 2 4v8h-9v-3l-7-5-5-10v-7a2 2 0 0 1 2.336-1.973z" fill="#ffd782"/><path d="m46.964 38.5h7.071v2h-7.071z" fill="#f9bb4b" transform="matrix(.707 -.707 .707 .707 -13.14 47.278)"/><path d="m38 53h13v4h-13z" fill="#d9176c"/><path d="m40 57h9v4h-9z" fill="#f98c96"/><path d="m12.5 35.964h2v7.071h-2z" fill="#f9bb4b" transform="matrix(.707 -.707 .707 .707 -23.977 21.115)"/><path d="m13 53h13v4h-13z" fill="#d9176c" transform="matrix(-1 0 0 -1 39 110)"/><path d="m15 57h9v4h-9z" fill="#f98c96" transform="matrix(-1 0 0 -1 39 118)"/><path d="m46 30 3.913-10.726q-.078-.806-.223-1.594a18 18 0 0 0 -15.79-14.58 17.019 17.019 0 0 0 -1.9-.1l-11 5-4 5-2.962 9.019c.033.588.083 1.17.172 1.741a18.009 18.009 0 0 0 17.79 15.24 17.768 17.768 0 0 0 3.79-.412l1.21-1.588z" fill="#50b4f8"/><path d="m50 21c0-.581-.031-1.156-.087-1.726l-3.446 1.286h-4.534l1.134 5 2.266 4h-4.533l-1.133 3-5.667 1 2.267 3-.477 2.028c.18-.039.362-.073.54-.118a17.992 17.992 0 0 0 13.67-17.47z" fill="#c8d952"/><path d="m21 22-1-3-2-1-1-1v-3h3l2 1 3-3-2-1-1-3 4-2 1 3 2 2 3-1 6 1-2-5h-3l-1-3a18 18 0 0 0 -18 18c0 .343.02.681.038 1.019l3.962 1.981z" fill="#c8d952"/><path d="m32 19a3.8 3.8 0 0 0 -5 0 2.458 2.458 0 0 0 0 4l5 5 5-5a2.458 2.458 0 0 0 0-4 3.8 3.8 0 0 0 -5 0z" fill="#fcf05a"/><g fill="#f4f4e6"><path d="m23 30h2v2h-2z"/><path d="m27 33h2v2h-2z"/></g></g></svg>